M48
; DRILL file {KiCad (6.0.1-0)} date Sonntag, 30. Januar 2022 um 18:46:34
; FORMAT={-:-/ absolute / inch / decimal}
; #@! TF.CreationDate,2022-01-30T18:46:34+01:00
; #@! TF.GenerationSoftware,Kicad,Pcbnew,(6.0.1-0)
; #@! TF.FileFunction,Plated,1,4,PTH
FMAT,2
INCH
; #@! TA.AperFunction,Plated,PTH,ViaDrill
T1C0.0157
; #@! TA.AperFunction,Plated,PTH,ComponentDrill
T2C0.0295
; #@! TA.AperFunction,Plated,PTH,ComponentDrill
T3C0.0394
; #@! TA.AperFunction,Plated,PTH,ComponentDrill
T4C0.0402
%
G90
G05
T1
X3.0502Y-4.2303
X3.1014Y-4.8829
X3.1171Y-3.5285
X3.1171Y-3.8642
X3.1457Y-3.626
X3.2018Y-4.6053
X3.2018Y-5.1535
X3.2441Y-3.8041
X3.2549Y-3.9705
X3.2923Y-3.2628
X3.3602Y-3.4567
X3.4301Y-3.9724
X3.4882Y-4.1801
X3.5315Y-3.2618
X3.5748Y-4.126
X3.686Y-3.2618
X3.7008Y-4.6063
X3.7018Y-5.1526
X3.747Y-3.75
X3.9636Y-3.4193
X4.2008Y-4.6053
X4.2028Y-5.1526
X4.2254Y-3.4193
X4.3868Y-3.685
X4.4823Y-3.4193
X4.502Y-5.1575
X4.5994Y-3.5285
X4.7018Y-5.1526
X4.7028Y-4.6063
X4.749Y-4.1093
X4.8002Y-3.4596
X4.812Y-3.8898
X4.814Y-3.9764
X4.8996Y-4.1929
X4.9026Y-5.1526
X4.9085Y-3.5069
X4.9281Y-3.6919
X4.9281Y-3.8593
X5.0276Y-3.7146
T2
X3.2984Y-4.1801
X3.3484Y-4.1801
X3.3984Y-4.1801
T3
X2.9986Y-5.4183
X3.001Y-4.3474
X3.0986Y-5.4183
X3.101Y-4.3474
X3.1986Y-5.4183
X3.201Y-4.3474
X3.2986Y-5.4183
X3.301Y-4.3474
X3.3986Y-5.4183
X3.401Y-4.3474
X3.4986Y-5.4183
X3.501Y-4.3474
X3.5394Y-3.6014
X3.5986Y-5.4183
X3.601Y-4.3474
X3.6986Y-5.4183
X3.701Y-4.3474
X3.7986Y-5.4183
X3.801Y-4.3474
X3.8986Y-5.4183
X3.901Y-4.3474
X3.9986Y-5.4183
X4.001Y-4.3474
X4.0986Y-5.4183
X4.101Y-4.3474
X4.1986Y-5.4183
X4.201Y-4.3474
X4.2986Y-5.4183
X4.301Y-4.3474
X4.3986Y-5.4183
X4.401Y-4.3474
X4.4986Y-5.4183
X4.501Y-4.3474
X4.5986Y-5.4183
X4.601Y-4.3474
X4.6986Y-5.4183
X4.701Y-4.3474
X4.7986Y-5.4183
X4.801Y-4.3474
X4.8986Y-5.4183
X4.901Y-4.3474
T4
X3.0016Y-4.5329
X3.0016Y-5.2329
X3.0106Y-4.7829
X3.0106Y-4.8829
X3.0106Y-4.9829
X3.1016Y-4.5329
X3.1016Y-5.2329
X3.2016Y-4.5329
X3.2016Y-5.2329
X3.3016Y-4.5329
X3.3016Y-5.2329
X3.4016Y-4.5329
X3.4016Y-5.2329
X3.5016Y-4.5329
X3.5016Y-5.2329
X3.6016Y-4.5329
X3.6016Y-5.2329
X3.7016Y-4.5329
X3.7016Y-5.2329
X3.8016Y-4.5329
X3.8016Y-5.2329
X3.9016Y-4.5329
X3.9016Y-5.2329
X4.0016Y-4.5329
X4.0016Y-5.2329
X4.1016Y-4.5329
X4.1016Y-5.2329
X4.2016Y-4.5329
X4.2016Y-5.2329
X4.3016Y-4.5329
X4.3016Y-5.2329
X4.4016Y-4.5329
X4.4016Y-5.2329
X4.5016Y-4.5329
X4.5016Y-5.2329
X4.6016Y-4.5329
X4.6016Y-5.2329
X4.7016Y-4.5329
X4.7016Y-5.2329
X4.8016Y-4.5329
X4.8016Y-5.2329
X4.9016Y-4.5329
X4.9016Y-5.2329
T0
M30
