%TF.GenerationSoftware,KiCad,Pcbnew,(6.0.1-0)*%
%TF.CreationDate,2022-01-30T18:46:34+01:00*%
%TF.ProjectId,Pico_LoRa,5069636f-5f4c-46f5-9261-2e6b69636164,1.1*%
%TF.SameCoordinates,Original*%
%TF.FileFunction,Soldermask,Top*%
%TF.FilePolarity,Negative*%
%FSLAX46Y46*%
G04 Gerber Fmt 4.6, Leading zero omitted, Abs format (unit mm)*
G04 Created by KiCad (PCBNEW (6.0.1-0)) date 2022-01-30 18:46:34*
%MOMM*%
%LPD*%
G01*
G04 APERTURE LIST*
G04 Aperture macros list*
%AMRoundRect*
0 Rectangle with rounded corners*
0 $1 Rounding radius*
0 $2 $3 $4 $5 $6 $7 $8 $9 X,Y pos of 4 corners*
0 Add a 4 corners polygon primitive as box body*
4,1,4,$2,$3,$4,$5,$6,$7,$8,$9,$2,$3,0*
0 Add four circle primitives for the rounded corners*
1,1,$1+$1,$2,$3*
1,1,$1+$1,$4,$5*
1,1,$1+$1,$6,$7*
1,1,$1+$1,$8,$9*
0 Add four rect primitives between the rounded corners*
20,1,$1+$1,$2,$3,$4,$5,0*
20,1,$1+$1,$4,$5,$6,$7,0*
20,1,$1+$1,$6,$7,$8,$9,0*
20,1,$1+$1,$8,$9,$2,$3,0*%
G04 Aperture macros list end*
%ADD10C,3.200000*%
%ADD11RoundRect,0.250000X0.450000X-0.325000X0.450000X0.325000X-0.450000X0.325000X-0.450000X-0.325000X0*%
%ADD12RoundRect,0.250000X0.350000X0.450000X-0.350000X0.450000X-0.350000X-0.450000X0.350000X-0.450000X0*%
%ADD13RoundRect,0.250000X-0.350000X-0.450000X0.350000X-0.450000X0.350000X0.450000X-0.350000X0.450000X0*%
%ADD14RoundRect,0.250000X-0.450000X0.350000X-0.450000X-0.350000X0.450000X-0.350000X0.450000X0.350000X0*%
%ADD15RoundRect,0.250000X-0.250000X-0.750000X0.250000X-0.750000X0.250000X0.750000X-0.250000X0.750000X0*%
%ADD16R,0.200000X0.600000*%
%ADD17R,0.600000X0.200000*%
%ADD18R,1.150000X1.470000*%
%ADD19R,1.050000X1.500000*%
%ADD20O,1.050000X1.500000*%
%ADD21R,1.700000X1.700000*%
%ADD22O,1.700000X1.700000*%
%ADD23RoundRect,0.250000X-0.475000X0.337500X-0.475000X-0.337500X0.475000X-0.337500X0.475000X0.337500X0*%
%ADD24C,1.000000*%
%ADD25RoundRect,0.250000X0.450000X-0.350000X0.450000X0.350000X-0.450000X0.350000X-0.450000X-0.350000X0*%
%ADD26RoundRect,0.250000X-0.337500X-0.475000X0.337500X-0.475000X0.337500X0.475000X-0.337500X0.475000X0*%
%ADD27R,0.500000X0.350000*%
%ADD28O,1.500000X1.500000*%
%ADD29O,1.800000X1.800000*%
%ADD30R,1.700000X3.500000*%
%ADD31R,3.500000X1.700000*%
%ADD32R,2.000000X1.000000*%
%ADD33RoundRect,0.250000X0.475000X-0.337500X0.475000X0.337500X-0.475000X0.337500X-0.475000X-0.337500X0*%
%ADD34RoundRect,0.062500X0.062500X-0.350000X0.062500X0.350000X-0.062500X0.350000X-0.062500X-0.350000X0*%
%ADD35RoundRect,0.062500X0.350000X-0.062500X0.350000X0.062500X-0.350000X0.062500X-0.350000X-0.062500X0*%
%ADD36R,2.500000X2.500000*%
%ADD37RoundRect,0.250000X0.337500X0.475000X-0.337500X0.475000X-0.337500X-0.475000X0.337500X-0.475000X0*%
%ADD38R,0.610000X1.600000*%
%ADD39R,3.510000X2.620000*%
G04 APERTURE END LIST*
D10*
%TO.C,MK1*%
X87695000Y-96647000D03*
%TD*%
%TO.C,MK2*%
X115695000Y-96647000D03*
%TD*%
D11*
%TO.C,D3*%
X110600000Y-84975000D03*
X110600000Y-82925000D03*
%TD*%
D12*
%TO.C,R14*%
X120350000Y-89625000D03*
X118350000Y-89625000D03*
%TD*%
D13*
%TO.C,R17*%
X126625000Y-96175000D03*
X128625000Y-96175000D03*
%TD*%
D14*
%TO.C,R8*%
X100675000Y-82950000D03*
X100675000Y-84950000D03*
%TD*%
D15*
%TO.C,B+1*%
X74475000Y-83325000D03*
%TD*%
D13*
%TO.C,R1*%
X79325000Y-107500000D03*
X81325000Y-107500000D03*
%TD*%
D16*
%TO.C,IC3*%
X122675000Y-92925000D03*
X123175000Y-92925000D03*
X123675000Y-92925000D03*
X124175000Y-92925000D03*
X124675000Y-92925000D03*
X125175000Y-92925000D03*
D17*
X125825000Y-92260000D03*
X125825000Y-91760000D03*
X125825000Y-91260000D03*
X125825000Y-90760000D03*
D16*
X125175000Y-90125000D03*
X124675000Y-90125000D03*
X124175000Y-90125000D03*
X123675000Y-90125000D03*
X123175000Y-90125000D03*
X122675000Y-90125000D03*
D17*
X122025000Y-90760000D03*
X122025000Y-91260000D03*
X122025000Y-91760000D03*
X122025000Y-92260000D03*
D18*
X123290000Y-91525000D03*
X124550000Y-91525000D03*
%TD*%
D11*
%TO.C,D2*%
X97425000Y-84975000D03*
X97425000Y-82925000D03*
%TD*%
D19*
%TO.C,U4*%
X83780000Y-106175000D03*
D20*
X85050000Y-106175000D03*
X86320000Y-106175000D03*
%TD*%
D21*
%TO.C,J2*%
X124425000Y-137625000D03*
D22*
X121885000Y-137625000D03*
X119345000Y-137625000D03*
X116805000Y-137625000D03*
X114265000Y-137625000D03*
X111725000Y-137625000D03*
X109185000Y-137625000D03*
X106645000Y-137625000D03*
X104105000Y-137625000D03*
X101565000Y-137625000D03*
X99025000Y-137625000D03*
X96485000Y-137625000D03*
X93945000Y-137625000D03*
X91405000Y-137625000D03*
X88865000Y-137625000D03*
X86325000Y-137625000D03*
X83785000Y-137625000D03*
X81245000Y-137625000D03*
X78705000Y-137625000D03*
X76165000Y-137625000D03*
%TD*%
D23*
%TO.C,C9*%
X119850000Y-92862500D03*
X119850000Y-94937500D03*
%TD*%
D24*
%TO.C,TP2*%
X114237500Y-103675000D03*
%TD*%
D13*
%TO.C,R16*%
X126675000Y-98850000D03*
X128675000Y-98850000D03*
%TD*%
D25*
%TO.C,R15*%
X122700000Y-97750000D03*
X122700000Y-95750000D03*
%TD*%
D26*
%TO.C,C3*%
X88737500Y-103000000D03*
X90812500Y-103000000D03*
%TD*%
D12*
%TO.C,R12*%
X124275000Y-84875000D03*
X122275000Y-84875000D03*
%TD*%
D27*
%TO.C,U2*%
X123375000Y-106000000D03*
X123375000Y-106650000D03*
X123375000Y-107300000D03*
X123375000Y-107950000D03*
X121775000Y-107950000D03*
X121775000Y-107300000D03*
X121775000Y-106650000D03*
X121775000Y-106000000D03*
%TD*%
D24*
%TO.C,TP1*%
X111700000Y-103675000D03*
%TD*%
D28*
%TO.C,U1*%
X121340000Y-121600000D03*
D29*
X124370000Y-121300000D03*
X124370000Y-126750000D03*
D28*
X121340000Y-126450000D03*
D30*
X124500000Y-114235000D03*
D22*
X124500000Y-115135000D03*
D30*
X121960000Y-114235000D03*
D22*
X121960000Y-115135000D03*
D30*
X119420000Y-114235000D03*
D21*
X119420000Y-115135000D03*
D30*
X116880000Y-114235000D03*
D22*
X116880000Y-115135000D03*
X114340000Y-115135000D03*
D30*
X114340000Y-114235000D03*
D22*
X111800000Y-115135000D03*
D30*
X111800000Y-114235000D03*
D22*
X109260000Y-115135000D03*
D30*
X109260000Y-114235000D03*
X106720000Y-114235000D03*
D21*
X106720000Y-115135000D03*
D22*
X104180000Y-115135000D03*
D30*
X104180000Y-114235000D03*
X101640000Y-114235000D03*
D22*
X101640000Y-115135000D03*
X99100000Y-115135000D03*
D30*
X99100000Y-114235000D03*
X96560000Y-114235000D03*
D22*
X96560000Y-115135000D03*
D30*
X94020000Y-114235000D03*
D21*
X94020000Y-115135000D03*
D30*
X91480000Y-114235000D03*
D22*
X91480000Y-115135000D03*
X88940000Y-115135000D03*
D30*
X88940000Y-114235000D03*
D22*
X86400000Y-115135000D03*
D30*
X86400000Y-114235000D03*
X83860000Y-114235000D03*
D22*
X83860000Y-115135000D03*
D30*
X81320000Y-114235000D03*
D21*
X81320000Y-115135000D03*
D30*
X78780000Y-114235000D03*
D22*
X78780000Y-115135000D03*
D30*
X76240000Y-114235000D03*
D22*
X76240000Y-115135000D03*
D30*
X76240000Y-133815000D03*
D22*
X76240000Y-132915000D03*
D30*
X78780000Y-133815000D03*
D22*
X78780000Y-132915000D03*
D30*
X81320000Y-133815000D03*
D21*
X81320000Y-132915000D03*
D22*
X83860000Y-132915000D03*
D30*
X83860000Y-133815000D03*
X86400000Y-133815000D03*
D22*
X86400000Y-132915000D03*
X88940000Y-132915000D03*
D30*
X88940000Y-133815000D03*
X91480000Y-133815000D03*
D22*
X91480000Y-132915000D03*
D30*
X94020000Y-133815000D03*
D21*
X94020000Y-132915000D03*
D30*
X96560000Y-133815000D03*
D22*
X96560000Y-132915000D03*
X99100000Y-132915000D03*
D30*
X99100000Y-133815000D03*
X101640000Y-133815000D03*
D22*
X101640000Y-132915000D03*
X104180000Y-132915000D03*
D30*
X104180000Y-133815000D03*
D21*
X106720000Y-132915000D03*
D30*
X106720000Y-133815000D03*
D22*
X109260000Y-132915000D03*
D30*
X109260000Y-133815000D03*
D22*
X111800000Y-132915000D03*
D30*
X111800000Y-133815000D03*
D22*
X114340000Y-132915000D03*
D30*
X114340000Y-133815000D03*
X116880000Y-133815000D03*
D22*
X116880000Y-132915000D03*
D21*
X119420000Y-132915000D03*
D30*
X119420000Y-133815000D03*
D22*
X121960000Y-132915000D03*
D30*
X121960000Y-133815000D03*
X124500000Y-133815000D03*
D22*
X124500000Y-132915000D03*
D31*
X75570000Y-121485000D03*
D22*
X76470000Y-121485000D03*
D21*
X76470000Y-124025000D03*
D31*
X75570000Y-124025000D03*
D22*
X76470000Y-126565000D03*
D31*
X75570000Y-126565000D03*
%TD*%
D21*
%TO.C,AE1*%
X89900000Y-91475000D03*
%TD*%
D12*
%TO.C,R11*%
X128200000Y-84875000D03*
X126200000Y-84875000D03*
%TD*%
D23*
%TO.C,C7*%
X127700000Y-90775000D03*
X127700000Y-92850000D03*
%TD*%
D32*
%TO.C,U3*%
X109025000Y-107275000D03*
X109025000Y-105275000D03*
X109025000Y-103275000D03*
X109025000Y-101275000D03*
X109025000Y-99275000D03*
X109025000Y-97275000D03*
X109025000Y-95275000D03*
X109025000Y-93275000D03*
X93025000Y-93275000D03*
X93025000Y-95275000D03*
X93025000Y-97275000D03*
X93025000Y-99275000D03*
X93025000Y-101275000D03*
X93025000Y-103275000D03*
X93025000Y-105275000D03*
X93025000Y-107275000D03*
%TD*%
D14*
%TO.C,R2*%
X111400000Y-95275000D03*
X111400000Y-97275000D03*
%TD*%
D12*
%TO.C,R13*%
X120350000Y-84875000D03*
X118350000Y-84875000D03*
%TD*%
D26*
%TO.C,C6*%
X81537500Y-84450000D03*
X83612500Y-84450000D03*
%TD*%
D14*
%TO.C,R5*%
X83475000Y-93200000D03*
X83475000Y-95200000D03*
%TD*%
D33*
%TO.C,C2*%
X122250000Y-104487500D03*
X122250000Y-102412500D03*
%TD*%
D24*
%TO.C,TP3*%
X116775000Y-103675000D03*
%TD*%
D23*
%TO.C,C5*%
X81300000Y-93162500D03*
X81300000Y-95237500D03*
%TD*%
D13*
%TO.C,R3*%
X87700000Y-84625000D03*
X89700000Y-84625000D03*
%TD*%
%TO.C,R4*%
X91600000Y-84625000D03*
X93600000Y-84625000D03*
%TD*%
D15*
%TO.C,B-1*%
X74475000Y-86100000D03*
%TD*%
D26*
%TO.C,C8*%
X74762500Y-89650000D03*
X76837500Y-89650000D03*
%TD*%
%TO.C,C4*%
X88737500Y-100900000D03*
X90812500Y-100900000D03*
%TD*%
D21*
%TO.C,J1*%
X76225000Y-110425000D03*
D22*
X78765000Y-110425000D03*
X81305000Y-110425000D03*
X83845000Y-110425000D03*
X86385000Y-110425000D03*
X88925000Y-110425000D03*
X91465000Y-110425000D03*
X94005000Y-110425000D03*
X96545000Y-110425000D03*
X99085000Y-110425000D03*
X101625000Y-110425000D03*
X104165000Y-110425000D03*
X106705000Y-110425000D03*
X109245000Y-110425000D03*
X111785000Y-110425000D03*
X114325000Y-110425000D03*
X116865000Y-110425000D03*
X119405000Y-110425000D03*
X121945000Y-110425000D03*
X124485000Y-110425000D03*
%TD*%
D34*
%TO.C,IC1*%
X81325000Y-91562500D03*
X81825000Y-91562500D03*
X82325000Y-91562500D03*
X82825000Y-91562500D03*
X83325000Y-91562500D03*
D35*
X84262500Y-90625000D03*
X84262500Y-90125000D03*
X84262500Y-89625000D03*
X84262500Y-89125000D03*
X84262500Y-88625000D03*
D34*
X83325000Y-87687500D03*
X82825000Y-87687500D03*
X82325000Y-87687500D03*
X81825000Y-87687500D03*
X81325000Y-87687500D03*
D35*
X80387500Y-88625000D03*
X80387500Y-89125000D03*
X80387500Y-89625000D03*
X80387500Y-90125000D03*
X80387500Y-90625000D03*
D36*
X82325000Y-89625000D03*
%TD*%
D14*
%TO.C,R9*%
X113850000Y-82950000D03*
X113850000Y-84950000D03*
%TD*%
D37*
%TO.C,C1*%
X120337500Y-106000000D03*
X118262500Y-106000000D03*
%TD*%
D14*
%TO.C,R6*%
X81100000Y-98850000D03*
X81100000Y-100850000D03*
%TD*%
D11*
%TO.C,D1*%
X104075000Y-84975000D03*
X104075000Y-82925000D03*
%TD*%
D14*
%TO.C,R7*%
X107300000Y-82950000D03*
X107300000Y-84950000D03*
%TD*%
D12*
%TO.C,R10*%
X78175000Y-84700000D03*
X76175000Y-84700000D03*
%TD*%
D38*
%TO.C,IC2*%
X74225000Y-98150000D03*
X75475000Y-98150000D03*
X76725000Y-98150000D03*
X77975000Y-98150000D03*
X77975000Y-92750000D03*
X76725000Y-92750000D03*
X75475000Y-92750000D03*
X74225000Y-92750000D03*
D39*
X75980000Y-95450000D03*
%TD*%
M02*
