%TF.GenerationSoftware,KiCad,Pcbnew,(6.0.1-0)*%
%TF.CreationDate,2022-01-30T18:46:34+01:00*%
%TF.ProjectId,Pico_LoRa,5069636f-5f4c-46f5-9261-2e6b69636164,1.1*%
%TF.SameCoordinates,Original*%
%TF.FileFunction,Copper,L2,Inr*%
%TF.FilePolarity,Positive*%
%FSLAX46Y46*%
G04 Gerber Fmt 4.6, Leading zero omitted, Abs format (unit mm)*
G04 Created by KiCad (PCBNEW (6.0.1-0)) date 2022-01-30 18:46:34*
%MOMM*%
%LPD*%
G01*
G04 APERTURE LIST*
%TA.AperFunction,ComponentPad*%
%ADD10R,1.050000X1.500000*%
%TD*%
%TA.AperFunction,ComponentPad*%
%ADD11O,1.050000X1.500000*%
%TD*%
%TA.AperFunction,ComponentPad*%
%ADD12R,1.700000X1.700000*%
%TD*%
%TA.AperFunction,ComponentPad*%
%ADD13O,1.700000X1.700000*%
%TD*%
%TA.AperFunction,ViaPad*%
%ADD14C,0.800000*%
%TD*%
G04 APERTURE END LIST*
D10*
%TO.N,GND*%
%TO.C,U4*%
X83780000Y-106175000D03*
D11*
%TO.N,/GPIO16*%
X85050000Y-106175000D03*
%TO.N,+3V3*%
X86320000Y-106175000D03*
%TD*%
D12*
%TO.N,/V_BUS*%
%TO.C,J2*%
X124425000Y-137625000D03*
D13*
%TO.N,/V_SYS*%
X121885000Y-137625000D03*
%TO.N,GND*%
X119345000Y-137625000D03*
%TO.N,Net-(J2-Pad4)*%
X116805000Y-137625000D03*
%TO.N,+3V3*%
X114265000Y-137625000D03*
%TO.N,Net-(J2-Pad6)*%
X111725000Y-137625000D03*
%TO.N,Net-(J2-Pad7)*%
X109185000Y-137625000D03*
%TO.N,GND*%
X106645000Y-137625000D03*
%TO.N,Net-(J2-Pad9)*%
X104105000Y-137625000D03*
%TO.N,Net-(J2-Pad10)*%
X101565000Y-137625000D03*
%TO.N,Net-(J2-Pad11)*%
X99025000Y-137625000D03*
%TO.N,Net-(J2-Pad12)*%
X96485000Y-137625000D03*
%TO.N,GND*%
X93945000Y-137625000D03*
%TO.N,Net-(J2-Pad14)*%
X91405000Y-137625000D03*
%TO.N,Net-(J2-Pad15)*%
X88865000Y-137625000D03*
%TO.N,Net-(J2-Pad16)*%
X86325000Y-137625000D03*
%TO.N,Net-(J2-Pad17)*%
X83785000Y-137625000D03*
%TO.N,GND*%
X81245000Y-137625000D03*
%TO.N,Net-(J2-Pad19)*%
X78705000Y-137625000D03*
%TO.N,/GPIO16*%
X76165000Y-137625000D03*
%TD*%
%TO.N,/SDA*%
%TO.C,U1*%
X124500000Y-115135000D03*
%TO.N,/SCL*%
X121960000Y-115135000D03*
D12*
%TO.N,GND*%
X119420000Y-115135000D03*
D13*
%TO.N,Net-(J1-Pad17)*%
X116880000Y-115135000D03*
%TO.N,Net-(J1-Pad16)*%
X114340000Y-115135000D03*
%TO.N,/GPIO4*%
X111800000Y-115135000D03*
%TO.N,/GPIO5*%
X109260000Y-115135000D03*
D12*
%TO.N,GND*%
X106720000Y-115135000D03*
D13*
%TO.N,/GPIO6*%
X104180000Y-115135000D03*
%TO.N,/GPIO7*%
X101640000Y-115135000D03*
%TO.N,/GPIO8*%
X99100000Y-115135000D03*
%TO.N,/GPIO9*%
X96560000Y-115135000D03*
D12*
%TO.N,GND*%
X94020000Y-115135000D03*
D13*
%TO.N,/GPIO10*%
X91480000Y-115135000D03*
%TO.N,/GPIO11*%
X88940000Y-115135000D03*
%TO.N,/GPIO12*%
X86400000Y-115135000D03*
%TO.N,Net-(J1-Pad4)*%
X83860000Y-115135000D03*
D12*
%TO.N,GND*%
X81320000Y-115135000D03*
D13*
%TO.N,Net-(J1-Pad2)*%
X78780000Y-115135000D03*
%TO.N,Net-(J1-Pad1)*%
X76240000Y-115135000D03*
%TO.N,/GPIO16*%
X76240000Y-132915000D03*
%TO.N,Net-(J2-Pad19)*%
X78780000Y-132915000D03*
D12*
%TO.N,GND*%
X81320000Y-132915000D03*
D13*
%TO.N,Net-(J2-Pad17)*%
X83860000Y-132915000D03*
%TO.N,Net-(J2-Pad16)*%
X86400000Y-132915000D03*
%TO.N,Net-(J2-Pad15)*%
X88940000Y-132915000D03*
%TO.N,Net-(J2-Pad14)*%
X91480000Y-132915000D03*
D12*
%TO.N,GND*%
X94020000Y-132915000D03*
D13*
%TO.N,Net-(J2-Pad12)*%
X96560000Y-132915000D03*
%TO.N,Net-(J2-Pad11)*%
X99100000Y-132915000D03*
%TO.N,Net-(J2-Pad10)*%
X101640000Y-132915000D03*
%TO.N,Net-(J2-Pad9)*%
X104180000Y-132915000D03*
D12*
%TO.N,GND*%
X106720000Y-132915000D03*
D13*
%TO.N,Net-(J2-Pad7)*%
X109260000Y-132915000D03*
%TO.N,Net-(J2-Pad6)*%
X111800000Y-132915000D03*
%TO.N,+3V3*%
X114340000Y-132915000D03*
%TO.N,Net-(J2-Pad4)*%
X116880000Y-132915000D03*
D12*
%TO.N,GND*%
X119420000Y-132915000D03*
D13*
%TO.N,/V_SYS*%
X121960000Y-132915000D03*
%TO.N,/V_BUS*%
X124500000Y-132915000D03*
%TO.N,unconnected-(U1-Pad41)*%
X76470000Y-121485000D03*
D12*
%TO.N,GND*%
X76470000Y-124025000D03*
D13*
%TO.N,unconnected-(U1-Pad43)*%
X76470000Y-126565000D03*
%TD*%
D12*
%TO.N,Net-(AE1-Pad1)*%
%TO.C,AE1*%
X89900000Y-91475000D03*
%TD*%
%TO.N,Net-(J1-Pad1)*%
%TO.C,J1*%
X76225000Y-110425000D03*
D13*
%TO.N,Net-(J1-Pad2)*%
X78765000Y-110425000D03*
%TO.N,GND*%
X81305000Y-110425000D03*
%TO.N,Net-(J1-Pad4)*%
X83845000Y-110425000D03*
%TO.N,/GPIO12*%
X86385000Y-110425000D03*
%TO.N,/GPIO11*%
X88925000Y-110425000D03*
%TO.N,/GPIO10*%
X91465000Y-110425000D03*
%TO.N,GND*%
X94005000Y-110425000D03*
%TO.N,/GPIO9*%
X96545000Y-110425000D03*
%TO.N,/GPIO8*%
X99085000Y-110425000D03*
%TO.N,/GPIO7*%
X101625000Y-110425000D03*
%TO.N,/GPIO6*%
X104165000Y-110425000D03*
%TO.N,GND*%
X106705000Y-110425000D03*
%TO.N,/GPIO5*%
X109245000Y-110425000D03*
%TO.N,/GPIO4*%
X111785000Y-110425000D03*
%TO.N,Net-(J1-Pad16)*%
X114325000Y-110425000D03*
%TO.N,Net-(J1-Pad17)*%
X116865000Y-110425000D03*
%TO.N,GND*%
X119405000Y-110425000D03*
%TO.N,/SCL*%
X121945000Y-110425000D03*
%TO.N,/SDA*%
X124485000Y-110425000D03*
%TD*%
D14*
%TO.N,+3V3*%
X111425000Y-93600000D03*
X77475000Y-107450000D03*
X114351024Y-130999989D03*
X120625000Y-104375000D03*
X88600000Y-106175000D03*
X90800000Y-104800000D03*
%TO.N,GND*%
X95175000Y-95250000D03*
X83625000Y-82875000D03*
X87125000Y-100900000D03*
X119425000Y-130875000D03*
X106700000Y-116975000D03*
X82400000Y-96625000D03*
X93625000Y-82850000D03*
X127700000Y-94350000D03*
X94000000Y-117000000D03*
X122225000Y-98800000D03*
X116825000Y-89625000D03*
X119450000Y-117000000D03*
X79175000Y-98150000D03*
X78775000Y-124025000D03*
X121925000Y-87875000D03*
X124450000Y-106500000D03*
X81325000Y-116975000D03*
X94025000Y-130875000D03*
X85350000Y-87800000D03*
X106750000Y-130875000D03*
X122275000Y-101000000D03*
X89700000Y-82850000D03*
X81325000Y-130900000D03*
X82675000Y-100850000D03*
%TO.N,/V_BUS*%
X79175000Y-89625000D03*
X100675000Y-86850000D03*
X124525000Y-130875000D03*
X107325000Y-86850000D03*
X113850000Y-86850000D03*
%TO.N,/V_SYS*%
X125175000Y-98025000D03*
X125175000Y-93775000D03*
%TO.N,Net-(C7-Pad1)*%
X79900000Y-92100000D03*
X124675000Y-89075000D03*
%TD*%
%TA.AperFunction,Conductor*%
%TO.N,GND*%
G36*
X129434121Y-82345002D02*
G01*
X129480614Y-82398658D01*
X129492000Y-82451000D01*
X129492000Y-99366000D01*
X129471998Y-99434121D01*
X129418342Y-99480614D01*
X129366000Y-99492000D01*
X126748207Y-99492000D01*
X126727303Y-99490254D01*
X126718737Y-99488813D01*
X126707539Y-99486929D01*
X126701349Y-99486853D01*
X126699864Y-99486835D01*
X126699859Y-99486835D01*
X126695000Y-99486776D01*
X126690187Y-99487465D01*
X126685324Y-99487782D01*
X126685321Y-99487737D01*
X126682620Y-99487997D01*
X126436503Y-99500088D01*
X126322919Y-99505668D01*
X126322915Y-99505668D01*
X126319829Y-99505820D01*
X126200347Y-99523543D01*
X125951336Y-99560480D01*
X125951332Y-99560481D01*
X125948270Y-99560935D01*
X125945271Y-99561686D01*
X125945267Y-99561687D01*
X125764468Y-99606976D01*
X125583903Y-99652205D01*
X125581006Y-99653242D01*
X125580998Y-99653244D01*
X125420813Y-99710560D01*
X125230237Y-99778749D01*
X124890677Y-99939348D01*
X124888035Y-99940931D01*
X124888036Y-99940931D01*
X124571143Y-100130869D01*
X124571134Y-100130875D01*
X124568493Y-100132458D01*
X124566008Y-100134301D01*
X124331793Y-100308007D01*
X124266789Y-100356217D01*
X123988470Y-100608470D01*
X123736217Y-100886789D01*
X123512458Y-101188493D01*
X123510875Y-101191134D01*
X123510869Y-101191143D01*
X123392446Y-101388720D01*
X123319348Y-101510677D01*
X123158749Y-101850237D01*
X123032205Y-102203903D01*
X122940935Y-102568270D01*
X122885820Y-102939829D01*
X122867389Y-103315000D01*
X122885820Y-103690171D01*
X122886274Y-103693231D01*
X122933672Y-104012763D01*
X122940935Y-104061730D01*
X123032205Y-104426097D01*
X123033242Y-104428994D01*
X123033244Y-104429002D01*
X123079531Y-104558365D01*
X123158749Y-104779763D01*
X123319348Y-105119323D01*
X123320931Y-105121964D01*
X123510869Y-105438857D01*
X123510875Y-105438866D01*
X123512458Y-105441507D01*
X123514301Y-105443992D01*
X123710474Y-105708500D01*
X123736217Y-105743211D01*
X123988470Y-106021530D01*
X124266789Y-106273783D01*
X124269275Y-106275627D01*
X124269279Y-106275630D01*
X124520143Y-106461683D01*
X124568493Y-106497542D01*
X124571134Y-106499125D01*
X124571143Y-106499131D01*
X124868448Y-106677328D01*
X124890677Y-106690652D01*
X124893455Y-106691966D01*
X124893459Y-106691968D01*
X124996807Y-106740848D01*
X125230237Y-106851251D01*
X125402970Y-106913056D01*
X125580998Y-106976756D01*
X125581006Y-106976758D01*
X125583903Y-106977795D01*
X125764468Y-107023024D01*
X125945267Y-107068313D01*
X125945271Y-107068314D01*
X125948270Y-107069065D01*
X125951332Y-107069519D01*
X125951336Y-107069520D01*
X126053869Y-107084729D01*
X126319829Y-107124180D01*
X126322911Y-107124331D01*
X126322917Y-107124332D01*
X126666013Y-107141187D01*
X126672801Y-107141922D01*
X126672809Y-107141829D01*
X126677669Y-107142265D01*
X126682461Y-107143071D01*
X126688700Y-107143147D01*
X126690141Y-107143165D01*
X126690145Y-107143165D01*
X126695000Y-107143224D01*
X126722588Y-107139273D01*
X126740451Y-107138000D01*
X129366000Y-107138000D01*
X129434121Y-107158002D01*
X129480614Y-107211658D01*
X129492000Y-107264000D01*
X129492000Y-138843000D01*
X129471998Y-138911121D01*
X129418342Y-138957614D01*
X129366000Y-138969000D01*
X125792168Y-138969000D01*
X125724047Y-138948998D01*
X125677554Y-138895342D01*
X125667450Y-138825068D01*
X125691342Y-138767435D01*
X125725615Y-138721705D01*
X125776745Y-138585316D01*
X125783500Y-138523134D01*
X125783500Y-136726866D01*
X125776745Y-136664684D01*
X125725615Y-136528295D01*
X125638261Y-136411739D01*
X125521705Y-136324385D01*
X125385316Y-136273255D01*
X125323134Y-136266500D01*
X123526866Y-136266500D01*
X123464684Y-136273255D01*
X123328295Y-136324385D01*
X123211739Y-136411739D01*
X123124385Y-136528295D01*
X123121233Y-136536703D01*
X123079919Y-136646907D01*
X123037277Y-136703671D01*
X122970716Y-136728371D01*
X122901367Y-136713163D01*
X122868743Y-136687476D01*
X122818151Y-136631875D01*
X122818142Y-136631866D01*
X122814670Y-136628051D01*
X122810619Y-136624852D01*
X122810615Y-136624848D01*
X122643414Y-136492800D01*
X122643410Y-136492798D01*
X122639359Y-136489598D01*
X122603028Y-136469542D01*
X122587136Y-136460769D01*
X122443789Y-136381638D01*
X122438920Y-136379914D01*
X122438916Y-136379912D01*
X122238087Y-136308795D01*
X122238083Y-136308794D01*
X122233212Y-136307069D01*
X122228119Y-136306162D01*
X122228116Y-136306161D01*
X122018373Y-136268800D01*
X122018367Y-136268799D01*
X122013284Y-136267894D01*
X121939452Y-136266992D01*
X121795081Y-136265228D01*
X121795079Y-136265228D01*
X121789911Y-136265165D01*
X121569091Y-136298955D01*
X121356756Y-136368357D01*
X121158607Y-136471507D01*
X121154474Y-136474610D01*
X121154471Y-136474612D01*
X120984100Y-136602530D01*
X120979965Y-136605635D01*
X120954541Y-136632240D01*
X120886280Y-136703671D01*
X120825629Y-136767138D01*
X120718204Y-136924618D01*
X120717898Y-136925066D01*
X120662987Y-136970069D01*
X120592462Y-136978240D01*
X120528715Y-136946986D01*
X120508018Y-136922502D01*
X120427426Y-136797926D01*
X120421136Y-136789757D01*
X120277806Y-136632240D01*
X120270273Y-136625215D01*
X120103139Y-136493222D01*
X120094552Y-136487517D01*
X119908117Y-136384599D01*
X119898705Y-136380369D01*
X119697959Y-136309280D01*
X119687988Y-136306646D01*
X119616837Y-136293972D01*
X119603540Y-136295432D01*
X119599000Y-136309989D01*
X119599000Y-137753000D01*
X119578998Y-137821121D01*
X119525342Y-137867614D01*
X119473000Y-137879000D01*
X119217000Y-137879000D01*
X119148879Y-137858998D01*
X119102386Y-137805342D01*
X119091000Y-137753000D01*
X119091000Y-136308102D01*
X119087082Y-136294758D01*
X119072806Y-136292771D01*
X119034324Y-136298660D01*
X119024288Y-136301051D01*
X118821868Y-136367212D01*
X118812359Y-136371209D01*
X118623463Y-136469542D01*
X118614738Y-136475036D01*
X118444433Y-136602905D01*
X118436726Y-136609748D01*
X118289590Y-136763717D01*
X118283109Y-136771722D01*
X118178498Y-136925074D01*
X118123587Y-136970076D01*
X118053062Y-136978247D01*
X117989315Y-136946993D01*
X117968618Y-136922509D01*
X117887822Y-136797617D01*
X117887820Y-136797614D01*
X117885014Y-136793277D01*
X117734670Y-136628051D01*
X117730619Y-136624852D01*
X117730615Y-136624848D01*
X117563414Y-136492800D01*
X117563410Y-136492798D01*
X117559359Y-136489598D01*
X117523028Y-136469542D01*
X117507136Y-136460769D01*
X117363789Y-136381638D01*
X117358920Y-136379914D01*
X117358916Y-136379912D01*
X117158087Y-136308795D01*
X117158083Y-136308794D01*
X117153212Y-136307069D01*
X117148119Y-136306162D01*
X117148116Y-136306161D01*
X116938373Y-136268800D01*
X116938367Y-136268799D01*
X116933284Y-136267894D01*
X116859452Y-136266992D01*
X116715081Y-136265228D01*
X116715079Y-136265228D01*
X116709911Y-136265165D01*
X116489091Y-136298955D01*
X116276756Y-136368357D01*
X116078607Y-136471507D01*
X116074474Y-136474610D01*
X116074471Y-136474612D01*
X115904100Y-136602530D01*
X115899965Y-136605635D01*
X115874541Y-136632240D01*
X115806280Y-136703671D01*
X115745629Y-136767138D01*
X115638201Y-136924621D01*
X115583293Y-136969621D01*
X115512768Y-136977792D01*
X115449021Y-136946538D01*
X115428324Y-136922054D01*
X115347822Y-136797617D01*
X115347820Y-136797614D01*
X115345014Y-136793277D01*
X115194670Y-136628051D01*
X115190619Y-136624852D01*
X115190615Y-136624848D01*
X115023414Y-136492800D01*
X115023410Y-136492798D01*
X115019359Y-136489598D01*
X114983028Y-136469542D01*
X114967136Y-136460769D01*
X114823789Y-136381638D01*
X114818920Y-136379914D01*
X114818916Y-136379912D01*
X114618087Y-136308795D01*
X114618083Y-136308794D01*
X114613212Y-136307069D01*
X114608119Y-136306162D01*
X114608116Y-136306161D01*
X114398373Y-136268800D01*
X114398367Y-136268799D01*
X114393284Y-136267894D01*
X114319452Y-136266992D01*
X114175081Y-136265228D01*
X114175079Y-136265228D01*
X114169911Y-136265165D01*
X113949091Y-136298955D01*
X113736756Y-136368357D01*
X113538607Y-136471507D01*
X113534474Y-136474610D01*
X113534471Y-136474612D01*
X113364100Y-136602530D01*
X113359965Y-136605635D01*
X113334541Y-136632240D01*
X113266280Y-136703671D01*
X113205629Y-136767138D01*
X113098201Y-136924621D01*
X113043293Y-136969621D01*
X112972768Y-136977792D01*
X112909021Y-136946538D01*
X112888324Y-136922054D01*
X112807822Y-136797617D01*
X112807820Y-136797614D01*
X112805014Y-136793277D01*
X112654670Y-136628051D01*
X112650619Y-136624852D01*
X112650615Y-136624848D01*
X112483414Y-136492800D01*
X112483410Y-136492798D01*
X112479359Y-136489598D01*
X112443028Y-136469542D01*
X112427136Y-136460769D01*
X112283789Y-136381638D01*
X112278920Y-136379914D01*
X112278916Y-136379912D01*
X112078087Y-136308795D01*
X112078083Y-136308794D01*
X112073212Y-136307069D01*
X112068119Y-136306162D01*
X112068116Y-136306161D01*
X111858373Y-136268800D01*
X111858367Y-136268799D01*
X111853284Y-136267894D01*
X111779452Y-136266992D01*
X111635081Y-136265228D01*
X111635079Y-136265228D01*
X111629911Y-136265165D01*
X111409091Y-136298955D01*
X111196756Y-136368357D01*
X110998607Y-136471507D01*
X110994474Y-136474610D01*
X110994471Y-136474612D01*
X110824100Y-136602530D01*
X110819965Y-136605635D01*
X110794541Y-136632240D01*
X110726280Y-136703671D01*
X110665629Y-136767138D01*
X110558201Y-136924621D01*
X110503293Y-136969621D01*
X110432768Y-136977792D01*
X110369021Y-136946538D01*
X110348324Y-136922054D01*
X110267822Y-136797617D01*
X110267820Y-136797614D01*
X110265014Y-136793277D01*
X110114670Y-136628051D01*
X110110619Y-136624852D01*
X110110615Y-136624848D01*
X109943414Y-136492800D01*
X109943410Y-136492798D01*
X109939359Y-136489598D01*
X109903028Y-136469542D01*
X109887136Y-136460769D01*
X109743789Y-136381638D01*
X109738920Y-136379914D01*
X109738916Y-136379912D01*
X109538087Y-136308795D01*
X109538083Y-136308794D01*
X109533212Y-136307069D01*
X109528119Y-136306162D01*
X109528116Y-136306161D01*
X109318373Y-136268800D01*
X109318367Y-136268799D01*
X109313284Y-136267894D01*
X109239452Y-136266992D01*
X109095081Y-136265228D01*
X109095079Y-136265228D01*
X109089911Y-136265165D01*
X108869091Y-136298955D01*
X108656756Y-136368357D01*
X108458607Y-136471507D01*
X108454474Y-136474610D01*
X108454471Y-136474612D01*
X108284100Y-136602530D01*
X108279965Y-136605635D01*
X108254541Y-136632240D01*
X108186280Y-136703671D01*
X108125629Y-136767138D01*
X108018204Y-136924618D01*
X108017898Y-136925066D01*
X107962987Y-136970069D01*
X107892462Y-136978240D01*
X107828715Y-136946986D01*
X107808018Y-136922502D01*
X107727426Y-136797926D01*
X107721136Y-136789757D01*
X107577806Y-136632240D01*
X107570273Y-136625215D01*
X107403139Y-136493222D01*
X107394552Y-136487517D01*
X107208117Y-136384599D01*
X107198705Y-136380369D01*
X106997959Y-136309280D01*
X106987988Y-136306646D01*
X106916837Y-136293972D01*
X106903540Y-136295432D01*
X106899000Y-136309989D01*
X106899000Y-137753000D01*
X106878998Y-137821121D01*
X106825342Y-137867614D01*
X106773000Y-137879000D01*
X106517000Y-137879000D01*
X106448879Y-137858998D01*
X106402386Y-137805342D01*
X106391000Y-137753000D01*
X106391000Y-136308102D01*
X106387082Y-136294758D01*
X106372806Y-136292771D01*
X106334324Y-136298660D01*
X106324288Y-136301051D01*
X106121868Y-136367212D01*
X106112359Y-136371209D01*
X105923463Y-136469542D01*
X105914738Y-136475036D01*
X105744433Y-136602905D01*
X105736726Y-136609748D01*
X105589590Y-136763717D01*
X105583109Y-136771722D01*
X105478498Y-136925074D01*
X105423587Y-136970076D01*
X105353062Y-136978247D01*
X105289315Y-136946993D01*
X105268618Y-136922509D01*
X105187822Y-136797617D01*
X105187820Y-136797614D01*
X105185014Y-136793277D01*
X105034670Y-136628051D01*
X105030619Y-136624852D01*
X105030615Y-136624848D01*
X104863414Y-136492800D01*
X104863410Y-136492798D01*
X104859359Y-136489598D01*
X104823028Y-136469542D01*
X104807136Y-136460769D01*
X104663789Y-136381638D01*
X104658920Y-136379914D01*
X104658916Y-136379912D01*
X104458087Y-136308795D01*
X104458083Y-136308794D01*
X104453212Y-136307069D01*
X104448119Y-136306162D01*
X104448116Y-136306161D01*
X104238373Y-136268800D01*
X104238367Y-136268799D01*
X104233284Y-136267894D01*
X104159452Y-136266992D01*
X104015081Y-136265228D01*
X104015079Y-136265228D01*
X104009911Y-136265165D01*
X103789091Y-136298955D01*
X103576756Y-136368357D01*
X103378607Y-136471507D01*
X103374474Y-136474610D01*
X103374471Y-136474612D01*
X103204100Y-136602530D01*
X103199965Y-136605635D01*
X103174541Y-136632240D01*
X103106280Y-136703671D01*
X103045629Y-136767138D01*
X102938201Y-136924621D01*
X102883293Y-136969621D01*
X102812768Y-136977792D01*
X102749021Y-136946538D01*
X102728324Y-136922054D01*
X102647822Y-136797617D01*
X102647820Y-136797614D01*
X102645014Y-136793277D01*
X102494670Y-136628051D01*
X102490619Y-136624852D01*
X102490615Y-136624848D01*
X102323414Y-136492800D01*
X102323410Y-136492798D01*
X102319359Y-136489598D01*
X102283028Y-136469542D01*
X102267136Y-136460769D01*
X102123789Y-136381638D01*
X102118920Y-136379914D01*
X102118916Y-136379912D01*
X101918087Y-136308795D01*
X101918083Y-136308794D01*
X101913212Y-136307069D01*
X101908119Y-136306162D01*
X101908116Y-136306161D01*
X101698373Y-136268800D01*
X101698367Y-136268799D01*
X101693284Y-136267894D01*
X101619452Y-136266992D01*
X101475081Y-136265228D01*
X101475079Y-136265228D01*
X101469911Y-136265165D01*
X101249091Y-136298955D01*
X101036756Y-136368357D01*
X100838607Y-136471507D01*
X100834474Y-136474610D01*
X100834471Y-136474612D01*
X100664100Y-136602530D01*
X100659965Y-136605635D01*
X100634541Y-136632240D01*
X100566280Y-136703671D01*
X100505629Y-136767138D01*
X100398201Y-136924621D01*
X100343293Y-136969621D01*
X100272768Y-136977792D01*
X100209021Y-136946538D01*
X100188324Y-136922054D01*
X100107822Y-136797617D01*
X100107820Y-136797614D01*
X100105014Y-136793277D01*
X99954670Y-136628051D01*
X99950619Y-136624852D01*
X99950615Y-136624848D01*
X99783414Y-136492800D01*
X99783410Y-136492798D01*
X99779359Y-136489598D01*
X99743028Y-136469542D01*
X99727136Y-136460769D01*
X99583789Y-136381638D01*
X99578920Y-136379914D01*
X99578916Y-136379912D01*
X99378087Y-136308795D01*
X99378083Y-136308794D01*
X99373212Y-136307069D01*
X99368119Y-136306162D01*
X99368116Y-136306161D01*
X99158373Y-136268800D01*
X99158367Y-136268799D01*
X99153284Y-136267894D01*
X99079452Y-136266992D01*
X98935081Y-136265228D01*
X98935079Y-136265228D01*
X98929911Y-136265165D01*
X98709091Y-136298955D01*
X98496756Y-136368357D01*
X98298607Y-136471507D01*
X98294474Y-136474610D01*
X98294471Y-136474612D01*
X98124100Y-136602530D01*
X98119965Y-136605635D01*
X98094541Y-136632240D01*
X98026280Y-136703671D01*
X97965629Y-136767138D01*
X97858201Y-136924621D01*
X97803293Y-136969621D01*
X97732768Y-136977792D01*
X97669021Y-136946538D01*
X97648324Y-136922054D01*
X97567822Y-136797617D01*
X97567820Y-136797614D01*
X97565014Y-136793277D01*
X97414670Y-136628051D01*
X97410619Y-136624852D01*
X97410615Y-136624848D01*
X97243414Y-136492800D01*
X97243410Y-136492798D01*
X97239359Y-136489598D01*
X97203028Y-136469542D01*
X97187136Y-136460769D01*
X97043789Y-136381638D01*
X97038920Y-136379914D01*
X97038916Y-136379912D01*
X96838087Y-136308795D01*
X96838083Y-136308794D01*
X96833212Y-136307069D01*
X96828119Y-136306162D01*
X96828116Y-136306161D01*
X96618373Y-136268800D01*
X96618367Y-136268799D01*
X96613284Y-136267894D01*
X96539452Y-136266992D01*
X96395081Y-136265228D01*
X96395079Y-136265228D01*
X96389911Y-136265165D01*
X96169091Y-136298955D01*
X95956756Y-136368357D01*
X95758607Y-136471507D01*
X95754474Y-136474610D01*
X95754471Y-136474612D01*
X95584100Y-136602530D01*
X95579965Y-136605635D01*
X95554541Y-136632240D01*
X95486280Y-136703671D01*
X95425629Y-136767138D01*
X95318204Y-136924618D01*
X95317898Y-136925066D01*
X95262987Y-136970069D01*
X95192462Y-136978240D01*
X95128715Y-136946986D01*
X95108018Y-136922502D01*
X95027426Y-136797926D01*
X95021136Y-136789757D01*
X94877806Y-136632240D01*
X94870273Y-136625215D01*
X94703139Y-136493222D01*
X94694552Y-136487517D01*
X94508117Y-136384599D01*
X94498705Y-136380369D01*
X94297959Y-136309280D01*
X94287988Y-136306646D01*
X94216837Y-136293972D01*
X94203540Y-136295432D01*
X94199000Y-136309989D01*
X94199000Y-137753000D01*
X94178998Y-137821121D01*
X94125342Y-137867614D01*
X94073000Y-137879000D01*
X93817000Y-137879000D01*
X93748879Y-137858998D01*
X93702386Y-137805342D01*
X93691000Y-137753000D01*
X93691000Y-136308102D01*
X93687082Y-136294758D01*
X93672806Y-136292771D01*
X93634324Y-136298660D01*
X93624288Y-136301051D01*
X93421868Y-136367212D01*
X93412359Y-136371209D01*
X93223463Y-136469542D01*
X93214738Y-136475036D01*
X93044433Y-136602905D01*
X93036726Y-136609748D01*
X92889590Y-136763717D01*
X92883109Y-136771722D01*
X92778498Y-136925074D01*
X92723587Y-136970076D01*
X92653062Y-136978247D01*
X92589315Y-136946993D01*
X92568618Y-136922509D01*
X92487822Y-136797617D01*
X92487820Y-136797614D01*
X92485014Y-136793277D01*
X92334670Y-136628051D01*
X92330619Y-136624852D01*
X92330615Y-136624848D01*
X92163414Y-136492800D01*
X92163410Y-136492798D01*
X92159359Y-136489598D01*
X92123028Y-136469542D01*
X92107136Y-136460769D01*
X91963789Y-136381638D01*
X91958920Y-136379914D01*
X91958916Y-136379912D01*
X91758087Y-136308795D01*
X91758083Y-136308794D01*
X91753212Y-136307069D01*
X91748119Y-136306162D01*
X91748116Y-136306161D01*
X91538373Y-136268800D01*
X91538367Y-136268799D01*
X91533284Y-136267894D01*
X91459452Y-136266992D01*
X91315081Y-136265228D01*
X91315079Y-136265228D01*
X91309911Y-136265165D01*
X91089091Y-136298955D01*
X90876756Y-136368357D01*
X90678607Y-136471507D01*
X90674474Y-136474610D01*
X90674471Y-136474612D01*
X90504100Y-136602530D01*
X90499965Y-136605635D01*
X90474541Y-136632240D01*
X90406280Y-136703671D01*
X90345629Y-136767138D01*
X90238201Y-136924621D01*
X90183293Y-136969621D01*
X90112768Y-136977792D01*
X90049021Y-136946538D01*
X90028324Y-136922054D01*
X89947822Y-136797617D01*
X89947820Y-136797614D01*
X89945014Y-136793277D01*
X89794670Y-136628051D01*
X89790619Y-136624852D01*
X89790615Y-136624848D01*
X89623414Y-136492800D01*
X89623410Y-136492798D01*
X89619359Y-136489598D01*
X89583028Y-136469542D01*
X89567136Y-136460769D01*
X89423789Y-136381638D01*
X89418920Y-136379914D01*
X89418916Y-136379912D01*
X89218087Y-136308795D01*
X89218083Y-136308794D01*
X89213212Y-136307069D01*
X89208119Y-136306162D01*
X89208116Y-136306161D01*
X88998373Y-136268800D01*
X88998367Y-136268799D01*
X88993284Y-136267894D01*
X88919452Y-136266992D01*
X88775081Y-136265228D01*
X88775079Y-136265228D01*
X88769911Y-136265165D01*
X88549091Y-136298955D01*
X88336756Y-136368357D01*
X88138607Y-136471507D01*
X88134474Y-136474610D01*
X88134471Y-136474612D01*
X87964100Y-136602530D01*
X87959965Y-136605635D01*
X87934541Y-136632240D01*
X87866280Y-136703671D01*
X87805629Y-136767138D01*
X87698201Y-136924621D01*
X87643293Y-136969621D01*
X87572768Y-136977792D01*
X87509021Y-136946538D01*
X87488324Y-136922054D01*
X87407822Y-136797617D01*
X87407820Y-136797614D01*
X87405014Y-136793277D01*
X87254670Y-136628051D01*
X87250619Y-136624852D01*
X87250615Y-136624848D01*
X87083414Y-136492800D01*
X87083410Y-136492798D01*
X87079359Y-136489598D01*
X87043028Y-136469542D01*
X87027136Y-136460769D01*
X86883789Y-136381638D01*
X86878920Y-136379914D01*
X86878916Y-136379912D01*
X86678087Y-136308795D01*
X86678083Y-136308794D01*
X86673212Y-136307069D01*
X86668119Y-136306162D01*
X86668116Y-136306161D01*
X86458373Y-136268800D01*
X86458367Y-136268799D01*
X86453284Y-136267894D01*
X86379452Y-136266992D01*
X86235081Y-136265228D01*
X86235079Y-136265228D01*
X86229911Y-136265165D01*
X86009091Y-136298955D01*
X85796756Y-136368357D01*
X85598607Y-136471507D01*
X85594474Y-136474610D01*
X85594471Y-136474612D01*
X85424100Y-136602530D01*
X85419965Y-136605635D01*
X85394541Y-136632240D01*
X85326280Y-136703671D01*
X85265629Y-136767138D01*
X85158201Y-136924621D01*
X85103293Y-136969621D01*
X85032768Y-136977792D01*
X84969021Y-136946538D01*
X84948324Y-136922054D01*
X84867822Y-136797617D01*
X84867820Y-136797614D01*
X84865014Y-136793277D01*
X84714670Y-136628051D01*
X84710619Y-136624852D01*
X84710615Y-136624848D01*
X84543414Y-136492800D01*
X84543410Y-136492798D01*
X84539359Y-136489598D01*
X84503028Y-136469542D01*
X84487136Y-136460769D01*
X84343789Y-136381638D01*
X84338920Y-136379914D01*
X84338916Y-136379912D01*
X84138087Y-136308795D01*
X84138083Y-136308794D01*
X84133212Y-136307069D01*
X84128119Y-136306162D01*
X84128116Y-136306161D01*
X83918373Y-136268800D01*
X83918367Y-136268799D01*
X83913284Y-136267894D01*
X83839452Y-136266992D01*
X83695081Y-136265228D01*
X83695079Y-136265228D01*
X83689911Y-136265165D01*
X83469091Y-136298955D01*
X83256756Y-136368357D01*
X83058607Y-136471507D01*
X83054474Y-136474610D01*
X83054471Y-136474612D01*
X82884100Y-136602530D01*
X82879965Y-136605635D01*
X82854541Y-136632240D01*
X82786280Y-136703671D01*
X82725629Y-136767138D01*
X82618204Y-136924618D01*
X82617898Y-136925066D01*
X82562987Y-136970069D01*
X82492462Y-136978240D01*
X82428715Y-136946986D01*
X82408018Y-136922502D01*
X82327426Y-136797926D01*
X82321136Y-136789757D01*
X82177806Y-136632240D01*
X82170273Y-136625215D01*
X82003139Y-136493222D01*
X81994552Y-136487517D01*
X81808117Y-136384599D01*
X81798705Y-136380369D01*
X81597959Y-136309280D01*
X81587988Y-136306646D01*
X81516837Y-136293972D01*
X81503540Y-136295432D01*
X81499000Y-136309989D01*
X81499000Y-137753000D01*
X81478998Y-137821121D01*
X81425342Y-137867614D01*
X81373000Y-137879000D01*
X81117000Y-137879000D01*
X81048879Y-137858998D01*
X81002386Y-137805342D01*
X80991000Y-137753000D01*
X80991000Y-136308102D01*
X80987082Y-136294758D01*
X80972806Y-136292771D01*
X80934324Y-136298660D01*
X80924288Y-136301051D01*
X80721868Y-136367212D01*
X80712359Y-136371209D01*
X80523463Y-136469542D01*
X80514738Y-136475036D01*
X80344433Y-136602905D01*
X80336726Y-136609748D01*
X80189590Y-136763717D01*
X80183109Y-136771722D01*
X80078498Y-136925074D01*
X80023587Y-136970076D01*
X79953062Y-136978247D01*
X79889315Y-136946993D01*
X79868618Y-136922509D01*
X79787822Y-136797617D01*
X79787820Y-136797614D01*
X79785014Y-136793277D01*
X79634670Y-136628051D01*
X79630619Y-136624852D01*
X79630615Y-136624848D01*
X79463414Y-136492800D01*
X79463410Y-136492798D01*
X79459359Y-136489598D01*
X79423028Y-136469542D01*
X79407136Y-136460769D01*
X79263789Y-136381638D01*
X79258920Y-136379914D01*
X79258916Y-136379912D01*
X79058087Y-136308795D01*
X79058083Y-136308794D01*
X79053212Y-136307069D01*
X79048119Y-136306162D01*
X79048116Y-136306161D01*
X78838373Y-136268800D01*
X78838367Y-136268799D01*
X78833284Y-136267894D01*
X78759452Y-136266992D01*
X78615081Y-136265228D01*
X78615079Y-136265228D01*
X78609911Y-136265165D01*
X78389091Y-136298955D01*
X78176756Y-136368357D01*
X77978607Y-136471507D01*
X77974474Y-136474610D01*
X77974471Y-136474612D01*
X77804100Y-136602530D01*
X77799965Y-136605635D01*
X77774541Y-136632240D01*
X77706280Y-136703671D01*
X77645629Y-136767138D01*
X77538201Y-136924621D01*
X77483293Y-136969621D01*
X77412768Y-136977792D01*
X77349021Y-136946538D01*
X77328324Y-136922054D01*
X77247822Y-136797617D01*
X77247820Y-136797614D01*
X77245014Y-136793277D01*
X77094670Y-136628051D01*
X77090619Y-136624852D01*
X77090615Y-136624848D01*
X76923414Y-136492800D01*
X76923410Y-136492798D01*
X76919359Y-136489598D01*
X76883028Y-136469542D01*
X76867136Y-136460769D01*
X76723789Y-136381638D01*
X76718920Y-136379914D01*
X76718916Y-136379912D01*
X76518087Y-136308795D01*
X76518083Y-136308794D01*
X76513212Y-136307069D01*
X76508119Y-136306162D01*
X76508116Y-136306161D01*
X76298373Y-136268800D01*
X76298367Y-136268799D01*
X76293284Y-136267894D01*
X76219452Y-136266992D01*
X76075081Y-136265228D01*
X76075079Y-136265228D01*
X76069911Y-136265165D01*
X75849091Y-136298955D01*
X75636756Y-136368357D01*
X75438607Y-136471507D01*
X75434474Y-136474610D01*
X75434471Y-136474612D01*
X75264100Y-136602530D01*
X75259965Y-136605635D01*
X75234541Y-136632240D01*
X75166280Y-136703671D01*
X75105629Y-136767138D01*
X74979743Y-136951680D01*
X74885688Y-137154305D01*
X74825989Y-137369570D01*
X74802251Y-137591695D01*
X74815110Y-137814715D01*
X74816247Y-137819761D01*
X74816248Y-137819767D01*
X74827031Y-137867614D01*
X74864222Y-138032639D01*
X74948266Y-138239616D01*
X74985685Y-138300678D01*
X75062291Y-138425688D01*
X75064987Y-138430088D01*
X75211250Y-138598938D01*
X75287376Y-138662139D01*
X75379148Y-138738330D01*
X75379153Y-138738333D01*
X75381873Y-138740592D01*
X75381874Y-138740593D01*
X75383126Y-138741632D01*
X75382911Y-138741890D01*
X75425559Y-138795245D01*
X75432867Y-138865865D01*
X75400836Y-138929225D01*
X75339634Y-138965209D01*
X75308959Y-138969000D01*
X74024000Y-138969000D01*
X73955879Y-138948998D01*
X73909386Y-138895342D01*
X73898000Y-138843000D01*
X73898000Y-132881695D01*
X74877251Y-132881695D01*
X74877548Y-132886848D01*
X74877548Y-132886851D01*
X74883011Y-132981590D01*
X74890110Y-133104715D01*
X74891247Y-133109761D01*
X74891248Y-133109767D01*
X74911119Y-133197939D01*
X74939222Y-133322639D01*
X75023266Y-133529616D01*
X75074019Y-133612438D01*
X75137291Y-133715688D01*
X75139987Y-133720088D01*
X75286250Y-133888938D01*
X75458126Y-134031632D01*
X75651000Y-134144338D01*
X75859692Y-134224030D01*
X75864760Y-134225061D01*
X75864763Y-134225062D01*
X75972017Y-134246883D01*
X76078597Y-134268567D01*
X76083772Y-134268757D01*
X76083774Y-134268757D01*
X76296673Y-134276564D01*
X76296677Y-134276564D01*
X76301837Y-134276753D01*
X76306957Y-134276097D01*
X76306959Y-134276097D01*
X76518288Y-134249025D01*
X76518289Y-134249025D01*
X76523416Y-134248368D01*
X76528366Y-134246883D01*
X76732429Y-134185661D01*
X76732434Y-134185659D01*
X76737384Y-134184174D01*
X76937994Y-134085896D01*
X77119860Y-133956173D01*
X77278096Y-133798489D01*
X77337594Y-133715689D01*
X77408453Y-133617077D01*
X77409776Y-133618028D01*
X77456645Y-133574857D01*
X77526580Y-133562625D01*
X77592026Y-133590144D01*
X77619875Y-133621994D01*
X77679987Y-133720088D01*
X77826250Y-133888938D01*
X77998126Y-134031632D01*
X78191000Y-134144338D01*
X78399692Y-134224030D01*
X78404760Y-134225061D01*
X78404763Y-134225062D01*
X78512017Y-134246883D01*
X78618597Y-134268567D01*
X78623772Y-134268757D01*
X78623774Y-134268757D01*
X78836673Y-134276564D01*
X78836677Y-134276564D01*
X78841837Y-134276753D01*
X78846957Y-134276097D01*
X78846959Y-134276097D01*
X79058288Y-134249025D01*
X79058289Y-134249025D01*
X79063416Y-134248368D01*
X79068366Y-134246883D01*
X79272429Y-134185661D01*
X79272434Y-134185659D01*
X79277384Y-134184174D01*
X79477994Y-134085896D01*
X79659860Y-133956173D01*
X79727331Y-133888938D01*
X79768479Y-133847933D01*
X79830851Y-133814017D01*
X79901658Y-133819205D01*
X79958419Y-133861851D01*
X79975401Y-133892954D01*
X80016676Y-134003054D01*
X80025214Y-134018649D01*
X80101715Y-134120724D01*
X80114276Y-134133285D01*
X80216351Y-134209786D01*
X80231946Y-134218324D01*
X80352394Y-134263478D01*
X80367649Y-134267105D01*
X80418514Y-134272631D01*
X80425328Y-134273000D01*
X81047885Y-134273000D01*
X81063124Y-134268525D01*
X81064329Y-134267135D01*
X81066000Y-134259452D01*
X81066000Y-134254884D01*
X81574000Y-134254884D01*
X81578475Y-134270123D01*
X81579865Y-134271328D01*
X81587548Y-134272999D01*
X82214669Y-134272999D01*
X82221490Y-134272629D01*
X82272352Y-134267105D01*
X82287604Y-134263479D01*
X82408054Y-134218324D01*
X82423649Y-134209786D01*
X82525724Y-134133285D01*
X82538285Y-134120724D01*
X82614786Y-134018649D01*
X82623324Y-134003054D01*
X82664225Y-133893952D01*
X82706867Y-133837188D01*
X82773428Y-133812488D01*
X82842777Y-133827696D01*
X82877444Y-133855684D01*
X82902865Y-133885031D01*
X82902869Y-133885035D01*
X82906250Y-133888938D01*
X83078126Y-134031632D01*
X83271000Y-134144338D01*
X83479692Y-134224030D01*
X83484760Y-134225061D01*
X83484763Y-134225062D01*
X83592017Y-134246883D01*
X83698597Y-134268567D01*
X83703772Y-134268757D01*
X83703774Y-134268757D01*
X83916673Y-134276564D01*
X83916677Y-134276564D01*
X83921837Y-134276753D01*
X83926957Y-134276097D01*
X83926959Y-134276097D01*
X84138288Y-134249025D01*
X84138289Y-134249025D01*
X84143416Y-134248368D01*
X84148366Y-134246883D01*
X84352429Y-134185661D01*
X84352434Y-134185659D01*
X84357384Y-134184174D01*
X84557994Y-134085896D01*
X84739860Y-133956173D01*
X84898096Y-133798489D01*
X84957594Y-133715689D01*
X85028453Y-133617077D01*
X85029776Y-133618028D01*
X85076645Y-133574857D01*
X85146580Y-133562625D01*
X85212026Y-133590144D01*
X85239875Y-133621994D01*
X85299987Y-133720088D01*
X85446250Y-133888938D01*
X85618126Y-134031632D01*
X85811000Y-134144338D01*
X86019692Y-134224030D01*
X86024760Y-134225061D01*
X86024763Y-134225062D01*
X86132017Y-134246883D01*
X86238597Y-134268567D01*
X86243772Y-134268757D01*
X86243774Y-134268757D01*
X86456673Y-134276564D01*
X86456677Y-134276564D01*
X86461837Y-134276753D01*
X86466957Y-134276097D01*
X86466959Y-134276097D01*
X86678288Y-134249025D01*
X86678289Y-134249025D01*
X86683416Y-134248368D01*
X86688366Y-134246883D01*
X86892429Y-134185661D01*
X86892434Y-134185659D01*
X86897384Y-134184174D01*
X87097994Y-134085896D01*
X87279860Y-133956173D01*
X87438096Y-133798489D01*
X87497594Y-133715689D01*
X87568453Y-133617077D01*
X87569776Y-133618028D01*
X87616645Y-133574857D01*
X87686580Y-133562625D01*
X87752026Y-133590144D01*
X87779875Y-133621994D01*
X87839987Y-133720088D01*
X87986250Y-133888938D01*
X88158126Y-134031632D01*
X88351000Y-134144338D01*
X88559692Y-134224030D01*
X88564760Y-134225061D01*
X88564763Y-134225062D01*
X88672017Y-134246883D01*
X88778597Y-134268567D01*
X88783772Y-134268757D01*
X88783774Y-134268757D01*
X88996673Y-134276564D01*
X88996677Y-134276564D01*
X89001837Y-134276753D01*
X89006957Y-134276097D01*
X89006959Y-134276097D01*
X89218288Y-134249025D01*
X89218289Y-134249025D01*
X89223416Y-134248368D01*
X89228366Y-134246883D01*
X89432429Y-134185661D01*
X89432434Y-134185659D01*
X89437384Y-134184174D01*
X89637994Y-134085896D01*
X89819860Y-133956173D01*
X89978096Y-133798489D01*
X90037594Y-133715689D01*
X90108453Y-133617077D01*
X90109776Y-133618028D01*
X90156645Y-133574857D01*
X90226580Y-133562625D01*
X90292026Y-133590144D01*
X90319875Y-133621994D01*
X90379987Y-133720088D01*
X90526250Y-133888938D01*
X90698126Y-134031632D01*
X90891000Y-134144338D01*
X91099692Y-134224030D01*
X91104760Y-134225061D01*
X91104763Y-134225062D01*
X91212017Y-134246883D01*
X91318597Y-134268567D01*
X91323772Y-134268757D01*
X91323774Y-134268757D01*
X91536673Y-134276564D01*
X91536677Y-134276564D01*
X91541837Y-134276753D01*
X91546957Y-134276097D01*
X91546959Y-134276097D01*
X91758288Y-134249025D01*
X91758289Y-134249025D01*
X91763416Y-134248368D01*
X91768366Y-134246883D01*
X91972429Y-134185661D01*
X91972434Y-134185659D01*
X91977384Y-134184174D01*
X92177994Y-134085896D01*
X92359860Y-133956173D01*
X92427331Y-133888938D01*
X92468479Y-133847933D01*
X92530851Y-133814017D01*
X92601658Y-133819205D01*
X92658419Y-133861851D01*
X92675401Y-133892954D01*
X92716676Y-134003054D01*
X92725214Y-134018649D01*
X92801715Y-134120724D01*
X92814276Y-134133285D01*
X92916351Y-134209786D01*
X92931946Y-134218324D01*
X93052394Y-134263478D01*
X93067649Y-134267105D01*
X93118514Y-134272631D01*
X93125328Y-134273000D01*
X93747885Y-134273000D01*
X93763124Y-134268525D01*
X93764329Y-134267135D01*
X93766000Y-134259452D01*
X93766000Y-134254884D01*
X94274000Y-134254884D01*
X94278475Y-134270123D01*
X94279865Y-134271328D01*
X94287548Y-134272999D01*
X94914669Y-134272999D01*
X94921490Y-134272629D01*
X94972352Y-134267105D01*
X94987604Y-134263479D01*
X95108054Y-134218324D01*
X95123649Y-134209786D01*
X95225724Y-134133285D01*
X95238285Y-134120724D01*
X95314786Y-134018649D01*
X95323324Y-134003054D01*
X95364225Y-133893952D01*
X95406867Y-133837188D01*
X95473428Y-133812488D01*
X95542777Y-133827696D01*
X95577444Y-133855684D01*
X95602865Y-133885031D01*
X95602869Y-133885035D01*
X95606250Y-133888938D01*
X95778126Y-134031632D01*
X95971000Y-134144338D01*
X96179692Y-134224030D01*
X96184760Y-134225061D01*
X96184763Y-134225062D01*
X96292017Y-134246883D01*
X96398597Y-134268567D01*
X96403772Y-134268757D01*
X96403774Y-134268757D01*
X96616673Y-134276564D01*
X96616677Y-134276564D01*
X96621837Y-134276753D01*
X96626957Y-134276097D01*
X96626959Y-134276097D01*
X96838288Y-134249025D01*
X96838289Y-134249025D01*
X96843416Y-134248368D01*
X96848366Y-134246883D01*
X97052429Y-134185661D01*
X97052434Y-134185659D01*
X97057384Y-134184174D01*
X97257994Y-134085896D01*
X97439860Y-133956173D01*
X97598096Y-133798489D01*
X97657594Y-133715689D01*
X97728453Y-133617077D01*
X97729776Y-133618028D01*
X97776645Y-133574857D01*
X97846580Y-133562625D01*
X97912026Y-133590144D01*
X97939875Y-133621994D01*
X97999987Y-133720088D01*
X98146250Y-133888938D01*
X98318126Y-134031632D01*
X98511000Y-134144338D01*
X98719692Y-134224030D01*
X98724760Y-134225061D01*
X98724763Y-134225062D01*
X98832017Y-134246883D01*
X98938597Y-134268567D01*
X98943772Y-134268757D01*
X98943774Y-134268757D01*
X99156673Y-134276564D01*
X99156677Y-134276564D01*
X99161837Y-134276753D01*
X99166957Y-134276097D01*
X99166959Y-134276097D01*
X99378288Y-134249025D01*
X99378289Y-134249025D01*
X99383416Y-134248368D01*
X99388366Y-134246883D01*
X99592429Y-134185661D01*
X99592434Y-134185659D01*
X99597384Y-134184174D01*
X99797994Y-134085896D01*
X99979860Y-133956173D01*
X100138096Y-133798489D01*
X100197594Y-133715689D01*
X100268453Y-133617077D01*
X100269776Y-133618028D01*
X100316645Y-133574857D01*
X100386580Y-133562625D01*
X100452026Y-133590144D01*
X100479875Y-133621994D01*
X100539987Y-133720088D01*
X100686250Y-133888938D01*
X100858126Y-134031632D01*
X101051000Y-134144338D01*
X101259692Y-134224030D01*
X101264760Y-134225061D01*
X101264763Y-134225062D01*
X101372017Y-134246883D01*
X101478597Y-134268567D01*
X101483772Y-134268757D01*
X101483774Y-134268757D01*
X101696673Y-134276564D01*
X101696677Y-134276564D01*
X101701837Y-134276753D01*
X101706957Y-134276097D01*
X101706959Y-134276097D01*
X101918288Y-134249025D01*
X101918289Y-134249025D01*
X101923416Y-134248368D01*
X101928366Y-134246883D01*
X102132429Y-134185661D01*
X102132434Y-134185659D01*
X102137384Y-134184174D01*
X102337994Y-134085896D01*
X102519860Y-133956173D01*
X102678096Y-133798489D01*
X102737594Y-133715689D01*
X102808453Y-133617077D01*
X102809776Y-133618028D01*
X102856645Y-133574857D01*
X102926580Y-133562625D01*
X102992026Y-133590144D01*
X103019875Y-133621994D01*
X103079987Y-133720088D01*
X103226250Y-133888938D01*
X103398126Y-134031632D01*
X103591000Y-134144338D01*
X103799692Y-134224030D01*
X103804760Y-134225061D01*
X103804763Y-134225062D01*
X103912017Y-134246883D01*
X104018597Y-134268567D01*
X104023772Y-134268757D01*
X104023774Y-134268757D01*
X104236673Y-134276564D01*
X104236677Y-134276564D01*
X104241837Y-134276753D01*
X104246957Y-134276097D01*
X104246959Y-134276097D01*
X104458288Y-134249025D01*
X104458289Y-134249025D01*
X104463416Y-134248368D01*
X104468366Y-134246883D01*
X104672429Y-134185661D01*
X104672434Y-134185659D01*
X104677384Y-134184174D01*
X104877994Y-134085896D01*
X105059860Y-133956173D01*
X105127331Y-133888938D01*
X105168479Y-133847933D01*
X105230851Y-133814017D01*
X105301658Y-133819205D01*
X105358419Y-133861851D01*
X105375401Y-133892954D01*
X105416676Y-134003054D01*
X105425214Y-134018649D01*
X105501715Y-134120724D01*
X105514276Y-134133285D01*
X105616351Y-134209786D01*
X105631946Y-134218324D01*
X105752394Y-134263478D01*
X105767649Y-134267105D01*
X105818514Y-134272631D01*
X105825328Y-134273000D01*
X106447885Y-134273000D01*
X106463124Y-134268525D01*
X106464329Y-134267135D01*
X106466000Y-134259452D01*
X106466000Y-134254884D01*
X106974000Y-134254884D01*
X106978475Y-134270123D01*
X106979865Y-134271328D01*
X106987548Y-134272999D01*
X107614669Y-134272999D01*
X107621490Y-134272629D01*
X107672352Y-134267105D01*
X107687604Y-134263479D01*
X107808054Y-134218324D01*
X107823649Y-134209786D01*
X107925724Y-134133285D01*
X107938285Y-134120724D01*
X108014786Y-134018649D01*
X108023324Y-134003054D01*
X108064225Y-133893952D01*
X108106867Y-133837188D01*
X108173428Y-133812488D01*
X108242777Y-133827696D01*
X108277444Y-133855684D01*
X108302865Y-133885031D01*
X108302869Y-133885035D01*
X108306250Y-133888938D01*
X108478126Y-134031632D01*
X108671000Y-134144338D01*
X108879692Y-134224030D01*
X108884760Y-134225061D01*
X108884763Y-134225062D01*
X108992017Y-134246883D01*
X109098597Y-134268567D01*
X109103772Y-134268757D01*
X109103774Y-134268757D01*
X109316673Y-134276564D01*
X109316677Y-134276564D01*
X109321837Y-134276753D01*
X109326957Y-134276097D01*
X109326959Y-134276097D01*
X109538288Y-134249025D01*
X109538289Y-134249025D01*
X109543416Y-134248368D01*
X109548366Y-134246883D01*
X109752429Y-134185661D01*
X109752434Y-134185659D01*
X109757384Y-134184174D01*
X109957994Y-134085896D01*
X110139860Y-133956173D01*
X110298096Y-133798489D01*
X110357594Y-133715689D01*
X110428453Y-133617077D01*
X110429776Y-133618028D01*
X110476645Y-133574857D01*
X110546580Y-133562625D01*
X110612026Y-133590144D01*
X110639875Y-133621994D01*
X110699987Y-133720088D01*
X110846250Y-133888938D01*
X111018126Y-134031632D01*
X111211000Y-134144338D01*
X111419692Y-134224030D01*
X111424760Y-134225061D01*
X111424763Y-134225062D01*
X111532017Y-134246883D01*
X111638597Y-134268567D01*
X111643772Y-134268757D01*
X111643774Y-134268757D01*
X111856673Y-134276564D01*
X111856677Y-134276564D01*
X111861837Y-134276753D01*
X111866957Y-134276097D01*
X111866959Y-134276097D01*
X112078288Y-134249025D01*
X112078289Y-134249025D01*
X112083416Y-134248368D01*
X112088366Y-134246883D01*
X112292429Y-134185661D01*
X112292434Y-134185659D01*
X112297384Y-134184174D01*
X112497994Y-134085896D01*
X112679860Y-133956173D01*
X112838096Y-133798489D01*
X112897594Y-133715689D01*
X112968453Y-133617077D01*
X112969776Y-133618028D01*
X113016645Y-133574857D01*
X113086580Y-133562625D01*
X113152026Y-133590144D01*
X113179875Y-133621994D01*
X113239987Y-133720088D01*
X113386250Y-133888938D01*
X113558126Y-134031632D01*
X113751000Y-134144338D01*
X113959692Y-134224030D01*
X113964760Y-134225061D01*
X113964763Y-134225062D01*
X114072017Y-134246883D01*
X114178597Y-134268567D01*
X114183772Y-134268757D01*
X114183774Y-134268757D01*
X114396673Y-134276564D01*
X114396677Y-134276564D01*
X114401837Y-134276753D01*
X114406957Y-134276097D01*
X114406959Y-134276097D01*
X114618288Y-134249025D01*
X114618289Y-134249025D01*
X114623416Y-134248368D01*
X114628366Y-134246883D01*
X114832429Y-134185661D01*
X114832434Y-134185659D01*
X114837384Y-134184174D01*
X115037994Y-134085896D01*
X115219860Y-133956173D01*
X115378096Y-133798489D01*
X115437594Y-133715689D01*
X115508453Y-133617077D01*
X115509776Y-133618028D01*
X115556645Y-133574857D01*
X115626580Y-133562625D01*
X115692026Y-133590144D01*
X115719875Y-133621994D01*
X115779987Y-133720088D01*
X115926250Y-133888938D01*
X116098126Y-134031632D01*
X116291000Y-134144338D01*
X116499692Y-134224030D01*
X116504760Y-134225061D01*
X116504763Y-134225062D01*
X116612017Y-134246883D01*
X116718597Y-134268567D01*
X116723772Y-134268757D01*
X116723774Y-134268757D01*
X116936673Y-134276564D01*
X116936677Y-134276564D01*
X116941837Y-134276753D01*
X116946957Y-134276097D01*
X116946959Y-134276097D01*
X117158288Y-134249025D01*
X117158289Y-134249025D01*
X117163416Y-134248368D01*
X117168366Y-134246883D01*
X117372429Y-134185661D01*
X117372434Y-134185659D01*
X117377384Y-134184174D01*
X117577994Y-134085896D01*
X117759860Y-133956173D01*
X117827331Y-133888938D01*
X117868479Y-133847933D01*
X117930851Y-133814017D01*
X118001658Y-133819205D01*
X118058419Y-133861851D01*
X118075401Y-133892954D01*
X118116676Y-134003054D01*
X118125214Y-134018649D01*
X118201715Y-134120724D01*
X118214276Y-134133285D01*
X118316351Y-134209786D01*
X118331946Y-134218324D01*
X118452394Y-134263478D01*
X118467649Y-134267105D01*
X118518514Y-134272631D01*
X118525328Y-134273000D01*
X119147885Y-134273000D01*
X119163124Y-134268525D01*
X119164329Y-134267135D01*
X119166000Y-134259452D01*
X119166000Y-134254884D01*
X119674000Y-134254884D01*
X119678475Y-134270123D01*
X119679865Y-134271328D01*
X119687548Y-134272999D01*
X120314669Y-134272999D01*
X120321490Y-134272629D01*
X120372352Y-134267105D01*
X120387604Y-134263479D01*
X120508054Y-134218324D01*
X120523649Y-134209786D01*
X120625724Y-134133285D01*
X120638285Y-134120724D01*
X120714786Y-134018649D01*
X120723324Y-134003054D01*
X120764225Y-133893952D01*
X120806867Y-133837188D01*
X120873428Y-133812488D01*
X120942777Y-133827696D01*
X120977444Y-133855684D01*
X121002865Y-133885031D01*
X121002869Y-133885035D01*
X121006250Y-133888938D01*
X121178126Y-134031632D01*
X121371000Y-134144338D01*
X121579692Y-134224030D01*
X121584760Y-134225061D01*
X121584763Y-134225062D01*
X121692017Y-134246883D01*
X121798597Y-134268567D01*
X121803772Y-134268757D01*
X121803774Y-134268757D01*
X122016673Y-134276564D01*
X122016677Y-134276564D01*
X122021837Y-134276753D01*
X122026957Y-134276097D01*
X122026959Y-134276097D01*
X122238288Y-134249025D01*
X122238289Y-134249025D01*
X122243416Y-134248368D01*
X122248366Y-134246883D01*
X122452429Y-134185661D01*
X122452434Y-134185659D01*
X122457384Y-134184174D01*
X122657994Y-134085896D01*
X122839860Y-133956173D01*
X122998096Y-133798489D01*
X123057594Y-133715689D01*
X123128453Y-133617077D01*
X123129776Y-133618028D01*
X123176645Y-133574857D01*
X123246580Y-133562625D01*
X123312026Y-133590144D01*
X123339875Y-133621994D01*
X123399987Y-133720088D01*
X123546250Y-133888938D01*
X123718126Y-134031632D01*
X123911000Y-134144338D01*
X124119692Y-134224030D01*
X124124760Y-134225061D01*
X124124763Y-134225062D01*
X124232017Y-134246883D01*
X124338597Y-134268567D01*
X124343772Y-134268757D01*
X124343774Y-134268757D01*
X124556673Y-134276564D01*
X124556677Y-134276564D01*
X124561837Y-134276753D01*
X124566957Y-134276097D01*
X124566959Y-134276097D01*
X124778288Y-134249025D01*
X124778289Y-134249025D01*
X124783416Y-134248368D01*
X124788366Y-134246883D01*
X124992429Y-134185661D01*
X124992434Y-134185659D01*
X124997384Y-134184174D01*
X125197994Y-134085896D01*
X125379860Y-133956173D01*
X125538096Y-133798489D01*
X125597594Y-133715689D01*
X125665435Y-133621277D01*
X125668453Y-133617077D01*
X125689320Y-133574857D01*
X125765136Y-133421453D01*
X125765137Y-133421451D01*
X125767430Y-133416811D01*
X125832370Y-133203069D01*
X125861529Y-132981590D01*
X125863156Y-132915000D01*
X125844852Y-132692361D01*
X125790431Y-132475702D01*
X125701354Y-132270840D01*
X125580014Y-132083277D01*
X125429670Y-131918051D01*
X125425619Y-131914852D01*
X125425615Y-131914848D01*
X125258414Y-131782800D01*
X125258410Y-131782798D01*
X125254359Y-131779598D01*
X125244467Y-131774137D01*
X125178625Y-131737791D01*
X125128654Y-131687358D01*
X125113882Y-131617916D01*
X125138998Y-131551510D01*
X125145882Y-131543172D01*
X125259621Y-131416852D01*
X125259622Y-131416851D01*
X125264040Y-131411944D01*
X125359527Y-131246556D01*
X125418542Y-131064928D01*
X125438504Y-130875000D01*
X125418542Y-130685072D01*
X125359527Y-130503444D01*
X125264040Y-130338056D01*
X125253216Y-130326034D01*
X125140675Y-130201045D01*
X125140674Y-130201044D01*
X125136253Y-130196134D01*
X125037157Y-130124136D01*
X124987094Y-130087763D01*
X124987093Y-130087762D01*
X124981752Y-130083882D01*
X124975724Y-130081198D01*
X124975722Y-130081197D01*
X124813319Y-130008891D01*
X124813318Y-130008891D01*
X124807288Y-130006206D01*
X124713888Y-129986353D01*
X124626944Y-129967872D01*
X124626939Y-129967872D01*
X124620487Y-129966500D01*
X124429513Y-129966500D01*
X124423061Y-129967872D01*
X124423056Y-129967872D01*
X124336112Y-129986353D01*
X124242712Y-130006206D01*
X124236682Y-130008891D01*
X124236681Y-130008891D01*
X124074278Y-130081197D01*
X124074276Y-130081198D01*
X124068248Y-130083882D01*
X124062907Y-130087762D01*
X124062906Y-130087763D01*
X124012843Y-130124136D01*
X123913747Y-130196134D01*
X123909326Y-130201044D01*
X123909325Y-130201045D01*
X123796785Y-130326034D01*
X123785960Y-130338056D01*
X123690473Y-130503444D01*
X123631458Y-130685072D01*
X123611496Y-130875000D01*
X123631458Y-131064928D01*
X123690473Y-131246556D01*
X123785960Y-131411944D01*
X123790378Y-131416851D01*
X123790379Y-131416852D01*
X123887430Y-131524638D01*
X123918148Y-131588645D01*
X123909383Y-131659099D01*
X123863920Y-131713630D01*
X123851975Y-131720711D01*
X123773607Y-131761507D01*
X123769474Y-131764610D01*
X123769471Y-131764612D01*
X123686450Y-131826946D01*
X123594965Y-131895635D01*
X123440629Y-132057138D01*
X123333201Y-132214621D01*
X123278293Y-132259621D01*
X123207768Y-132267792D01*
X123144021Y-132236538D01*
X123123324Y-132212054D01*
X123042822Y-132087617D01*
X123042820Y-132087614D01*
X123040014Y-132083277D01*
X122889670Y-131918051D01*
X122885619Y-131914852D01*
X122885615Y-131914848D01*
X122718414Y-131782800D01*
X122718410Y-131782798D01*
X122714359Y-131779598D01*
X122704467Y-131774137D01*
X122607685Y-131720711D01*
X122518789Y-131671638D01*
X122513920Y-131669914D01*
X122513916Y-131669912D01*
X122313087Y-131598795D01*
X122313083Y-131598794D01*
X122308212Y-131597069D01*
X122303119Y-131596162D01*
X122303116Y-131596161D01*
X122093373Y-131558800D01*
X122093367Y-131558799D01*
X122088284Y-131557894D01*
X122014452Y-131556992D01*
X121870081Y-131555228D01*
X121870079Y-131555228D01*
X121864911Y-131555165D01*
X121644091Y-131588955D01*
X121431756Y-131658357D01*
X121233607Y-131761507D01*
X121229474Y-131764610D01*
X121229471Y-131764612D01*
X121146450Y-131826946D01*
X121054965Y-131895635D01*
X121051393Y-131899373D01*
X120973898Y-131980466D01*
X120912374Y-132015895D01*
X120841462Y-132012438D01*
X120783676Y-131971192D01*
X120764823Y-131937644D01*
X120723324Y-131826946D01*
X120714786Y-131811351D01*
X120638285Y-131709276D01*
X120625724Y-131696715D01*
X120523649Y-131620214D01*
X120508054Y-131611676D01*
X120387606Y-131566522D01*
X120372351Y-131562895D01*
X120321486Y-131557369D01*
X120314672Y-131557000D01*
X119692115Y-131557000D01*
X119676876Y-131561475D01*
X119675671Y-131562865D01*
X119674000Y-131570548D01*
X119674000Y-134254884D01*
X119166000Y-134254884D01*
X119166000Y-131575116D01*
X119161525Y-131559877D01*
X119160135Y-131558672D01*
X119152452Y-131557001D01*
X118525331Y-131557001D01*
X118518510Y-131557371D01*
X118467648Y-131562895D01*
X118452396Y-131566521D01*
X118331946Y-131611676D01*
X118316351Y-131620214D01*
X118214276Y-131696715D01*
X118201715Y-131709276D01*
X118125214Y-131811351D01*
X118116676Y-131826946D01*
X118075297Y-131937322D01*
X118032655Y-131994087D01*
X117966093Y-132018786D01*
X117896744Y-132003578D01*
X117864121Y-131977891D01*
X117813151Y-131921876D01*
X117813145Y-131921870D01*
X117809670Y-131918051D01*
X117805619Y-131914852D01*
X117805615Y-131914848D01*
X117638414Y-131782800D01*
X117638410Y-131782798D01*
X117634359Y-131779598D01*
X117624467Y-131774137D01*
X117527685Y-131720711D01*
X117438789Y-131671638D01*
X117433920Y-131669914D01*
X117433916Y-131669912D01*
X117233087Y-131598795D01*
X117233083Y-131598794D01*
X117228212Y-131597069D01*
X117223119Y-131596162D01*
X117223116Y-131596161D01*
X117013373Y-131558800D01*
X117013367Y-131558799D01*
X117008284Y-131557894D01*
X116934452Y-131556992D01*
X116790081Y-131555228D01*
X116790079Y-131555228D01*
X116784911Y-131555165D01*
X116564091Y-131588955D01*
X116351756Y-131658357D01*
X116153607Y-131761507D01*
X116149474Y-131764610D01*
X116149471Y-131764612D01*
X116066450Y-131826946D01*
X115974965Y-131895635D01*
X115820629Y-132057138D01*
X115713201Y-132214621D01*
X115658293Y-132259621D01*
X115587768Y-132267792D01*
X115524021Y-132236538D01*
X115503324Y-132212054D01*
X115422822Y-132087617D01*
X115422820Y-132087614D01*
X115420014Y-132083277D01*
X115269670Y-131918051D01*
X115265619Y-131914852D01*
X115265615Y-131914848D01*
X115098414Y-131782800D01*
X115098410Y-131782798D01*
X115094359Y-131779598D01*
X115084466Y-131774137D01*
X115034494Y-131723706D01*
X115019720Y-131654263D01*
X115044835Y-131587857D01*
X115051708Y-131579531D01*
X115090064Y-131536933D01*
X115185551Y-131371545D01*
X115244566Y-131189917D01*
X115264528Y-130999989D01*
X115244566Y-130810061D01*
X115185551Y-130628433D01*
X115090064Y-130463045D01*
X114962277Y-130321123D01*
X114807776Y-130208871D01*
X114801748Y-130206187D01*
X114801746Y-130206186D01*
X114639343Y-130133880D01*
X114639342Y-130133880D01*
X114633312Y-130131195D01*
X114539912Y-130111342D01*
X114452968Y-130092861D01*
X114452963Y-130092861D01*
X114446511Y-130091489D01*
X114255537Y-130091489D01*
X114249085Y-130092861D01*
X114249080Y-130092861D01*
X114162136Y-130111342D01*
X114068736Y-130131195D01*
X114062706Y-130133880D01*
X114062705Y-130133880D01*
X113900302Y-130206186D01*
X113900300Y-130206187D01*
X113894272Y-130208871D01*
X113739771Y-130321123D01*
X113611984Y-130463045D01*
X113516497Y-130628433D01*
X113457482Y-130810061D01*
X113437520Y-130999989D01*
X113457482Y-131189917D01*
X113516497Y-131371545D01*
X113611984Y-131536933D01*
X113641779Y-131570023D01*
X113672495Y-131634030D01*
X113663730Y-131704484D01*
X113615777Y-131760377D01*
X113613607Y-131761507D01*
X113609472Y-131764612D01*
X113609466Y-131764616D01*
X113592838Y-131777101D01*
X113434965Y-131895635D01*
X113280629Y-132057138D01*
X113173201Y-132214621D01*
X113118293Y-132259621D01*
X113047768Y-132267792D01*
X112984021Y-132236538D01*
X112963324Y-132212054D01*
X112882822Y-132087617D01*
X112882820Y-132087614D01*
X112880014Y-132083277D01*
X112729670Y-131918051D01*
X112725619Y-131914852D01*
X112725615Y-131914848D01*
X112558414Y-131782800D01*
X112558410Y-131782798D01*
X112554359Y-131779598D01*
X112544467Y-131774137D01*
X112447685Y-131720711D01*
X112358789Y-131671638D01*
X112353920Y-131669914D01*
X112353916Y-131669912D01*
X112153087Y-131598795D01*
X112153083Y-131598794D01*
X112148212Y-131597069D01*
X112143119Y-131596162D01*
X112143116Y-131596161D01*
X111933373Y-131558800D01*
X111933367Y-131558799D01*
X111928284Y-131557894D01*
X111854452Y-131556992D01*
X111710081Y-131555228D01*
X111710079Y-131555228D01*
X111704911Y-131555165D01*
X111484091Y-131588955D01*
X111271756Y-131658357D01*
X111073607Y-131761507D01*
X111069474Y-131764610D01*
X111069471Y-131764612D01*
X110986450Y-131826946D01*
X110894965Y-131895635D01*
X110740629Y-132057138D01*
X110633201Y-132214621D01*
X110578293Y-132259621D01*
X110507768Y-132267792D01*
X110444021Y-132236538D01*
X110423324Y-132212054D01*
X110342822Y-132087617D01*
X110342820Y-132087614D01*
X110340014Y-132083277D01*
X110189670Y-131918051D01*
X110185619Y-131914852D01*
X110185615Y-131914848D01*
X110018414Y-131782800D01*
X110018410Y-131782798D01*
X110014359Y-131779598D01*
X110004467Y-131774137D01*
X109907685Y-131720711D01*
X109818789Y-131671638D01*
X109813920Y-131669914D01*
X109813916Y-131669912D01*
X109613087Y-131598795D01*
X109613083Y-131598794D01*
X109608212Y-131597069D01*
X109603119Y-131596162D01*
X109603116Y-131596161D01*
X109393373Y-131558800D01*
X109393367Y-131558799D01*
X109388284Y-131557894D01*
X109314452Y-131556992D01*
X109170081Y-131555228D01*
X109170079Y-131555228D01*
X109164911Y-131555165D01*
X108944091Y-131588955D01*
X108731756Y-131658357D01*
X108533607Y-131761507D01*
X108529474Y-131764610D01*
X108529471Y-131764612D01*
X108446450Y-131826946D01*
X108354965Y-131895635D01*
X108351393Y-131899373D01*
X108273898Y-131980466D01*
X108212374Y-132015895D01*
X108141462Y-132012438D01*
X108083676Y-131971192D01*
X108064823Y-131937644D01*
X108023324Y-131826946D01*
X108014786Y-131811351D01*
X107938285Y-131709276D01*
X107925724Y-131696715D01*
X107823649Y-131620214D01*
X107808054Y-131611676D01*
X107687606Y-131566522D01*
X107672351Y-131562895D01*
X107621486Y-131557369D01*
X107614672Y-131557000D01*
X106992115Y-131557000D01*
X106976876Y-131561475D01*
X106975671Y-131562865D01*
X106974000Y-131570548D01*
X106974000Y-134254884D01*
X106466000Y-134254884D01*
X106466000Y-131575116D01*
X106461525Y-131559877D01*
X106460135Y-131558672D01*
X106452452Y-131557001D01*
X105825331Y-131557001D01*
X105818510Y-131557371D01*
X105767648Y-131562895D01*
X105752396Y-131566521D01*
X105631946Y-131611676D01*
X105616351Y-131620214D01*
X105514276Y-131696715D01*
X105501715Y-131709276D01*
X105425214Y-131811351D01*
X105416676Y-131826946D01*
X105375297Y-131937322D01*
X105332655Y-131994087D01*
X105266093Y-132018786D01*
X105196744Y-132003578D01*
X105164121Y-131977891D01*
X105113151Y-131921876D01*
X105113145Y-131921870D01*
X105109670Y-131918051D01*
X105105619Y-131914852D01*
X105105615Y-131914848D01*
X104938414Y-131782800D01*
X104938410Y-131782798D01*
X104934359Y-131779598D01*
X104924467Y-131774137D01*
X104827685Y-131720711D01*
X104738789Y-131671638D01*
X104733920Y-131669914D01*
X104733916Y-131669912D01*
X104533087Y-131598795D01*
X104533083Y-131598794D01*
X104528212Y-131597069D01*
X104523119Y-131596162D01*
X104523116Y-131596161D01*
X104313373Y-131558800D01*
X104313367Y-131558799D01*
X104308284Y-131557894D01*
X104234452Y-131556992D01*
X104090081Y-131555228D01*
X104090079Y-131555228D01*
X104084911Y-131555165D01*
X103864091Y-131588955D01*
X103651756Y-131658357D01*
X103453607Y-131761507D01*
X103449474Y-131764610D01*
X103449471Y-131764612D01*
X103366450Y-131826946D01*
X103274965Y-131895635D01*
X103120629Y-132057138D01*
X103013201Y-132214621D01*
X102958293Y-132259621D01*
X102887768Y-132267792D01*
X102824021Y-132236538D01*
X102803324Y-132212054D01*
X102722822Y-132087617D01*
X102722820Y-132087614D01*
X102720014Y-132083277D01*
X102569670Y-131918051D01*
X102565619Y-131914852D01*
X102565615Y-131914848D01*
X102398414Y-131782800D01*
X102398410Y-131782798D01*
X102394359Y-131779598D01*
X102384467Y-131774137D01*
X102287685Y-131720711D01*
X102198789Y-131671638D01*
X102193920Y-131669914D01*
X102193916Y-131669912D01*
X101993087Y-131598795D01*
X101993083Y-131598794D01*
X101988212Y-131597069D01*
X101983119Y-131596162D01*
X101983116Y-131596161D01*
X101773373Y-131558800D01*
X101773367Y-131558799D01*
X101768284Y-131557894D01*
X101694452Y-131556992D01*
X101550081Y-131555228D01*
X101550079Y-131555228D01*
X101544911Y-131555165D01*
X101324091Y-131588955D01*
X101111756Y-131658357D01*
X100913607Y-131761507D01*
X100909474Y-131764610D01*
X100909471Y-131764612D01*
X100826450Y-131826946D01*
X100734965Y-131895635D01*
X100580629Y-132057138D01*
X100473201Y-132214621D01*
X100418293Y-132259621D01*
X100347768Y-132267792D01*
X100284021Y-132236538D01*
X100263324Y-132212054D01*
X100182822Y-132087617D01*
X100182820Y-132087614D01*
X100180014Y-132083277D01*
X100029670Y-131918051D01*
X100025619Y-131914852D01*
X100025615Y-131914848D01*
X99858414Y-131782800D01*
X99858410Y-131782798D01*
X99854359Y-131779598D01*
X99844467Y-131774137D01*
X99747685Y-131720711D01*
X99658789Y-131671638D01*
X99653920Y-131669914D01*
X99653916Y-131669912D01*
X99453087Y-131598795D01*
X99453083Y-131598794D01*
X99448212Y-131597069D01*
X99443119Y-131596162D01*
X99443116Y-131596161D01*
X99233373Y-131558800D01*
X99233367Y-131558799D01*
X99228284Y-131557894D01*
X99154452Y-131556992D01*
X99010081Y-131555228D01*
X99010079Y-131555228D01*
X99004911Y-131555165D01*
X98784091Y-131588955D01*
X98571756Y-131658357D01*
X98373607Y-131761507D01*
X98369474Y-131764610D01*
X98369471Y-131764612D01*
X98286450Y-131826946D01*
X98194965Y-131895635D01*
X98040629Y-132057138D01*
X97933201Y-132214621D01*
X97878293Y-132259621D01*
X97807768Y-132267792D01*
X97744021Y-132236538D01*
X97723324Y-132212054D01*
X97642822Y-132087617D01*
X97642820Y-132087614D01*
X97640014Y-132083277D01*
X97489670Y-131918051D01*
X97485619Y-131914852D01*
X97485615Y-131914848D01*
X97318414Y-131782800D01*
X97318410Y-131782798D01*
X97314359Y-131779598D01*
X97304467Y-131774137D01*
X97207685Y-131720711D01*
X97118789Y-131671638D01*
X97113920Y-131669914D01*
X97113916Y-131669912D01*
X96913087Y-131598795D01*
X96913083Y-131598794D01*
X96908212Y-131597069D01*
X96903119Y-131596162D01*
X96903116Y-131596161D01*
X96693373Y-131558800D01*
X96693367Y-131558799D01*
X96688284Y-131557894D01*
X96614452Y-131556992D01*
X96470081Y-131555228D01*
X96470079Y-131555228D01*
X96464911Y-131555165D01*
X96244091Y-131588955D01*
X96031756Y-131658357D01*
X95833607Y-131761507D01*
X95829474Y-131764610D01*
X95829471Y-131764612D01*
X95746450Y-131826946D01*
X95654965Y-131895635D01*
X95651393Y-131899373D01*
X95573898Y-131980466D01*
X95512374Y-132015895D01*
X95441462Y-132012438D01*
X95383676Y-131971192D01*
X95364823Y-131937644D01*
X95323324Y-131826946D01*
X95314786Y-131811351D01*
X95238285Y-131709276D01*
X95225724Y-131696715D01*
X95123649Y-131620214D01*
X95108054Y-131611676D01*
X94987606Y-131566522D01*
X94972351Y-131562895D01*
X94921486Y-131557369D01*
X94914672Y-131557000D01*
X94292115Y-131557000D01*
X94276876Y-131561475D01*
X94275671Y-131562865D01*
X94274000Y-131570548D01*
X94274000Y-134254884D01*
X93766000Y-134254884D01*
X93766000Y-131575116D01*
X93761525Y-131559877D01*
X93760135Y-131558672D01*
X93752452Y-131557001D01*
X93125331Y-131557001D01*
X93118510Y-131557371D01*
X93067648Y-131562895D01*
X93052396Y-131566521D01*
X92931946Y-131611676D01*
X92916351Y-131620214D01*
X92814276Y-131696715D01*
X92801715Y-131709276D01*
X92725214Y-131811351D01*
X92716676Y-131826946D01*
X92675297Y-131937322D01*
X92632655Y-131994087D01*
X92566093Y-132018786D01*
X92496744Y-132003578D01*
X92464121Y-131977891D01*
X92413151Y-131921876D01*
X92413145Y-131921870D01*
X92409670Y-131918051D01*
X92405619Y-131914852D01*
X92405615Y-131914848D01*
X92238414Y-131782800D01*
X92238410Y-131782798D01*
X92234359Y-131779598D01*
X92224467Y-131774137D01*
X92127685Y-131720711D01*
X92038789Y-131671638D01*
X92033920Y-131669914D01*
X92033916Y-131669912D01*
X91833087Y-131598795D01*
X91833083Y-131598794D01*
X91828212Y-131597069D01*
X91823119Y-131596162D01*
X91823116Y-131596161D01*
X91613373Y-131558800D01*
X91613367Y-131558799D01*
X91608284Y-131557894D01*
X91534452Y-131556992D01*
X91390081Y-131555228D01*
X91390079Y-131555228D01*
X91384911Y-131555165D01*
X91164091Y-131588955D01*
X90951756Y-131658357D01*
X90753607Y-131761507D01*
X90749474Y-131764610D01*
X90749471Y-131764612D01*
X90666450Y-131826946D01*
X90574965Y-131895635D01*
X90420629Y-132057138D01*
X90313201Y-132214621D01*
X90258293Y-132259621D01*
X90187768Y-132267792D01*
X90124021Y-132236538D01*
X90103324Y-132212054D01*
X90022822Y-132087617D01*
X90022820Y-132087614D01*
X90020014Y-132083277D01*
X89869670Y-131918051D01*
X89865619Y-131914852D01*
X89865615Y-131914848D01*
X89698414Y-131782800D01*
X89698410Y-131782798D01*
X89694359Y-131779598D01*
X89684467Y-131774137D01*
X89587685Y-131720711D01*
X89498789Y-131671638D01*
X89493920Y-131669914D01*
X89493916Y-131669912D01*
X89293087Y-131598795D01*
X89293083Y-131598794D01*
X89288212Y-131597069D01*
X89283119Y-131596162D01*
X89283116Y-131596161D01*
X89073373Y-131558800D01*
X89073367Y-131558799D01*
X89068284Y-131557894D01*
X88994452Y-131556992D01*
X88850081Y-131555228D01*
X88850079Y-131555228D01*
X88844911Y-131555165D01*
X88624091Y-131588955D01*
X88411756Y-131658357D01*
X88213607Y-131761507D01*
X88209474Y-131764610D01*
X88209471Y-131764612D01*
X88126450Y-131826946D01*
X88034965Y-131895635D01*
X87880629Y-132057138D01*
X87773201Y-132214621D01*
X87718293Y-132259621D01*
X87647768Y-132267792D01*
X87584021Y-132236538D01*
X87563324Y-132212054D01*
X87482822Y-132087617D01*
X87482820Y-132087614D01*
X87480014Y-132083277D01*
X87329670Y-131918051D01*
X87325619Y-131914852D01*
X87325615Y-131914848D01*
X87158414Y-131782800D01*
X87158410Y-131782798D01*
X87154359Y-131779598D01*
X87144467Y-131774137D01*
X87047685Y-131720711D01*
X86958789Y-131671638D01*
X86953920Y-131669914D01*
X86953916Y-131669912D01*
X86753087Y-131598795D01*
X86753083Y-131598794D01*
X86748212Y-131597069D01*
X86743119Y-131596162D01*
X86743116Y-131596161D01*
X86533373Y-131558800D01*
X86533367Y-131558799D01*
X86528284Y-131557894D01*
X86454452Y-131556992D01*
X86310081Y-131555228D01*
X86310079Y-131555228D01*
X86304911Y-131555165D01*
X86084091Y-131588955D01*
X85871756Y-131658357D01*
X85673607Y-131761507D01*
X85669474Y-131764610D01*
X85669471Y-131764612D01*
X85586450Y-131826946D01*
X85494965Y-131895635D01*
X85340629Y-132057138D01*
X85233201Y-132214621D01*
X85178293Y-132259621D01*
X85107768Y-132267792D01*
X85044021Y-132236538D01*
X85023324Y-132212054D01*
X84942822Y-132087617D01*
X84942820Y-132087614D01*
X84940014Y-132083277D01*
X84789670Y-131918051D01*
X84785619Y-131914852D01*
X84785615Y-131914848D01*
X84618414Y-131782800D01*
X84618410Y-131782798D01*
X84614359Y-131779598D01*
X84604467Y-131774137D01*
X84507685Y-131720711D01*
X84418789Y-131671638D01*
X84413920Y-131669914D01*
X84413916Y-131669912D01*
X84213087Y-131598795D01*
X84213083Y-131598794D01*
X84208212Y-131597069D01*
X84203119Y-131596162D01*
X84203116Y-131596161D01*
X83993373Y-131558800D01*
X83993367Y-131558799D01*
X83988284Y-131557894D01*
X83914452Y-131556992D01*
X83770081Y-131555228D01*
X83770079Y-131555228D01*
X83764911Y-131555165D01*
X83544091Y-131588955D01*
X83331756Y-131658357D01*
X83133607Y-131761507D01*
X83129474Y-131764610D01*
X83129471Y-131764612D01*
X83046450Y-131826946D01*
X82954965Y-131895635D01*
X82951393Y-131899373D01*
X82873898Y-131980466D01*
X82812374Y-132015895D01*
X82741462Y-132012438D01*
X82683676Y-131971192D01*
X82664823Y-131937644D01*
X82623324Y-131826946D01*
X82614786Y-131811351D01*
X82538285Y-131709276D01*
X82525724Y-131696715D01*
X82423649Y-131620214D01*
X82408054Y-131611676D01*
X82287606Y-131566522D01*
X82272351Y-131562895D01*
X82221486Y-131557369D01*
X82214672Y-131557000D01*
X81592115Y-131557000D01*
X81576876Y-131561475D01*
X81575671Y-131562865D01*
X81574000Y-131570548D01*
X81574000Y-134254884D01*
X81066000Y-134254884D01*
X81066000Y-131575116D01*
X81061525Y-131559877D01*
X81060135Y-131558672D01*
X81052452Y-131557001D01*
X80425331Y-131557001D01*
X80418510Y-131557371D01*
X80367648Y-131562895D01*
X80352396Y-131566521D01*
X80231946Y-131611676D01*
X80216351Y-131620214D01*
X80114276Y-131696715D01*
X80101715Y-131709276D01*
X80025214Y-131811351D01*
X80016676Y-131826946D01*
X79975297Y-131937322D01*
X79932655Y-131994087D01*
X79866093Y-132018786D01*
X79796744Y-132003578D01*
X79764121Y-131977891D01*
X79713151Y-131921876D01*
X79713145Y-131921870D01*
X79709670Y-131918051D01*
X79705619Y-131914852D01*
X79705615Y-131914848D01*
X79538414Y-131782800D01*
X79538410Y-131782798D01*
X79534359Y-131779598D01*
X79524467Y-131774137D01*
X79427685Y-131720711D01*
X79338789Y-131671638D01*
X79333920Y-131669914D01*
X79333916Y-131669912D01*
X79133087Y-131598795D01*
X79133083Y-131598794D01*
X79128212Y-131597069D01*
X79123119Y-131596162D01*
X79123116Y-131596161D01*
X78913373Y-131558800D01*
X78913367Y-131558799D01*
X78908284Y-131557894D01*
X78834452Y-131556992D01*
X78690081Y-131555228D01*
X78690079Y-131555228D01*
X78684911Y-131555165D01*
X78464091Y-131588955D01*
X78251756Y-131658357D01*
X78053607Y-131761507D01*
X78049474Y-131764610D01*
X78049471Y-131764612D01*
X77966450Y-131826946D01*
X77874965Y-131895635D01*
X77720629Y-132057138D01*
X77613201Y-132214621D01*
X77558293Y-132259621D01*
X77487768Y-132267792D01*
X77424021Y-132236538D01*
X77403324Y-132212054D01*
X77322822Y-132087617D01*
X77322820Y-132087614D01*
X77320014Y-132083277D01*
X77169670Y-131918051D01*
X77165619Y-131914852D01*
X77165615Y-131914848D01*
X76998414Y-131782800D01*
X76998410Y-131782798D01*
X76994359Y-131779598D01*
X76984467Y-131774137D01*
X76887685Y-131720711D01*
X76798789Y-131671638D01*
X76793920Y-131669914D01*
X76793916Y-131669912D01*
X76593087Y-131598795D01*
X76593083Y-131598794D01*
X76588212Y-131597069D01*
X76583119Y-131596162D01*
X76583116Y-131596161D01*
X76373373Y-131558800D01*
X76373367Y-131558799D01*
X76368284Y-131557894D01*
X76294452Y-131556992D01*
X76150081Y-131555228D01*
X76150079Y-131555228D01*
X76144911Y-131555165D01*
X75924091Y-131588955D01*
X75711756Y-131658357D01*
X75513607Y-131761507D01*
X75509474Y-131764610D01*
X75509471Y-131764612D01*
X75426450Y-131826946D01*
X75334965Y-131895635D01*
X75180629Y-132057138D01*
X75054743Y-132241680D01*
X74960688Y-132444305D01*
X74900989Y-132659570D01*
X74877251Y-132881695D01*
X73898000Y-132881695D01*
X73898000Y-126531695D01*
X75107251Y-126531695D01*
X75107548Y-126536848D01*
X75107548Y-126536851D01*
X75113011Y-126631590D01*
X75120110Y-126754715D01*
X75121247Y-126759761D01*
X75121248Y-126759767D01*
X75135354Y-126822359D01*
X75169222Y-126972639D01*
X75253266Y-127179616D01*
X75369987Y-127370088D01*
X75516250Y-127538938D01*
X75688126Y-127681632D01*
X75881000Y-127794338D01*
X76089692Y-127874030D01*
X76094760Y-127875061D01*
X76094763Y-127875062D01*
X76202017Y-127896883D01*
X76308597Y-127918567D01*
X76313772Y-127918757D01*
X76313774Y-127918757D01*
X76526673Y-127926564D01*
X76526677Y-127926564D01*
X76531837Y-127926753D01*
X76536957Y-127926097D01*
X76536959Y-127926097D01*
X76748288Y-127899025D01*
X76748289Y-127899025D01*
X76753416Y-127898368D01*
X76758366Y-127896883D01*
X76962429Y-127835661D01*
X76962434Y-127835659D01*
X76967384Y-127834174D01*
X77167994Y-127735896D01*
X77349860Y-127606173D01*
X77367473Y-127588622D01*
X77504435Y-127452137D01*
X77508096Y-127448489D01*
X77567594Y-127365689D01*
X77635435Y-127271277D01*
X77638453Y-127267077D01*
X77640944Y-127262038D01*
X77735136Y-127071453D01*
X77735137Y-127071451D01*
X77737430Y-127066811D01*
X77775494Y-126941529D01*
X77800865Y-126858023D01*
X77800865Y-126858021D01*
X77802370Y-126853069D01*
X77831529Y-126631590D01*
X77833156Y-126565000D01*
X77823701Y-126450000D01*
X120076693Y-126450000D01*
X120095885Y-126669371D01*
X120152880Y-126882076D01*
X120155205Y-126887061D01*
X120243618Y-127076666D01*
X120243621Y-127076671D01*
X120245944Y-127081653D01*
X120249100Y-127086160D01*
X120249101Y-127086162D01*
X120311187Y-127174829D01*
X120372251Y-127262038D01*
X120527962Y-127417749D01*
X120708346Y-127544056D01*
X120907924Y-127637120D01*
X121120629Y-127694115D01*
X121340000Y-127713307D01*
X121559371Y-127694115D01*
X121772076Y-127637120D01*
X121971654Y-127544056D01*
X122152038Y-127417749D01*
X122307749Y-127262038D01*
X122368814Y-127174829D01*
X122430899Y-127086162D01*
X122430900Y-127086160D01*
X122434056Y-127081653D01*
X122436379Y-127076671D01*
X122436382Y-127076666D01*
X122524795Y-126887061D01*
X122527120Y-126882076D01*
X122571763Y-126715469D01*
X122957095Y-126715469D01*
X122957392Y-126720622D01*
X122957392Y-126720625D01*
X122970129Y-126941529D01*
X122970427Y-126946697D01*
X122971564Y-126951743D01*
X122971565Y-126951749D01*
X122996379Y-127061857D01*
X123021346Y-127172642D01*
X123023288Y-127177424D01*
X123023289Y-127177428D01*
X123103105Y-127373990D01*
X123108484Y-127387237D01*
X123229501Y-127584719D01*
X123381147Y-127759784D01*
X123559349Y-127907730D01*
X123759322Y-128024584D01*
X123975694Y-128107209D01*
X123980760Y-128108240D01*
X123980761Y-128108240D01*
X124033846Y-128119040D01*
X124202656Y-128153385D01*
X124333324Y-128158176D01*
X124428949Y-128161683D01*
X124428953Y-128161683D01*
X124434113Y-128161872D01*
X124439233Y-128161216D01*
X124439235Y-128161216D01*
X124512270Y-128151860D01*
X124663847Y-128132442D01*
X124668795Y-128130957D01*
X124668802Y-128130956D01*
X124880747Y-128067369D01*
X124885690Y-128065886D01*
X124966236Y-128026427D01*
X125089049Y-127966262D01*
X125089052Y-127966260D01*
X125093684Y-127963991D01*
X125282243Y-127829494D01*
X125446303Y-127666005D01*
X125581458Y-127477917D01*
X125598077Y-127444292D01*
X125681784Y-127274922D01*
X125681785Y-127274920D01*
X125684078Y-127270280D01*
X125751408Y-127048671D01*
X125781640Y-126819041D01*
X125781722Y-126815691D01*
X125783245Y-126753365D01*
X125783245Y-126753361D01*
X125783327Y-126750000D01*
X125773592Y-126631590D01*
X125764773Y-126524318D01*
X125764772Y-126524312D01*
X125764349Y-126519167D01*
X125718678Y-126337342D01*
X125709184Y-126299544D01*
X125709183Y-126299540D01*
X125707925Y-126294533D01*
X125705866Y-126289797D01*
X125617630Y-126086868D01*
X125617628Y-126086865D01*
X125615570Y-126082131D01*
X125489764Y-125887665D01*
X125333887Y-125716358D01*
X125329836Y-125713159D01*
X125329832Y-125713155D01*
X125156177Y-125576011D01*
X125156172Y-125576008D01*
X125152123Y-125572810D01*
X125147607Y-125570317D01*
X125147604Y-125570315D01*
X124953879Y-125463373D01*
X124953875Y-125463371D01*
X124949355Y-125460876D01*
X124944486Y-125459152D01*
X124944482Y-125459150D01*
X124735903Y-125385288D01*
X124735899Y-125385287D01*
X124731028Y-125383562D01*
X124725935Y-125382655D01*
X124725932Y-125382654D01*
X124508095Y-125343851D01*
X124508089Y-125343850D01*
X124503006Y-125342945D01*
X124430096Y-125342054D01*
X124276581Y-125340179D01*
X124276579Y-125340179D01*
X124271411Y-125340116D01*
X124042464Y-125375150D01*
X123822314Y-125447106D01*
X123817726Y-125449494D01*
X123817722Y-125449496D01*
X123621461Y-125551663D01*
X123616872Y-125554052D01*
X123612739Y-125557155D01*
X123612736Y-125557157D01*
X123505114Y-125637962D01*
X123431655Y-125693117D01*
X123271639Y-125860564D01*
X123268725Y-125864836D01*
X123268724Y-125864837D01*
X123253332Y-125887401D01*
X123141119Y-126051899D01*
X123043602Y-126261981D01*
X122981707Y-126485169D01*
X122957095Y-126715469D01*
X122571763Y-126715469D01*
X122584115Y-126669371D01*
X122603307Y-126450000D01*
X122584115Y-126230629D01*
X122527120Y-126017924D01*
X122468252Y-125891680D01*
X122436382Y-125823334D01*
X122436379Y-125823329D01*
X122434056Y-125818347D01*
X122430899Y-125813838D01*
X122310908Y-125642473D01*
X122310906Y-125642470D01*
X122307749Y-125637962D01*
X122152038Y-125482251D01*
X122105260Y-125449496D01*
X122011096Y-125383562D01*
X121971654Y-125355944D01*
X121772076Y-125262880D01*
X121559371Y-125205885D01*
X121340000Y-125186693D01*
X121120629Y-125205885D01*
X120907924Y-125262880D01*
X120814562Y-125306415D01*
X120713334Y-125353618D01*
X120713329Y-125353621D01*
X120708347Y-125355944D01*
X120703840Y-125359100D01*
X120703838Y-125359101D01*
X120532473Y-125479092D01*
X120532470Y-125479094D01*
X120527962Y-125482251D01*
X120372251Y-125637962D01*
X120369094Y-125642470D01*
X120369092Y-125642473D01*
X120249101Y-125813838D01*
X120245944Y-125818347D01*
X120243621Y-125823329D01*
X120243618Y-125823334D01*
X120211748Y-125891680D01*
X120152880Y-126017924D01*
X120095885Y-126230629D01*
X120076693Y-126450000D01*
X77823701Y-126450000D01*
X77814852Y-126342361D01*
X77760431Y-126125702D01*
X77671354Y-125920840D01*
X77550014Y-125733277D01*
X77546540Y-125729459D01*
X77546533Y-125729450D01*
X77402435Y-125571088D01*
X77371383Y-125507242D01*
X77379779Y-125436744D01*
X77424956Y-125381976D01*
X77451400Y-125368307D01*
X77558052Y-125328325D01*
X77573649Y-125319786D01*
X77675724Y-125243285D01*
X77688285Y-125230724D01*
X77764786Y-125128649D01*
X77773324Y-125113054D01*
X77818478Y-124992606D01*
X77822105Y-124977351D01*
X77827631Y-124926486D01*
X77828000Y-124919672D01*
X77828000Y-124297115D01*
X77823525Y-124281876D01*
X77822135Y-124280671D01*
X77814452Y-124279000D01*
X75130116Y-124279000D01*
X75114877Y-124283475D01*
X75113672Y-124284865D01*
X75112001Y-124292548D01*
X75112001Y-124919669D01*
X75112371Y-124926490D01*
X75117895Y-124977352D01*
X75121521Y-124992604D01*
X75166676Y-125113054D01*
X75175214Y-125128649D01*
X75251715Y-125230724D01*
X75264276Y-125243285D01*
X75366351Y-125319786D01*
X75381946Y-125328324D01*
X75490827Y-125369142D01*
X75547591Y-125411784D01*
X75572291Y-125478345D01*
X75557083Y-125547694D01*
X75537691Y-125574175D01*
X75414200Y-125703401D01*
X75410629Y-125707138D01*
X75407715Y-125711410D01*
X75407714Y-125711411D01*
X75401732Y-125720181D01*
X75284743Y-125891680D01*
X75269003Y-125925590D01*
X75198353Y-126077793D01*
X75190688Y-126094305D01*
X75130989Y-126309570D01*
X75107251Y-126531695D01*
X73898000Y-126531695D01*
X73898000Y-121451695D01*
X75107251Y-121451695D01*
X75107548Y-121456848D01*
X75107548Y-121456851D01*
X75116118Y-121605475D01*
X75120110Y-121674715D01*
X75121247Y-121679761D01*
X75121248Y-121679767D01*
X75141119Y-121767939D01*
X75169222Y-121892639D01*
X75253266Y-122099616D01*
X75255965Y-122104020D01*
X75326825Y-122219653D01*
X75369987Y-122290088D01*
X75516250Y-122458938D01*
X75520225Y-122462238D01*
X75520231Y-122462244D01*
X75525425Y-122466556D01*
X75565059Y-122525460D01*
X75566555Y-122596441D01*
X75529439Y-122656962D01*
X75489168Y-122681480D01*
X75381946Y-122721676D01*
X75366351Y-122730214D01*
X75264276Y-122806715D01*
X75251715Y-122819276D01*
X75175214Y-122921351D01*
X75166676Y-122936946D01*
X75121522Y-123057394D01*
X75117895Y-123072649D01*
X75112369Y-123123514D01*
X75112000Y-123130328D01*
X75112000Y-123752885D01*
X75116475Y-123768124D01*
X75117865Y-123769329D01*
X75125548Y-123771000D01*
X77809884Y-123771000D01*
X77825123Y-123766525D01*
X77826328Y-123765135D01*
X77827999Y-123757452D01*
X77827999Y-123130331D01*
X77827629Y-123123510D01*
X77822105Y-123072648D01*
X77818479Y-123057396D01*
X77773324Y-122936946D01*
X77764786Y-122921351D01*
X77688285Y-122819276D01*
X77675724Y-122806715D01*
X77573649Y-122730214D01*
X77558054Y-122721676D01*
X77447813Y-122680348D01*
X77391049Y-122637706D01*
X77366349Y-122571145D01*
X77381557Y-122501796D01*
X77403104Y-122473115D01*
X77504430Y-122372144D01*
X77504440Y-122372132D01*
X77508096Y-122368489D01*
X77567594Y-122285689D01*
X77635435Y-122191277D01*
X77638453Y-122187077D01*
X77737430Y-121986811D01*
X77802370Y-121773069D01*
X77825156Y-121600000D01*
X120076693Y-121600000D01*
X120095885Y-121819371D01*
X120152880Y-122032076D01*
X120155205Y-122037061D01*
X120243618Y-122226666D01*
X120243621Y-122226671D01*
X120245944Y-122231653D01*
X120249100Y-122236160D01*
X120249101Y-122236162D01*
X120351563Y-122382492D01*
X120372251Y-122412038D01*
X120527962Y-122567749D01*
X120532471Y-122570906D01*
X120532473Y-122570908D01*
X120593466Y-122613616D01*
X120708346Y-122694056D01*
X120907924Y-122787120D01*
X121120629Y-122844115D01*
X121340000Y-122863307D01*
X121559371Y-122844115D01*
X121772076Y-122787120D01*
X121971654Y-122694056D01*
X122086534Y-122613616D01*
X122147527Y-122570908D01*
X122147529Y-122570906D01*
X122152038Y-122567749D01*
X122307749Y-122412038D01*
X122328438Y-122382492D01*
X122430899Y-122236162D01*
X122430900Y-122236160D01*
X122434056Y-122231653D01*
X122436379Y-122226671D01*
X122436382Y-122226666D01*
X122524795Y-122037061D01*
X122527120Y-122032076D01*
X122584115Y-121819371D01*
X122603307Y-121600000D01*
X122584115Y-121380629D01*
X122553258Y-121265469D01*
X122957095Y-121265469D01*
X122957392Y-121270622D01*
X122957392Y-121270625D01*
X122967536Y-121446562D01*
X122970427Y-121496697D01*
X122971564Y-121501743D01*
X122971565Y-121501749D01*
X122994941Y-121605475D01*
X123021346Y-121722642D01*
X123023288Y-121727424D01*
X123023289Y-121727428D01*
X123092318Y-121897425D01*
X123108484Y-121937237D01*
X123229501Y-122134719D01*
X123381147Y-122309784D01*
X123559349Y-122457730D01*
X123759322Y-122574584D01*
X123975694Y-122657209D01*
X123980760Y-122658240D01*
X123980761Y-122658240D01*
X124033846Y-122669040D01*
X124202656Y-122703385D01*
X124333324Y-122708176D01*
X124428949Y-122711683D01*
X124428953Y-122711683D01*
X124434113Y-122711872D01*
X124439233Y-122711216D01*
X124439235Y-122711216D01*
X124512270Y-122701860D01*
X124663847Y-122682442D01*
X124668795Y-122680957D01*
X124668802Y-122680956D01*
X124880747Y-122617369D01*
X124885690Y-122615886D01*
X124914786Y-122601632D01*
X125089049Y-122516262D01*
X125089052Y-122516260D01*
X125093684Y-122513991D01*
X125282243Y-122379494D01*
X125446303Y-122216005D01*
X125581458Y-122027917D01*
X125628641Y-121932450D01*
X125681784Y-121824922D01*
X125681785Y-121824920D01*
X125684078Y-121820280D01*
X125751408Y-121598671D01*
X125781640Y-121369041D01*
X125783327Y-121300000D01*
X125772905Y-121173235D01*
X125764773Y-121074318D01*
X125764772Y-121074312D01*
X125764349Y-121069167D01*
X125707925Y-120844533D01*
X125704429Y-120836492D01*
X125617630Y-120636868D01*
X125617628Y-120636865D01*
X125615570Y-120632131D01*
X125489764Y-120437665D01*
X125467212Y-120412880D01*
X125407357Y-120347101D01*
X125333887Y-120266358D01*
X125329836Y-120263159D01*
X125329832Y-120263155D01*
X125156177Y-120126011D01*
X125156172Y-120126008D01*
X125152123Y-120122810D01*
X125147607Y-120120317D01*
X125147604Y-120120315D01*
X124953879Y-120013373D01*
X124953875Y-120013371D01*
X124949355Y-120010876D01*
X124944486Y-120009152D01*
X124944482Y-120009150D01*
X124735903Y-119935288D01*
X124735899Y-119935287D01*
X124731028Y-119933562D01*
X124725935Y-119932655D01*
X124725932Y-119932654D01*
X124508095Y-119893851D01*
X124508089Y-119893850D01*
X124503006Y-119892945D01*
X124430096Y-119892054D01*
X124276581Y-119890179D01*
X124276579Y-119890179D01*
X124271411Y-119890116D01*
X124042464Y-119925150D01*
X123822314Y-119997106D01*
X123817726Y-119999494D01*
X123817722Y-119999496D01*
X123791065Y-120013373D01*
X123616872Y-120104052D01*
X123612739Y-120107155D01*
X123612736Y-120107157D01*
X123435790Y-120240012D01*
X123431655Y-120243117D01*
X123428083Y-120246855D01*
X123326840Y-120352800D01*
X123271639Y-120410564D01*
X123268725Y-120414836D01*
X123268724Y-120414837D01*
X123253152Y-120437665D01*
X123141119Y-120601899D01*
X123043602Y-120811981D01*
X122981707Y-121035169D01*
X122957095Y-121265469D01*
X122553258Y-121265469D01*
X122527120Y-121167924D01*
X122462897Y-121030197D01*
X122436382Y-120973334D01*
X122436379Y-120973329D01*
X122434056Y-120968347D01*
X122430899Y-120963838D01*
X122310908Y-120792473D01*
X122310906Y-120792470D01*
X122307749Y-120787962D01*
X122152038Y-120632251D01*
X122145672Y-120627793D01*
X122072759Y-120576739D01*
X121971654Y-120505944D01*
X121772076Y-120412880D01*
X121559371Y-120355885D01*
X121340000Y-120336693D01*
X121120629Y-120355885D01*
X120907924Y-120412880D01*
X120814562Y-120456415D01*
X120713334Y-120503618D01*
X120713329Y-120503621D01*
X120708347Y-120505944D01*
X120703840Y-120509100D01*
X120703838Y-120509101D01*
X120532473Y-120629092D01*
X120532470Y-120629094D01*
X120527962Y-120632251D01*
X120372251Y-120787962D01*
X120369094Y-120792470D01*
X120369092Y-120792473D01*
X120249101Y-120963838D01*
X120245944Y-120968347D01*
X120243621Y-120973329D01*
X120243618Y-120973334D01*
X120217103Y-121030197D01*
X120152880Y-121167924D01*
X120095885Y-121380629D01*
X120076693Y-121600000D01*
X77825156Y-121600000D01*
X77831529Y-121551590D01*
X77832870Y-121496697D01*
X77833074Y-121488365D01*
X77833074Y-121488361D01*
X77833156Y-121485000D01*
X77814852Y-121262361D01*
X77760431Y-121045702D01*
X77671354Y-120840840D01*
X77550014Y-120653277D01*
X77399670Y-120488051D01*
X77395619Y-120484852D01*
X77395615Y-120484848D01*
X77228414Y-120352800D01*
X77228410Y-120352798D01*
X77224359Y-120349598D01*
X77028789Y-120241638D01*
X77023920Y-120239914D01*
X77023916Y-120239912D01*
X76823087Y-120168795D01*
X76823083Y-120168794D01*
X76818212Y-120167069D01*
X76813119Y-120166162D01*
X76813116Y-120166161D01*
X76603373Y-120128800D01*
X76603367Y-120128799D01*
X76598284Y-120127894D01*
X76524452Y-120126992D01*
X76380081Y-120125228D01*
X76380079Y-120125228D01*
X76374911Y-120125165D01*
X76154091Y-120158955D01*
X75941756Y-120228357D01*
X75743607Y-120331507D01*
X75739474Y-120334610D01*
X75739471Y-120334612D01*
X75569100Y-120462530D01*
X75564965Y-120465635D01*
X75410629Y-120627138D01*
X75407715Y-120631410D01*
X75407714Y-120631411D01*
X75395404Y-120649457D01*
X75284743Y-120811680D01*
X75190688Y-121014305D01*
X75130989Y-121229570D01*
X75107251Y-121451695D01*
X73898000Y-121451695D01*
X73898000Y-115101695D01*
X74877251Y-115101695D01*
X74877548Y-115106848D01*
X74877548Y-115106851D01*
X74883011Y-115201590D01*
X74890110Y-115324715D01*
X74891247Y-115329761D01*
X74891248Y-115329767D01*
X74911119Y-115417939D01*
X74939222Y-115542639D01*
X75023266Y-115749616D01*
X75074019Y-115832438D01*
X75137291Y-115935688D01*
X75139987Y-115940088D01*
X75286250Y-116108938D01*
X75458126Y-116251632D01*
X75651000Y-116364338D01*
X75859692Y-116444030D01*
X75864760Y-116445061D01*
X75864763Y-116445062D01*
X75972017Y-116466883D01*
X76078597Y-116488567D01*
X76083772Y-116488757D01*
X76083774Y-116488757D01*
X76296673Y-116496564D01*
X76296677Y-116496564D01*
X76301837Y-116496753D01*
X76306957Y-116496097D01*
X76306959Y-116496097D01*
X76518288Y-116469025D01*
X76518289Y-116469025D01*
X76523416Y-116468368D01*
X76528366Y-116466883D01*
X76732429Y-116405661D01*
X76732434Y-116405659D01*
X76737384Y-116404174D01*
X76937994Y-116305896D01*
X77119860Y-116176173D01*
X77278096Y-116018489D01*
X77337594Y-115935689D01*
X77408453Y-115837077D01*
X77409776Y-115838028D01*
X77456645Y-115794857D01*
X77526580Y-115782625D01*
X77592026Y-115810144D01*
X77619875Y-115841994D01*
X77679987Y-115940088D01*
X77826250Y-116108938D01*
X77998126Y-116251632D01*
X78191000Y-116364338D01*
X78399692Y-116444030D01*
X78404760Y-116445061D01*
X78404763Y-116445062D01*
X78512017Y-116466883D01*
X78618597Y-116488567D01*
X78623772Y-116488757D01*
X78623774Y-116488757D01*
X78836673Y-116496564D01*
X78836677Y-116496564D01*
X78841837Y-116496753D01*
X78846957Y-116496097D01*
X78846959Y-116496097D01*
X79058288Y-116469025D01*
X79058289Y-116469025D01*
X79063416Y-116468368D01*
X79068366Y-116466883D01*
X79272429Y-116405661D01*
X79272434Y-116405659D01*
X79277384Y-116404174D01*
X79477994Y-116305896D01*
X79659860Y-116176173D01*
X79727331Y-116108938D01*
X79768479Y-116067933D01*
X79830851Y-116034017D01*
X79901658Y-116039205D01*
X79958419Y-116081851D01*
X79975401Y-116112954D01*
X80016676Y-116223054D01*
X80025214Y-116238649D01*
X80101715Y-116340724D01*
X80114276Y-116353285D01*
X80216351Y-116429786D01*
X80231946Y-116438324D01*
X80352394Y-116483478D01*
X80367649Y-116487105D01*
X80418514Y-116492631D01*
X80425328Y-116493000D01*
X81047885Y-116493000D01*
X81063124Y-116488525D01*
X81064329Y-116487135D01*
X81066000Y-116479452D01*
X81066000Y-116474884D01*
X81574000Y-116474884D01*
X81578475Y-116490123D01*
X81579865Y-116491328D01*
X81587548Y-116492999D01*
X82214669Y-116492999D01*
X82221490Y-116492629D01*
X82272352Y-116487105D01*
X82287604Y-116483479D01*
X82408054Y-116438324D01*
X82423649Y-116429786D01*
X82525724Y-116353285D01*
X82538285Y-116340724D01*
X82614786Y-116238649D01*
X82623324Y-116223054D01*
X82664225Y-116113952D01*
X82706867Y-116057188D01*
X82773428Y-116032488D01*
X82842777Y-116047696D01*
X82877444Y-116075684D01*
X82902865Y-116105031D01*
X82902869Y-116105035D01*
X82906250Y-116108938D01*
X83078126Y-116251632D01*
X83271000Y-116364338D01*
X83479692Y-116444030D01*
X83484760Y-116445061D01*
X83484763Y-116445062D01*
X83592017Y-116466883D01*
X83698597Y-116488567D01*
X83703772Y-116488757D01*
X83703774Y-116488757D01*
X83916673Y-116496564D01*
X83916677Y-116496564D01*
X83921837Y-116496753D01*
X83926957Y-116496097D01*
X83926959Y-116496097D01*
X84138288Y-116469025D01*
X84138289Y-116469025D01*
X84143416Y-116468368D01*
X84148366Y-116466883D01*
X84352429Y-116405661D01*
X84352434Y-116405659D01*
X84357384Y-116404174D01*
X84557994Y-116305896D01*
X84739860Y-116176173D01*
X84898096Y-116018489D01*
X84957594Y-115935689D01*
X85028453Y-115837077D01*
X85029776Y-115838028D01*
X85076645Y-115794857D01*
X85146580Y-115782625D01*
X85212026Y-115810144D01*
X85239875Y-115841994D01*
X85299987Y-115940088D01*
X85446250Y-116108938D01*
X85618126Y-116251632D01*
X85811000Y-116364338D01*
X86019692Y-116444030D01*
X86024760Y-116445061D01*
X86024763Y-116445062D01*
X86132017Y-116466883D01*
X86238597Y-116488567D01*
X86243772Y-116488757D01*
X86243774Y-116488757D01*
X86456673Y-116496564D01*
X86456677Y-116496564D01*
X86461837Y-116496753D01*
X86466957Y-116496097D01*
X86466959Y-116496097D01*
X86678288Y-116469025D01*
X86678289Y-116469025D01*
X86683416Y-116468368D01*
X86688366Y-116466883D01*
X86892429Y-116405661D01*
X86892434Y-116405659D01*
X86897384Y-116404174D01*
X87097994Y-116305896D01*
X87279860Y-116176173D01*
X87438096Y-116018489D01*
X87497594Y-115935689D01*
X87568453Y-115837077D01*
X87569776Y-115838028D01*
X87616645Y-115794857D01*
X87686580Y-115782625D01*
X87752026Y-115810144D01*
X87779875Y-115841994D01*
X87839987Y-115940088D01*
X87986250Y-116108938D01*
X88158126Y-116251632D01*
X88351000Y-116364338D01*
X88559692Y-116444030D01*
X88564760Y-116445061D01*
X88564763Y-116445062D01*
X88672017Y-116466883D01*
X88778597Y-116488567D01*
X88783772Y-116488757D01*
X88783774Y-116488757D01*
X88996673Y-116496564D01*
X88996677Y-116496564D01*
X89001837Y-116496753D01*
X89006957Y-116496097D01*
X89006959Y-116496097D01*
X89218288Y-116469025D01*
X89218289Y-116469025D01*
X89223416Y-116468368D01*
X89228366Y-116466883D01*
X89432429Y-116405661D01*
X89432434Y-116405659D01*
X89437384Y-116404174D01*
X89637994Y-116305896D01*
X89819860Y-116176173D01*
X89978096Y-116018489D01*
X90037594Y-115935689D01*
X90108453Y-115837077D01*
X90109776Y-115838028D01*
X90156645Y-115794857D01*
X90226580Y-115782625D01*
X90292026Y-115810144D01*
X90319875Y-115841994D01*
X90379987Y-115940088D01*
X90526250Y-116108938D01*
X90698126Y-116251632D01*
X90891000Y-116364338D01*
X91099692Y-116444030D01*
X91104760Y-116445061D01*
X91104763Y-116445062D01*
X91212017Y-116466883D01*
X91318597Y-116488567D01*
X91323772Y-116488757D01*
X91323774Y-116488757D01*
X91536673Y-116496564D01*
X91536677Y-116496564D01*
X91541837Y-116496753D01*
X91546957Y-116496097D01*
X91546959Y-116496097D01*
X91758288Y-116469025D01*
X91758289Y-116469025D01*
X91763416Y-116468368D01*
X91768366Y-116466883D01*
X91972429Y-116405661D01*
X91972434Y-116405659D01*
X91977384Y-116404174D01*
X92177994Y-116305896D01*
X92359860Y-116176173D01*
X92427331Y-116108938D01*
X92468479Y-116067933D01*
X92530851Y-116034017D01*
X92601658Y-116039205D01*
X92658419Y-116081851D01*
X92675401Y-116112954D01*
X92716676Y-116223054D01*
X92725214Y-116238649D01*
X92801715Y-116340724D01*
X92814276Y-116353285D01*
X92916351Y-116429786D01*
X92931946Y-116438324D01*
X93052394Y-116483478D01*
X93067649Y-116487105D01*
X93118514Y-116492631D01*
X93125328Y-116493000D01*
X93747885Y-116493000D01*
X93763124Y-116488525D01*
X93764329Y-116487135D01*
X93766000Y-116479452D01*
X93766000Y-116474884D01*
X94274000Y-116474884D01*
X94278475Y-116490123D01*
X94279865Y-116491328D01*
X94287548Y-116492999D01*
X94914669Y-116492999D01*
X94921490Y-116492629D01*
X94972352Y-116487105D01*
X94987604Y-116483479D01*
X95108054Y-116438324D01*
X95123649Y-116429786D01*
X95225724Y-116353285D01*
X95238285Y-116340724D01*
X95314786Y-116238649D01*
X95323324Y-116223054D01*
X95364225Y-116113952D01*
X95406867Y-116057188D01*
X95473428Y-116032488D01*
X95542777Y-116047696D01*
X95577444Y-116075684D01*
X95602865Y-116105031D01*
X95602869Y-116105035D01*
X95606250Y-116108938D01*
X95778126Y-116251632D01*
X95971000Y-116364338D01*
X96179692Y-116444030D01*
X96184760Y-116445061D01*
X96184763Y-116445062D01*
X96292017Y-116466883D01*
X96398597Y-116488567D01*
X96403772Y-116488757D01*
X96403774Y-116488757D01*
X96616673Y-116496564D01*
X96616677Y-116496564D01*
X96621837Y-116496753D01*
X96626957Y-116496097D01*
X96626959Y-116496097D01*
X96838288Y-116469025D01*
X96838289Y-116469025D01*
X96843416Y-116468368D01*
X96848366Y-116466883D01*
X97052429Y-116405661D01*
X97052434Y-116405659D01*
X97057384Y-116404174D01*
X97257994Y-116305896D01*
X97439860Y-116176173D01*
X97598096Y-116018489D01*
X97657594Y-115935689D01*
X97728453Y-115837077D01*
X97729776Y-115838028D01*
X97776645Y-115794857D01*
X97846580Y-115782625D01*
X97912026Y-115810144D01*
X97939875Y-115841994D01*
X97999987Y-115940088D01*
X98146250Y-116108938D01*
X98318126Y-116251632D01*
X98511000Y-116364338D01*
X98719692Y-116444030D01*
X98724760Y-116445061D01*
X98724763Y-116445062D01*
X98832017Y-116466883D01*
X98938597Y-116488567D01*
X98943772Y-116488757D01*
X98943774Y-116488757D01*
X99156673Y-116496564D01*
X99156677Y-116496564D01*
X99161837Y-116496753D01*
X99166957Y-116496097D01*
X99166959Y-116496097D01*
X99378288Y-116469025D01*
X99378289Y-116469025D01*
X99383416Y-116468368D01*
X99388366Y-116466883D01*
X99592429Y-116405661D01*
X99592434Y-116405659D01*
X99597384Y-116404174D01*
X99797994Y-116305896D01*
X99979860Y-116176173D01*
X100138096Y-116018489D01*
X100197594Y-115935689D01*
X100268453Y-115837077D01*
X100269776Y-115838028D01*
X100316645Y-115794857D01*
X100386580Y-115782625D01*
X100452026Y-115810144D01*
X100479875Y-115841994D01*
X100539987Y-115940088D01*
X100686250Y-116108938D01*
X100858126Y-116251632D01*
X101051000Y-116364338D01*
X101259692Y-116444030D01*
X101264760Y-116445061D01*
X101264763Y-116445062D01*
X101372017Y-116466883D01*
X101478597Y-116488567D01*
X101483772Y-116488757D01*
X101483774Y-116488757D01*
X101696673Y-116496564D01*
X101696677Y-116496564D01*
X101701837Y-116496753D01*
X101706957Y-116496097D01*
X101706959Y-116496097D01*
X101918288Y-116469025D01*
X101918289Y-116469025D01*
X101923416Y-116468368D01*
X101928366Y-116466883D01*
X102132429Y-116405661D01*
X102132434Y-116405659D01*
X102137384Y-116404174D01*
X102337994Y-116305896D01*
X102519860Y-116176173D01*
X102678096Y-116018489D01*
X102737594Y-115935689D01*
X102808453Y-115837077D01*
X102809776Y-115838028D01*
X102856645Y-115794857D01*
X102926580Y-115782625D01*
X102992026Y-115810144D01*
X103019875Y-115841994D01*
X103079987Y-115940088D01*
X103226250Y-116108938D01*
X103398126Y-116251632D01*
X103591000Y-116364338D01*
X103799692Y-116444030D01*
X103804760Y-116445061D01*
X103804763Y-116445062D01*
X103912017Y-116466883D01*
X104018597Y-116488567D01*
X104023772Y-116488757D01*
X104023774Y-116488757D01*
X104236673Y-116496564D01*
X104236677Y-116496564D01*
X104241837Y-116496753D01*
X104246957Y-116496097D01*
X104246959Y-116496097D01*
X104458288Y-116469025D01*
X104458289Y-116469025D01*
X104463416Y-116468368D01*
X104468366Y-116466883D01*
X104672429Y-116405661D01*
X104672434Y-116405659D01*
X104677384Y-116404174D01*
X104877994Y-116305896D01*
X105059860Y-116176173D01*
X105127331Y-116108938D01*
X105168479Y-116067933D01*
X105230851Y-116034017D01*
X105301658Y-116039205D01*
X105358419Y-116081851D01*
X105375401Y-116112954D01*
X105416676Y-116223054D01*
X105425214Y-116238649D01*
X105501715Y-116340724D01*
X105514276Y-116353285D01*
X105616351Y-116429786D01*
X105631946Y-116438324D01*
X105752394Y-116483478D01*
X105767649Y-116487105D01*
X105818514Y-116492631D01*
X105825328Y-116493000D01*
X106447885Y-116493000D01*
X106463124Y-116488525D01*
X106464329Y-116487135D01*
X106466000Y-116479452D01*
X106466000Y-116474884D01*
X106974000Y-116474884D01*
X106978475Y-116490123D01*
X106979865Y-116491328D01*
X106987548Y-116492999D01*
X107614669Y-116492999D01*
X107621490Y-116492629D01*
X107672352Y-116487105D01*
X107687604Y-116483479D01*
X107808054Y-116438324D01*
X107823649Y-116429786D01*
X107925724Y-116353285D01*
X107938285Y-116340724D01*
X108014786Y-116238649D01*
X108023324Y-116223054D01*
X108064225Y-116113952D01*
X108106867Y-116057188D01*
X108173428Y-116032488D01*
X108242777Y-116047696D01*
X108277444Y-116075684D01*
X108302865Y-116105031D01*
X108302869Y-116105035D01*
X108306250Y-116108938D01*
X108478126Y-116251632D01*
X108671000Y-116364338D01*
X108879692Y-116444030D01*
X108884760Y-116445061D01*
X108884763Y-116445062D01*
X108992017Y-116466883D01*
X109098597Y-116488567D01*
X109103772Y-116488757D01*
X109103774Y-116488757D01*
X109316673Y-116496564D01*
X109316677Y-116496564D01*
X109321837Y-116496753D01*
X109326957Y-116496097D01*
X109326959Y-116496097D01*
X109538288Y-116469025D01*
X109538289Y-116469025D01*
X109543416Y-116468368D01*
X109548366Y-116466883D01*
X109752429Y-116405661D01*
X109752434Y-116405659D01*
X109757384Y-116404174D01*
X109957994Y-116305896D01*
X110139860Y-116176173D01*
X110298096Y-116018489D01*
X110357594Y-115935689D01*
X110428453Y-115837077D01*
X110429776Y-115838028D01*
X110476645Y-115794857D01*
X110546580Y-115782625D01*
X110612026Y-115810144D01*
X110639875Y-115841994D01*
X110699987Y-115940088D01*
X110846250Y-116108938D01*
X111018126Y-116251632D01*
X111211000Y-116364338D01*
X111419692Y-116444030D01*
X111424760Y-116445061D01*
X111424763Y-116445062D01*
X111532017Y-116466883D01*
X111638597Y-116488567D01*
X111643772Y-116488757D01*
X111643774Y-116488757D01*
X111856673Y-116496564D01*
X111856677Y-116496564D01*
X111861837Y-116496753D01*
X111866957Y-116496097D01*
X111866959Y-116496097D01*
X112078288Y-116469025D01*
X112078289Y-116469025D01*
X112083416Y-116468368D01*
X112088366Y-116466883D01*
X112292429Y-116405661D01*
X112292434Y-116405659D01*
X112297384Y-116404174D01*
X112497994Y-116305896D01*
X112679860Y-116176173D01*
X112838096Y-116018489D01*
X112897594Y-115935689D01*
X112968453Y-115837077D01*
X112969776Y-115838028D01*
X113016645Y-115794857D01*
X113086580Y-115782625D01*
X113152026Y-115810144D01*
X113179875Y-115841994D01*
X113239987Y-115940088D01*
X113386250Y-116108938D01*
X113558126Y-116251632D01*
X113751000Y-116364338D01*
X113959692Y-116444030D01*
X113964760Y-116445061D01*
X113964763Y-116445062D01*
X114072017Y-116466883D01*
X114178597Y-116488567D01*
X114183772Y-116488757D01*
X114183774Y-116488757D01*
X114396673Y-116496564D01*
X114396677Y-116496564D01*
X114401837Y-116496753D01*
X114406957Y-116496097D01*
X114406959Y-116496097D01*
X114618288Y-116469025D01*
X114618289Y-116469025D01*
X114623416Y-116468368D01*
X114628366Y-116466883D01*
X114832429Y-116405661D01*
X114832434Y-116405659D01*
X114837384Y-116404174D01*
X115037994Y-116305896D01*
X115219860Y-116176173D01*
X115378096Y-116018489D01*
X115437594Y-115935689D01*
X115508453Y-115837077D01*
X115509776Y-115838028D01*
X115556645Y-115794857D01*
X115626580Y-115782625D01*
X115692026Y-115810144D01*
X115719875Y-115841994D01*
X115779987Y-115940088D01*
X115926250Y-116108938D01*
X116098126Y-116251632D01*
X116291000Y-116364338D01*
X116499692Y-116444030D01*
X116504760Y-116445061D01*
X116504763Y-116445062D01*
X116612017Y-116466883D01*
X116718597Y-116488567D01*
X116723772Y-116488757D01*
X116723774Y-116488757D01*
X116936673Y-116496564D01*
X116936677Y-116496564D01*
X116941837Y-116496753D01*
X116946957Y-116496097D01*
X116946959Y-116496097D01*
X117158288Y-116469025D01*
X117158289Y-116469025D01*
X117163416Y-116468368D01*
X117168366Y-116466883D01*
X117372429Y-116405661D01*
X117372434Y-116405659D01*
X117377384Y-116404174D01*
X117577994Y-116305896D01*
X117759860Y-116176173D01*
X117827331Y-116108938D01*
X117868479Y-116067933D01*
X117930851Y-116034017D01*
X118001658Y-116039205D01*
X118058419Y-116081851D01*
X118075401Y-116112954D01*
X118116676Y-116223054D01*
X118125214Y-116238649D01*
X118201715Y-116340724D01*
X118214276Y-116353285D01*
X118316351Y-116429786D01*
X118331946Y-116438324D01*
X118452394Y-116483478D01*
X118467649Y-116487105D01*
X118518514Y-116492631D01*
X118525328Y-116493000D01*
X119147885Y-116493000D01*
X119163124Y-116488525D01*
X119164329Y-116487135D01*
X119166000Y-116479452D01*
X119166000Y-116474884D01*
X119674000Y-116474884D01*
X119678475Y-116490123D01*
X119679865Y-116491328D01*
X119687548Y-116492999D01*
X120314669Y-116492999D01*
X120321490Y-116492629D01*
X120372352Y-116487105D01*
X120387604Y-116483479D01*
X120508054Y-116438324D01*
X120523649Y-116429786D01*
X120625724Y-116353285D01*
X120638285Y-116340724D01*
X120714786Y-116238649D01*
X120723324Y-116223054D01*
X120764225Y-116113952D01*
X120806867Y-116057188D01*
X120873428Y-116032488D01*
X120942777Y-116047696D01*
X120977444Y-116075684D01*
X121002865Y-116105031D01*
X121002869Y-116105035D01*
X121006250Y-116108938D01*
X121178126Y-116251632D01*
X121371000Y-116364338D01*
X121579692Y-116444030D01*
X121584760Y-116445061D01*
X121584763Y-116445062D01*
X121692017Y-116466883D01*
X121798597Y-116488567D01*
X121803772Y-116488757D01*
X121803774Y-116488757D01*
X122016673Y-116496564D01*
X122016677Y-116496564D01*
X122021837Y-116496753D01*
X122026957Y-116496097D01*
X122026959Y-116496097D01*
X122238288Y-116469025D01*
X122238289Y-116469025D01*
X122243416Y-116468368D01*
X122248366Y-116466883D01*
X122452429Y-116405661D01*
X122452434Y-116405659D01*
X122457384Y-116404174D01*
X122657994Y-116305896D01*
X122839860Y-116176173D01*
X122998096Y-116018489D01*
X123057594Y-115935689D01*
X123128453Y-115837077D01*
X123129776Y-115838028D01*
X123176645Y-115794857D01*
X123246580Y-115782625D01*
X123312026Y-115810144D01*
X123339875Y-115841994D01*
X123399987Y-115940088D01*
X123546250Y-116108938D01*
X123718126Y-116251632D01*
X123911000Y-116364338D01*
X124119692Y-116444030D01*
X124124760Y-116445061D01*
X124124763Y-116445062D01*
X124232017Y-116466883D01*
X124338597Y-116488567D01*
X124343772Y-116488757D01*
X124343774Y-116488757D01*
X124556673Y-116496564D01*
X124556677Y-116496564D01*
X124561837Y-116496753D01*
X124566957Y-116496097D01*
X124566959Y-116496097D01*
X124778288Y-116469025D01*
X124778289Y-116469025D01*
X124783416Y-116468368D01*
X124788366Y-116466883D01*
X124992429Y-116405661D01*
X124992434Y-116405659D01*
X124997384Y-116404174D01*
X125197994Y-116305896D01*
X125379860Y-116176173D01*
X125538096Y-116018489D01*
X125597594Y-115935689D01*
X125665435Y-115841277D01*
X125668453Y-115837077D01*
X125689320Y-115794857D01*
X125765136Y-115641453D01*
X125765137Y-115641451D01*
X125767430Y-115636811D01*
X125832370Y-115423069D01*
X125861529Y-115201590D01*
X125863156Y-115135000D01*
X125844852Y-114912361D01*
X125790431Y-114695702D01*
X125701354Y-114490840D01*
X125580014Y-114303277D01*
X125429670Y-114138051D01*
X125425619Y-114134852D01*
X125425615Y-114134848D01*
X125258414Y-114002800D01*
X125258410Y-114002798D01*
X125254359Y-113999598D01*
X125058789Y-113891638D01*
X125053920Y-113889914D01*
X125053916Y-113889912D01*
X124853087Y-113818795D01*
X124853083Y-113818794D01*
X124848212Y-113817069D01*
X124843119Y-113816162D01*
X124843116Y-113816161D01*
X124633373Y-113778800D01*
X124633367Y-113778799D01*
X124628284Y-113777894D01*
X124554452Y-113776992D01*
X124410081Y-113775228D01*
X124410079Y-113775228D01*
X124404911Y-113775165D01*
X124184091Y-113808955D01*
X123971756Y-113878357D01*
X123773607Y-113981507D01*
X123769474Y-113984610D01*
X123769471Y-113984612D01*
X123686450Y-114046946D01*
X123594965Y-114115635D01*
X123440629Y-114277138D01*
X123333201Y-114434621D01*
X123278293Y-114479621D01*
X123207768Y-114487792D01*
X123144021Y-114456538D01*
X123123324Y-114432054D01*
X123042822Y-114307617D01*
X123042820Y-114307614D01*
X123040014Y-114303277D01*
X122889670Y-114138051D01*
X122885619Y-114134852D01*
X122885615Y-114134848D01*
X122718414Y-114002800D01*
X122718410Y-114002798D01*
X122714359Y-113999598D01*
X122518789Y-113891638D01*
X122513920Y-113889914D01*
X122513916Y-113889912D01*
X122313087Y-113818795D01*
X122313083Y-113818794D01*
X122308212Y-113817069D01*
X122303119Y-113816162D01*
X122303116Y-113816161D01*
X122093373Y-113778800D01*
X122093367Y-113778799D01*
X122088284Y-113777894D01*
X122014452Y-113776992D01*
X121870081Y-113775228D01*
X121870079Y-113775228D01*
X121864911Y-113775165D01*
X121644091Y-113808955D01*
X121431756Y-113878357D01*
X121233607Y-113981507D01*
X121229474Y-113984610D01*
X121229471Y-113984612D01*
X121146450Y-114046946D01*
X121054965Y-114115635D01*
X121051393Y-114119373D01*
X120973898Y-114200466D01*
X120912374Y-114235895D01*
X120841462Y-114232438D01*
X120783676Y-114191192D01*
X120764823Y-114157644D01*
X120723324Y-114046946D01*
X120714786Y-114031351D01*
X120638285Y-113929276D01*
X120625724Y-113916715D01*
X120523649Y-113840214D01*
X120508054Y-113831676D01*
X120387606Y-113786522D01*
X120372351Y-113782895D01*
X120321486Y-113777369D01*
X120314672Y-113777000D01*
X119692115Y-113777000D01*
X119676876Y-113781475D01*
X119675671Y-113782865D01*
X119674000Y-113790548D01*
X119674000Y-116474884D01*
X119166000Y-116474884D01*
X119166000Y-113795116D01*
X119161525Y-113779877D01*
X119160135Y-113778672D01*
X119152452Y-113777001D01*
X118525331Y-113777001D01*
X118518510Y-113777371D01*
X118467648Y-113782895D01*
X118452396Y-113786521D01*
X118331946Y-113831676D01*
X118316351Y-113840214D01*
X118214276Y-113916715D01*
X118201715Y-113929276D01*
X118125214Y-114031351D01*
X118116676Y-114046946D01*
X118075297Y-114157322D01*
X118032655Y-114214087D01*
X117966093Y-114238786D01*
X117896744Y-114223578D01*
X117864121Y-114197891D01*
X117813151Y-114141876D01*
X117813145Y-114141870D01*
X117809670Y-114138051D01*
X117805619Y-114134852D01*
X117805615Y-114134848D01*
X117638414Y-114002800D01*
X117638410Y-114002798D01*
X117634359Y-113999598D01*
X117438789Y-113891638D01*
X117433920Y-113889914D01*
X117433916Y-113889912D01*
X117233087Y-113818795D01*
X117233083Y-113818794D01*
X117228212Y-113817069D01*
X117223119Y-113816162D01*
X117223116Y-113816161D01*
X117013373Y-113778800D01*
X117013367Y-113778799D01*
X117008284Y-113777894D01*
X116934452Y-113776992D01*
X116790081Y-113775228D01*
X116790079Y-113775228D01*
X116784911Y-113775165D01*
X116564091Y-113808955D01*
X116351756Y-113878357D01*
X116153607Y-113981507D01*
X116149474Y-113984610D01*
X116149471Y-113984612D01*
X116066450Y-114046946D01*
X115974965Y-114115635D01*
X115820629Y-114277138D01*
X115713201Y-114434621D01*
X115658293Y-114479621D01*
X115587768Y-114487792D01*
X115524021Y-114456538D01*
X115503324Y-114432054D01*
X115422822Y-114307617D01*
X115422820Y-114307614D01*
X115420014Y-114303277D01*
X115269670Y-114138051D01*
X115265619Y-114134852D01*
X115265615Y-114134848D01*
X115098414Y-114002800D01*
X115098410Y-114002798D01*
X115094359Y-113999598D01*
X114898789Y-113891638D01*
X114893920Y-113889914D01*
X114893916Y-113889912D01*
X114693087Y-113818795D01*
X114693083Y-113818794D01*
X114688212Y-113817069D01*
X114683119Y-113816162D01*
X114683116Y-113816161D01*
X114473373Y-113778800D01*
X114473367Y-113778799D01*
X114468284Y-113777894D01*
X114394452Y-113776992D01*
X114250081Y-113775228D01*
X114250079Y-113775228D01*
X114244911Y-113775165D01*
X114024091Y-113808955D01*
X113811756Y-113878357D01*
X113613607Y-113981507D01*
X113609474Y-113984610D01*
X113609471Y-113984612D01*
X113526450Y-114046946D01*
X113434965Y-114115635D01*
X113280629Y-114277138D01*
X113173201Y-114434621D01*
X113118293Y-114479621D01*
X113047768Y-114487792D01*
X112984021Y-114456538D01*
X112963324Y-114432054D01*
X112882822Y-114307617D01*
X112882820Y-114307614D01*
X112880014Y-114303277D01*
X112729670Y-114138051D01*
X112725619Y-114134852D01*
X112725615Y-114134848D01*
X112558414Y-114002800D01*
X112558410Y-114002798D01*
X112554359Y-113999598D01*
X112358789Y-113891638D01*
X112353920Y-113889914D01*
X112353916Y-113889912D01*
X112153087Y-113818795D01*
X112153083Y-113818794D01*
X112148212Y-113817069D01*
X112143119Y-113816162D01*
X112143116Y-113816161D01*
X111933373Y-113778800D01*
X111933367Y-113778799D01*
X111928284Y-113777894D01*
X111854452Y-113776992D01*
X111710081Y-113775228D01*
X111710079Y-113775228D01*
X111704911Y-113775165D01*
X111484091Y-113808955D01*
X111271756Y-113878357D01*
X111073607Y-113981507D01*
X111069474Y-113984610D01*
X111069471Y-113984612D01*
X110986450Y-114046946D01*
X110894965Y-114115635D01*
X110740629Y-114277138D01*
X110633201Y-114434621D01*
X110578293Y-114479621D01*
X110507768Y-114487792D01*
X110444021Y-114456538D01*
X110423324Y-114432054D01*
X110342822Y-114307617D01*
X110342820Y-114307614D01*
X110340014Y-114303277D01*
X110189670Y-114138051D01*
X110185619Y-114134852D01*
X110185615Y-114134848D01*
X110018414Y-114002800D01*
X110018410Y-114002798D01*
X110014359Y-113999598D01*
X109818789Y-113891638D01*
X109813920Y-113889914D01*
X109813916Y-113889912D01*
X109613087Y-113818795D01*
X109613083Y-113818794D01*
X109608212Y-113817069D01*
X109603119Y-113816162D01*
X109603116Y-113816161D01*
X109393373Y-113778800D01*
X109393367Y-113778799D01*
X109388284Y-113777894D01*
X109314452Y-113776992D01*
X109170081Y-113775228D01*
X109170079Y-113775228D01*
X109164911Y-113775165D01*
X108944091Y-113808955D01*
X108731756Y-113878357D01*
X108533607Y-113981507D01*
X108529474Y-113984610D01*
X108529471Y-113984612D01*
X108446450Y-114046946D01*
X108354965Y-114115635D01*
X108351393Y-114119373D01*
X108273898Y-114200466D01*
X108212374Y-114235895D01*
X108141462Y-114232438D01*
X108083676Y-114191192D01*
X108064823Y-114157644D01*
X108023324Y-114046946D01*
X108014786Y-114031351D01*
X107938285Y-113929276D01*
X107925724Y-113916715D01*
X107823649Y-113840214D01*
X107808054Y-113831676D01*
X107687606Y-113786522D01*
X107672351Y-113782895D01*
X107621486Y-113777369D01*
X107614672Y-113777000D01*
X106992115Y-113777000D01*
X106976876Y-113781475D01*
X106975671Y-113782865D01*
X106974000Y-113790548D01*
X106974000Y-116474884D01*
X106466000Y-116474884D01*
X106466000Y-113795116D01*
X106461525Y-113779877D01*
X106460135Y-113778672D01*
X106452452Y-113777001D01*
X105825331Y-113777001D01*
X105818510Y-113777371D01*
X105767648Y-113782895D01*
X105752396Y-113786521D01*
X105631946Y-113831676D01*
X105616351Y-113840214D01*
X105514276Y-113916715D01*
X105501715Y-113929276D01*
X105425214Y-114031351D01*
X105416676Y-114046946D01*
X105375297Y-114157322D01*
X105332655Y-114214087D01*
X105266093Y-114238786D01*
X105196744Y-114223578D01*
X105164121Y-114197891D01*
X105113151Y-114141876D01*
X105113145Y-114141870D01*
X105109670Y-114138051D01*
X105105619Y-114134852D01*
X105105615Y-114134848D01*
X104938414Y-114002800D01*
X104938410Y-114002798D01*
X104934359Y-113999598D01*
X104738789Y-113891638D01*
X104733920Y-113889914D01*
X104733916Y-113889912D01*
X104533087Y-113818795D01*
X104533083Y-113818794D01*
X104528212Y-113817069D01*
X104523119Y-113816162D01*
X104523116Y-113816161D01*
X104313373Y-113778800D01*
X104313367Y-113778799D01*
X104308284Y-113777894D01*
X104234452Y-113776992D01*
X104090081Y-113775228D01*
X104090079Y-113775228D01*
X104084911Y-113775165D01*
X103864091Y-113808955D01*
X103651756Y-113878357D01*
X103453607Y-113981507D01*
X103449474Y-113984610D01*
X103449471Y-113984612D01*
X103366450Y-114046946D01*
X103274965Y-114115635D01*
X103120629Y-114277138D01*
X103013201Y-114434621D01*
X102958293Y-114479621D01*
X102887768Y-114487792D01*
X102824021Y-114456538D01*
X102803324Y-114432054D01*
X102722822Y-114307617D01*
X102722820Y-114307614D01*
X102720014Y-114303277D01*
X102569670Y-114138051D01*
X102565619Y-114134852D01*
X102565615Y-114134848D01*
X102398414Y-114002800D01*
X102398410Y-114002798D01*
X102394359Y-113999598D01*
X102198789Y-113891638D01*
X102193920Y-113889914D01*
X102193916Y-113889912D01*
X101993087Y-113818795D01*
X101993083Y-113818794D01*
X101988212Y-113817069D01*
X101983119Y-113816162D01*
X101983116Y-113816161D01*
X101773373Y-113778800D01*
X101773367Y-113778799D01*
X101768284Y-113777894D01*
X101694452Y-113776992D01*
X101550081Y-113775228D01*
X101550079Y-113775228D01*
X101544911Y-113775165D01*
X101324091Y-113808955D01*
X101111756Y-113878357D01*
X100913607Y-113981507D01*
X100909474Y-113984610D01*
X100909471Y-113984612D01*
X100826450Y-114046946D01*
X100734965Y-114115635D01*
X100580629Y-114277138D01*
X100473201Y-114434621D01*
X100418293Y-114479621D01*
X100347768Y-114487792D01*
X100284021Y-114456538D01*
X100263324Y-114432054D01*
X100182822Y-114307617D01*
X100182820Y-114307614D01*
X100180014Y-114303277D01*
X100029670Y-114138051D01*
X100025619Y-114134852D01*
X100025615Y-114134848D01*
X99858414Y-114002800D01*
X99858410Y-114002798D01*
X99854359Y-113999598D01*
X99658789Y-113891638D01*
X99653920Y-113889914D01*
X99653916Y-113889912D01*
X99453087Y-113818795D01*
X99453083Y-113818794D01*
X99448212Y-113817069D01*
X99443119Y-113816162D01*
X99443116Y-113816161D01*
X99233373Y-113778800D01*
X99233367Y-113778799D01*
X99228284Y-113777894D01*
X99154452Y-113776992D01*
X99010081Y-113775228D01*
X99010079Y-113775228D01*
X99004911Y-113775165D01*
X98784091Y-113808955D01*
X98571756Y-113878357D01*
X98373607Y-113981507D01*
X98369474Y-113984610D01*
X98369471Y-113984612D01*
X98286450Y-114046946D01*
X98194965Y-114115635D01*
X98040629Y-114277138D01*
X97933201Y-114434621D01*
X97878293Y-114479621D01*
X97807768Y-114487792D01*
X97744021Y-114456538D01*
X97723324Y-114432054D01*
X97642822Y-114307617D01*
X97642820Y-114307614D01*
X97640014Y-114303277D01*
X97489670Y-114138051D01*
X97485619Y-114134852D01*
X97485615Y-114134848D01*
X97318414Y-114002800D01*
X97318410Y-114002798D01*
X97314359Y-113999598D01*
X97118789Y-113891638D01*
X97113920Y-113889914D01*
X97113916Y-113889912D01*
X96913087Y-113818795D01*
X96913083Y-113818794D01*
X96908212Y-113817069D01*
X96903119Y-113816162D01*
X96903116Y-113816161D01*
X96693373Y-113778800D01*
X96693367Y-113778799D01*
X96688284Y-113777894D01*
X96614452Y-113776992D01*
X96470081Y-113775228D01*
X96470079Y-113775228D01*
X96464911Y-113775165D01*
X96244091Y-113808955D01*
X96031756Y-113878357D01*
X95833607Y-113981507D01*
X95829474Y-113984610D01*
X95829471Y-113984612D01*
X95746450Y-114046946D01*
X95654965Y-114115635D01*
X95651393Y-114119373D01*
X95573898Y-114200466D01*
X95512374Y-114235895D01*
X95441462Y-114232438D01*
X95383676Y-114191192D01*
X95364823Y-114157644D01*
X95323324Y-114046946D01*
X95314786Y-114031351D01*
X95238285Y-113929276D01*
X95225724Y-113916715D01*
X95123649Y-113840214D01*
X95108054Y-113831676D01*
X94987606Y-113786522D01*
X94972351Y-113782895D01*
X94921486Y-113777369D01*
X94914672Y-113777000D01*
X94292115Y-113777000D01*
X94276876Y-113781475D01*
X94275671Y-113782865D01*
X94274000Y-113790548D01*
X94274000Y-116474884D01*
X93766000Y-116474884D01*
X93766000Y-113795116D01*
X93761525Y-113779877D01*
X93760135Y-113778672D01*
X93752452Y-113777001D01*
X93125331Y-113777001D01*
X93118510Y-113777371D01*
X93067648Y-113782895D01*
X93052396Y-113786521D01*
X92931946Y-113831676D01*
X92916351Y-113840214D01*
X92814276Y-113916715D01*
X92801715Y-113929276D01*
X92725214Y-114031351D01*
X92716676Y-114046946D01*
X92675297Y-114157322D01*
X92632655Y-114214087D01*
X92566093Y-114238786D01*
X92496744Y-114223578D01*
X92464121Y-114197891D01*
X92413151Y-114141876D01*
X92413145Y-114141870D01*
X92409670Y-114138051D01*
X92405619Y-114134852D01*
X92405615Y-114134848D01*
X92238414Y-114002800D01*
X92238410Y-114002798D01*
X92234359Y-113999598D01*
X92038789Y-113891638D01*
X92033920Y-113889914D01*
X92033916Y-113889912D01*
X91833087Y-113818795D01*
X91833083Y-113818794D01*
X91828212Y-113817069D01*
X91823119Y-113816162D01*
X91823116Y-113816161D01*
X91613373Y-113778800D01*
X91613367Y-113778799D01*
X91608284Y-113777894D01*
X91534452Y-113776992D01*
X91390081Y-113775228D01*
X91390079Y-113775228D01*
X91384911Y-113775165D01*
X91164091Y-113808955D01*
X90951756Y-113878357D01*
X90753607Y-113981507D01*
X90749474Y-113984610D01*
X90749471Y-113984612D01*
X90666450Y-114046946D01*
X90574965Y-114115635D01*
X90420629Y-114277138D01*
X90313201Y-114434621D01*
X90258293Y-114479621D01*
X90187768Y-114487792D01*
X90124021Y-114456538D01*
X90103324Y-114432054D01*
X90022822Y-114307617D01*
X90022820Y-114307614D01*
X90020014Y-114303277D01*
X89869670Y-114138051D01*
X89865619Y-114134852D01*
X89865615Y-114134848D01*
X89698414Y-114002800D01*
X89698410Y-114002798D01*
X89694359Y-113999598D01*
X89498789Y-113891638D01*
X89493920Y-113889914D01*
X89493916Y-113889912D01*
X89293087Y-113818795D01*
X89293083Y-113818794D01*
X89288212Y-113817069D01*
X89283119Y-113816162D01*
X89283116Y-113816161D01*
X89073373Y-113778800D01*
X89073367Y-113778799D01*
X89068284Y-113777894D01*
X88994452Y-113776992D01*
X88850081Y-113775228D01*
X88850079Y-113775228D01*
X88844911Y-113775165D01*
X88624091Y-113808955D01*
X88411756Y-113878357D01*
X88213607Y-113981507D01*
X88209474Y-113984610D01*
X88209471Y-113984612D01*
X88126450Y-114046946D01*
X88034965Y-114115635D01*
X87880629Y-114277138D01*
X87773201Y-114434621D01*
X87718293Y-114479621D01*
X87647768Y-114487792D01*
X87584021Y-114456538D01*
X87563324Y-114432054D01*
X87482822Y-114307617D01*
X87482820Y-114307614D01*
X87480014Y-114303277D01*
X87329670Y-114138051D01*
X87325619Y-114134852D01*
X87325615Y-114134848D01*
X87158414Y-114002800D01*
X87158410Y-114002798D01*
X87154359Y-113999598D01*
X86958789Y-113891638D01*
X86953920Y-113889914D01*
X86953916Y-113889912D01*
X86753087Y-113818795D01*
X86753083Y-113818794D01*
X86748212Y-113817069D01*
X86743119Y-113816162D01*
X86743116Y-113816161D01*
X86533373Y-113778800D01*
X86533367Y-113778799D01*
X86528284Y-113777894D01*
X86454452Y-113776992D01*
X86310081Y-113775228D01*
X86310079Y-113775228D01*
X86304911Y-113775165D01*
X86084091Y-113808955D01*
X85871756Y-113878357D01*
X85673607Y-113981507D01*
X85669474Y-113984610D01*
X85669471Y-113984612D01*
X85586450Y-114046946D01*
X85494965Y-114115635D01*
X85340629Y-114277138D01*
X85233201Y-114434621D01*
X85178293Y-114479621D01*
X85107768Y-114487792D01*
X85044021Y-114456538D01*
X85023324Y-114432054D01*
X84942822Y-114307617D01*
X84942820Y-114307614D01*
X84940014Y-114303277D01*
X84789670Y-114138051D01*
X84785619Y-114134852D01*
X84785615Y-114134848D01*
X84618414Y-114002800D01*
X84618410Y-114002798D01*
X84614359Y-113999598D01*
X84418789Y-113891638D01*
X84413920Y-113889914D01*
X84413916Y-113889912D01*
X84213087Y-113818795D01*
X84213083Y-113818794D01*
X84208212Y-113817069D01*
X84203119Y-113816162D01*
X84203116Y-113816161D01*
X83993373Y-113778800D01*
X83993367Y-113778799D01*
X83988284Y-113777894D01*
X83914452Y-113776992D01*
X83770081Y-113775228D01*
X83770079Y-113775228D01*
X83764911Y-113775165D01*
X83544091Y-113808955D01*
X83331756Y-113878357D01*
X83133607Y-113981507D01*
X83129474Y-113984610D01*
X83129471Y-113984612D01*
X83046450Y-114046946D01*
X82954965Y-114115635D01*
X82951393Y-114119373D01*
X82873898Y-114200466D01*
X82812374Y-114235895D01*
X82741462Y-114232438D01*
X82683676Y-114191192D01*
X82664823Y-114157644D01*
X82623324Y-114046946D01*
X82614786Y-114031351D01*
X82538285Y-113929276D01*
X82525724Y-113916715D01*
X82423649Y-113840214D01*
X82408054Y-113831676D01*
X82287606Y-113786522D01*
X82272351Y-113782895D01*
X82221486Y-113777369D01*
X82214672Y-113777000D01*
X81592115Y-113777000D01*
X81576876Y-113781475D01*
X81575671Y-113782865D01*
X81574000Y-113790548D01*
X81574000Y-116474884D01*
X81066000Y-116474884D01*
X81066000Y-113795116D01*
X81061525Y-113779877D01*
X81060135Y-113778672D01*
X81052452Y-113777001D01*
X80425331Y-113777001D01*
X80418510Y-113777371D01*
X80367648Y-113782895D01*
X80352396Y-113786521D01*
X80231946Y-113831676D01*
X80216351Y-113840214D01*
X80114276Y-113916715D01*
X80101715Y-113929276D01*
X80025214Y-114031351D01*
X80016676Y-114046946D01*
X79975297Y-114157322D01*
X79932655Y-114214087D01*
X79866093Y-114238786D01*
X79796744Y-114223578D01*
X79764121Y-114197891D01*
X79713151Y-114141876D01*
X79713145Y-114141870D01*
X79709670Y-114138051D01*
X79705619Y-114134852D01*
X79705615Y-114134848D01*
X79538414Y-114002800D01*
X79538410Y-114002798D01*
X79534359Y-113999598D01*
X79338789Y-113891638D01*
X79333920Y-113889914D01*
X79333916Y-113889912D01*
X79133087Y-113818795D01*
X79133083Y-113818794D01*
X79128212Y-113817069D01*
X79123119Y-113816162D01*
X79123116Y-113816161D01*
X78913373Y-113778800D01*
X78913367Y-113778799D01*
X78908284Y-113777894D01*
X78834452Y-113776992D01*
X78690081Y-113775228D01*
X78690079Y-113775228D01*
X78684911Y-113775165D01*
X78464091Y-113808955D01*
X78251756Y-113878357D01*
X78053607Y-113981507D01*
X78049474Y-113984610D01*
X78049471Y-113984612D01*
X77966450Y-114046946D01*
X77874965Y-114115635D01*
X77720629Y-114277138D01*
X77613201Y-114434621D01*
X77558293Y-114479621D01*
X77487768Y-114487792D01*
X77424021Y-114456538D01*
X77403324Y-114432054D01*
X77322822Y-114307617D01*
X77322820Y-114307614D01*
X77320014Y-114303277D01*
X77169670Y-114138051D01*
X77165619Y-114134852D01*
X77165615Y-114134848D01*
X76998414Y-114002800D01*
X76998410Y-114002798D01*
X76994359Y-113999598D01*
X76798789Y-113891638D01*
X76793920Y-113889914D01*
X76793916Y-113889912D01*
X76593087Y-113818795D01*
X76593083Y-113818794D01*
X76588212Y-113817069D01*
X76583119Y-113816162D01*
X76583116Y-113816161D01*
X76373373Y-113778800D01*
X76373367Y-113778799D01*
X76368284Y-113777894D01*
X76294452Y-113776992D01*
X76150081Y-113775228D01*
X76150079Y-113775228D01*
X76144911Y-113775165D01*
X75924091Y-113808955D01*
X75711756Y-113878357D01*
X75513607Y-113981507D01*
X75509474Y-113984610D01*
X75509471Y-113984612D01*
X75426450Y-114046946D01*
X75334965Y-114115635D01*
X75180629Y-114277138D01*
X75054743Y-114461680D01*
X74960688Y-114664305D01*
X74900989Y-114879570D01*
X74877251Y-115101695D01*
X73898000Y-115101695D01*
X73898000Y-111323134D01*
X74866500Y-111323134D01*
X74873255Y-111385316D01*
X74924385Y-111521705D01*
X75011739Y-111638261D01*
X75128295Y-111725615D01*
X75264684Y-111776745D01*
X75326866Y-111783500D01*
X77123134Y-111783500D01*
X77185316Y-111776745D01*
X77321705Y-111725615D01*
X77438261Y-111638261D01*
X77525615Y-111521705D01*
X77547799Y-111462529D01*
X77569598Y-111404382D01*
X77612240Y-111347618D01*
X77678802Y-111322918D01*
X77748150Y-111338126D01*
X77782817Y-111366114D01*
X77811250Y-111398938D01*
X77983126Y-111541632D01*
X78176000Y-111654338D01*
X78384692Y-111734030D01*
X78389760Y-111735061D01*
X78389763Y-111735062D01*
X78484862Y-111754410D01*
X78603597Y-111778567D01*
X78608772Y-111778757D01*
X78608774Y-111778757D01*
X78821673Y-111786564D01*
X78821677Y-111786564D01*
X78826837Y-111786753D01*
X78831957Y-111786097D01*
X78831959Y-111786097D01*
X79043288Y-111759025D01*
X79043289Y-111759025D01*
X79048416Y-111758368D01*
X79053366Y-111756883D01*
X79257429Y-111695661D01*
X79257434Y-111695659D01*
X79262384Y-111694174D01*
X79462994Y-111595896D01*
X79644860Y-111466173D01*
X79803096Y-111308489D01*
X79933453Y-111127077D01*
X79934640Y-111127930D01*
X79981960Y-111084362D01*
X80051897Y-111072145D01*
X80117338Y-111099678D01*
X80145166Y-111131511D01*
X80202694Y-111225388D01*
X80208777Y-111233699D01*
X80348213Y-111394667D01*
X80355580Y-111401883D01*
X80519434Y-111537916D01*
X80527881Y-111543831D01*
X80711756Y-111651279D01*
X80721042Y-111655729D01*
X80920001Y-111731703D01*
X80929899Y-111734579D01*
X81033250Y-111755606D01*
X81047299Y-111754410D01*
X81051000Y-111744065D01*
X81051000Y-111743517D01*
X81559000Y-111743517D01*
X81563064Y-111757359D01*
X81576478Y-111759393D01*
X81583184Y-111758534D01*
X81593262Y-111756392D01*
X81797255Y-111695191D01*
X81806842Y-111691433D01*
X81998095Y-111597739D01*
X82006945Y-111592464D01*
X82180328Y-111468792D01*
X82188200Y-111462139D01*
X82339052Y-111311812D01*
X82345730Y-111303965D01*
X82473022Y-111126819D01*
X82474279Y-111127722D01*
X82521373Y-111084362D01*
X82591311Y-111072145D01*
X82656751Y-111099678D01*
X82684579Y-111131511D01*
X82744987Y-111230088D01*
X82891250Y-111398938D01*
X83063126Y-111541632D01*
X83256000Y-111654338D01*
X83464692Y-111734030D01*
X83469760Y-111735061D01*
X83469763Y-111735062D01*
X83564862Y-111754410D01*
X83683597Y-111778567D01*
X83688772Y-111778757D01*
X83688774Y-111778757D01*
X83901673Y-111786564D01*
X83901677Y-111786564D01*
X83906837Y-111786753D01*
X83911957Y-111786097D01*
X83911959Y-111786097D01*
X84123288Y-111759025D01*
X84123289Y-111759025D01*
X84128416Y-111758368D01*
X84133366Y-111756883D01*
X84337429Y-111695661D01*
X84337434Y-111695659D01*
X84342384Y-111694174D01*
X84542994Y-111595896D01*
X84724860Y-111466173D01*
X84883096Y-111308489D01*
X85013453Y-111127077D01*
X85014776Y-111128028D01*
X85061645Y-111084857D01*
X85131580Y-111072625D01*
X85197026Y-111100144D01*
X85224875Y-111131994D01*
X85284987Y-111230088D01*
X85431250Y-111398938D01*
X85603126Y-111541632D01*
X85796000Y-111654338D01*
X86004692Y-111734030D01*
X86009760Y-111735061D01*
X86009763Y-111735062D01*
X86104862Y-111754410D01*
X86223597Y-111778567D01*
X86228772Y-111778757D01*
X86228774Y-111778757D01*
X86441673Y-111786564D01*
X86441677Y-111786564D01*
X86446837Y-111786753D01*
X86451957Y-111786097D01*
X86451959Y-111786097D01*
X86663288Y-111759025D01*
X86663289Y-111759025D01*
X86668416Y-111758368D01*
X86673366Y-111756883D01*
X86877429Y-111695661D01*
X86877434Y-111695659D01*
X86882384Y-111694174D01*
X87082994Y-111595896D01*
X87264860Y-111466173D01*
X87423096Y-111308489D01*
X87553453Y-111127077D01*
X87554776Y-111128028D01*
X87601645Y-111084857D01*
X87671580Y-111072625D01*
X87737026Y-111100144D01*
X87764875Y-111131994D01*
X87824987Y-111230088D01*
X87971250Y-111398938D01*
X88143126Y-111541632D01*
X88336000Y-111654338D01*
X88544692Y-111734030D01*
X88549760Y-111735061D01*
X88549763Y-111735062D01*
X88644862Y-111754410D01*
X88763597Y-111778567D01*
X88768772Y-111778757D01*
X88768774Y-111778757D01*
X88981673Y-111786564D01*
X88981677Y-111786564D01*
X88986837Y-111786753D01*
X88991957Y-111786097D01*
X88991959Y-111786097D01*
X89203288Y-111759025D01*
X89203289Y-111759025D01*
X89208416Y-111758368D01*
X89213366Y-111756883D01*
X89417429Y-111695661D01*
X89417434Y-111695659D01*
X89422384Y-111694174D01*
X89622994Y-111595896D01*
X89804860Y-111466173D01*
X89963096Y-111308489D01*
X90093453Y-111127077D01*
X90094776Y-111128028D01*
X90141645Y-111084857D01*
X90211580Y-111072625D01*
X90277026Y-111100144D01*
X90304875Y-111131994D01*
X90364987Y-111230088D01*
X90511250Y-111398938D01*
X90683126Y-111541632D01*
X90876000Y-111654338D01*
X91084692Y-111734030D01*
X91089760Y-111735061D01*
X91089763Y-111735062D01*
X91184862Y-111754410D01*
X91303597Y-111778567D01*
X91308772Y-111778757D01*
X91308774Y-111778757D01*
X91521673Y-111786564D01*
X91521677Y-111786564D01*
X91526837Y-111786753D01*
X91531957Y-111786097D01*
X91531959Y-111786097D01*
X91743288Y-111759025D01*
X91743289Y-111759025D01*
X91748416Y-111758368D01*
X91753366Y-111756883D01*
X91957429Y-111695661D01*
X91957434Y-111695659D01*
X91962384Y-111694174D01*
X92162994Y-111595896D01*
X92344860Y-111466173D01*
X92503096Y-111308489D01*
X92633453Y-111127077D01*
X92634640Y-111127930D01*
X92681960Y-111084362D01*
X92751897Y-111072145D01*
X92817338Y-111099678D01*
X92845166Y-111131511D01*
X92902694Y-111225388D01*
X92908777Y-111233699D01*
X93048213Y-111394667D01*
X93055580Y-111401883D01*
X93219434Y-111537916D01*
X93227881Y-111543831D01*
X93411756Y-111651279D01*
X93421042Y-111655729D01*
X93620001Y-111731703D01*
X93629899Y-111734579D01*
X93733250Y-111755606D01*
X93747299Y-111754410D01*
X93751000Y-111744065D01*
X93751000Y-111743517D01*
X94259000Y-111743517D01*
X94263064Y-111757359D01*
X94276478Y-111759393D01*
X94283184Y-111758534D01*
X94293262Y-111756392D01*
X94497255Y-111695191D01*
X94506842Y-111691433D01*
X94698095Y-111597739D01*
X94706945Y-111592464D01*
X94880328Y-111468792D01*
X94888200Y-111462139D01*
X95039052Y-111311812D01*
X95045730Y-111303965D01*
X95173022Y-111126819D01*
X95174279Y-111127722D01*
X95221373Y-111084362D01*
X95291311Y-111072145D01*
X95356751Y-111099678D01*
X95384579Y-111131511D01*
X95444987Y-111230088D01*
X95591250Y-111398938D01*
X95763126Y-111541632D01*
X95956000Y-111654338D01*
X96164692Y-111734030D01*
X96169760Y-111735061D01*
X96169763Y-111735062D01*
X96264862Y-111754410D01*
X96383597Y-111778567D01*
X96388772Y-111778757D01*
X96388774Y-111778757D01*
X96601673Y-111786564D01*
X96601677Y-111786564D01*
X96606837Y-111786753D01*
X96611957Y-111786097D01*
X96611959Y-111786097D01*
X96823288Y-111759025D01*
X96823289Y-111759025D01*
X96828416Y-111758368D01*
X96833366Y-111756883D01*
X97037429Y-111695661D01*
X97037434Y-111695659D01*
X97042384Y-111694174D01*
X97242994Y-111595896D01*
X97424860Y-111466173D01*
X97583096Y-111308489D01*
X97713453Y-111127077D01*
X97714776Y-111128028D01*
X97761645Y-111084857D01*
X97831580Y-111072625D01*
X97897026Y-111100144D01*
X97924875Y-111131994D01*
X97984987Y-111230088D01*
X98131250Y-111398938D01*
X98303126Y-111541632D01*
X98496000Y-111654338D01*
X98704692Y-111734030D01*
X98709760Y-111735061D01*
X98709763Y-111735062D01*
X98804862Y-111754410D01*
X98923597Y-111778567D01*
X98928772Y-111778757D01*
X98928774Y-111778757D01*
X99141673Y-111786564D01*
X99141677Y-111786564D01*
X99146837Y-111786753D01*
X99151957Y-111786097D01*
X99151959Y-111786097D01*
X99363288Y-111759025D01*
X99363289Y-111759025D01*
X99368416Y-111758368D01*
X99373366Y-111756883D01*
X99577429Y-111695661D01*
X99577434Y-111695659D01*
X99582384Y-111694174D01*
X99782994Y-111595896D01*
X99964860Y-111466173D01*
X100123096Y-111308489D01*
X100253453Y-111127077D01*
X100254776Y-111128028D01*
X100301645Y-111084857D01*
X100371580Y-111072625D01*
X100437026Y-111100144D01*
X100464875Y-111131994D01*
X100524987Y-111230088D01*
X100671250Y-111398938D01*
X100843126Y-111541632D01*
X101036000Y-111654338D01*
X101244692Y-111734030D01*
X101249760Y-111735061D01*
X101249763Y-111735062D01*
X101344862Y-111754410D01*
X101463597Y-111778567D01*
X101468772Y-111778757D01*
X101468774Y-111778757D01*
X101681673Y-111786564D01*
X101681677Y-111786564D01*
X101686837Y-111786753D01*
X101691957Y-111786097D01*
X101691959Y-111786097D01*
X101903288Y-111759025D01*
X101903289Y-111759025D01*
X101908416Y-111758368D01*
X101913366Y-111756883D01*
X102117429Y-111695661D01*
X102117434Y-111695659D01*
X102122384Y-111694174D01*
X102322994Y-111595896D01*
X102504860Y-111466173D01*
X102663096Y-111308489D01*
X102793453Y-111127077D01*
X102794776Y-111128028D01*
X102841645Y-111084857D01*
X102911580Y-111072625D01*
X102977026Y-111100144D01*
X103004875Y-111131994D01*
X103064987Y-111230088D01*
X103211250Y-111398938D01*
X103383126Y-111541632D01*
X103576000Y-111654338D01*
X103784692Y-111734030D01*
X103789760Y-111735061D01*
X103789763Y-111735062D01*
X103884862Y-111754410D01*
X104003597Y-111778567D01*
X104008772Y-111778757D01*
X104008774Y-111778757D01*
X104221673Y-111786564D01*
X104221677Y-111786564D01*
X104226837Y-111786753D01*
X104231957Y-111786097D01*
X104231959Y-111786097D01*
X104443288Y-111759025D01*
X104443289Y-111759025D01*
X104448416Y-111758368D01*
X104453366Y-111756883D01*
X104657429Y-111695661D01*
X104657434Y-111695659D01*
X104662384Y-111694174D01*
X104862994Y-111595896D01*
X105044860Y-111466173D01*
X105203096Y-111308489D01*
X105333453Y-111127077D01*
X105334640Y-111127930D01*
X105381960Y-111084362D01*
X105451897Y-111072145D01*
X105517338Y-111099678D01*
X105545166Y-111131511D01*
X105602694Y-111225388D01*
X105608777Y-111233699D01*
X105748213Y-111394667D01*
X105755580Y-111401883D01*
X105919434Y-111537916D01*
X105927881Y-111543831D01*
X106111756Y-111651279D01*
X106121042Y-111655729D01*
X106320001Y-111731703D01*
X106329899Y-111734579D01*
X106433250Y-111755606D01*
X106447299Y-111754410D01*
X106451000Y-111744065D01*
X106451000Y-111743517D01*
X106959000Y-111743517D01*
X106963064Y-111757359D01*
X106976478Y-111759393D01*
X106983184Y-111758534D01*
X106993262Y-111756392D01*
X107197255Y-111695191D01*
X107206842Y-111691433D01*
X107398095Y-111597739D01*
X107406945Y-111592464D01*
X107580328Y-111468792D01*
X107588200Y-111462139D01*
X107739052Y-111311812D01*
X107745730Y-111303965D01*
X107873022Y-111126819D01*
X107874279Y-111127722D01*
X107921373Y-111084362D01*
X107991311Y-111072145D01*
X108056751Y-111099678D01*
X108084579Y-111131511D01*
X108144987Y-111230088D01*
X108291250Y-111398938D01*
X108463126Y-111541632D01*
X108656000Y-111654338D01*
X108864692Y-111734030D01*
X108869760Y-111735061D01*
X108869763Y-111735062D01*
X108964862Y-111754410D01*
X109083597Y-111778567D01*
X109088772Y-111778757D01*
X109088774Y-111778757D01*
X109301673Y-111786564D01*
X109301677Y-111786564D01*
X109306837Y-111786753D01*
X109311957Y-111786097D01*
X109311959Y-111786097D01*
X109523288Y-111759025D01*
X109523289Y-111759025D01*
X109528416Y-111758368D01*
X109533366Y-111756883D01*
X109737429Y-111695661D01*
X109737434Y-111695659D01*
X109742384Y-111694174D01*
X109942994Y-111595896D01*
X110124860Y-111466173D01*
X110283096Y-111308489D01*
X110413453Y-111127077D01*
X110414776Y-111128028D01*
X110461645Y-111084857D01*
X110531580Y-111072625D01*
X110597026Y-111100144D01*
X110624875Y-111131994D01*
X110684987Y-111230088D01*
X110831250Y-111398938D01*
X111003126Y-111541632D01*
X111196000Y-111654338D01*
X111404692Y-111734030D01*
X111409760Y-111735061D01*
X111409763Y-111735062D01*
X111504862Y-111754410D01*
X111623597Y-111778567D01*
X111628772Y-111778757D01*
X111628774Y-111778757D01*
X111841673Y-111786564D01*
X111841677Y-111786564D01*
X111846837Y-111786753D01*
X111851957Y-111786097D01*
X111851959Y-111786097D01*
X112063288Y-111759025D01*
X112063289Y-111759025D01*
X112068416Y-111758368D01*
X112073366Y-111756883D01*
X112277429Y-111695661D01*
X112277434Y-111695659D01*
X112282384Y-111694174D01*
X112482994Y-111595896D01*
X112664860Y-111466173D01*
X112823096Y-111308489D01*
X112953453Y-111127077D01*
X112954776Y-111128028D01*
X113001645Y-111084857D01*
X113071580Y-111072625D01*
X113137026Y-111100144D01*
X113164875Y-111131994D01*
X113224987Y-111230088D01*
X113371250Y-111398938D01*
X113543126Y-111541632D01*
X113736000Y-111654338D01*
X113944692Y-111734030D01*
X113949760Y-111735061D01*
X113949763Y-111735062D01*
X114044862Y-111754410D01*
X114163597Y-111778567D01*
X114168772Y-111778757D01*
X114168774Y-111778757D01*
X114381673Y-111786564D01*
X114381677Y-111786564D01*
X114386837Y-111786753D01*
X114391957Y-111786097D01*
X114391959Y-111786097D01*
X114603288Y-111759025D01*
X114603289Y-111759025D01*
X114608416Y-111758368D01*
X114613366Y-111756883D01*
X114817429Y-111695661D01*
X114817434Y-111695659D01*
X114822384Y-111694174D01*
X115022994Y-111595896D01*
X115204860Y-111466173D01*
X115363096Y-111308489D01*
X115493453Y-111127077D01*
X115494776Y-111128028D01*
X115541645Y-111084857D01*
X115611580Y-111072625D01*
X115677026Y-111100144D01*
X115704875Y-111131994D01*
X115764987Y-111230088D01*
X115911250Y-111398938D01*
X116083126Y-111541632D01*
X116276000Y-111654338D01*
X116484692Y-111734030D01*
X116489760Y-111735061D01*
X116489763Y-111735062D01*
X116584862Y-111754410D01*
X116703597Y-111778567D01*
X116708772Y-111778757D01*
X116708774Y-111778757D01*
X116921673Y-111786564D01*
X116921677Y-111786564D01*
X116926837Y-111786753D01*
X116931957Y-111786097D01*
X116931959Y-111786097D01*
X117143288Y-111759025D01*
X117143289Y-111759025D01*
X117148416Y-111758368D01*
X117153366Y-111756883D01*
X117357429Y-111695661D01*
X117357434Y-111695659D01*
X117362384Y-111694174D01*
X117562994Y-111595896D01*
X117744860Y-111466173D01*
X117903096Y-111308489D01*
X118033453Y-111127077D01*
X118034640Y-111127930D01*
X118081960Y-111084362D01*
X118151897Y-111072145D01*
X118217338Y-111099678D01*
X118245166Y-111131511D01*
X118302694Y-111225388D01*
X118308777Y-111233699D01*
X118448213Y-111394667D01*
X118455580Y-111401883D01*
X118619434Y-111537916D01*
X118627881Y-111543831D01*
X118811756Y-111651279D01*
X118821042Y-111655729D01*
X119020001Y-111731703D01*
X119029899Y-111734579D01*
X119133250Y-111755606D01*
X119147299Y-111754410D01*
X119151000Y-111744065D01*
X119151000Y-111743517D01*
X119659000Y-111743517D01*
X119663064Y-111757359D01*
X119676478Y-111759393D01*
X119683184Y-111758534D01*
X119693262Y-111756392D01*
X119897255Y-111695191D01*
X119906842Y-111691433D01*
X120098095Y-111597739D01*
X120106945Y-111592464D01*
X120280328Y-111468792D01*
X120288200Y-111462139D01*
X120439052Y-111311812D01*
X120445730Y-111303965D01*
X120573022Y-111126819D01*
X120574279Y-111127722D01*
X120621373Y-111084362D01*
X120691311Y-111072145D01*
X120756751Y-111099678D01*
X120784579Y-111131511D01*
X120844987Y-111230088D01*
X120991250Y-111398938D01*
X121163126Y-111541632D01*
X121356000Y-111654338D01*
X121564692Y-111734030D01*
X121569760Y-111735061D01*
X121569763Y-111735062D01*
X121664862Y-111754410D01*
X121783597Y-111778567D01*
X121788772Y-111778757D01*
X121788774Y-111778757D01*
X122001673Y-111786564D01*
X122001677Y-111786564D01*
X122006837Y-111786753D01*
X122011957Y-111786097D01*
X122011959Y-111786097D01*
X122223288Y-111759025D01*
X122223289Y-111759025D01*
X122228416Y-111758368D01*
X122233366Y-111756883D01*
X122437429Y-111695661D01*
X122437434Y-111695659D01*
X122442384Y-111694174D01*
X122642994Y-111595896D01*
X122824860Y-111466173D01*
X122983096Y-111308489D01*
X123113453Y-111127077D01*
X123114776Y-111128028D01*
X123161645Y-111084857D01*
X123231580Y-111072625D01*
X123297026Y-111100144D01*
X123324875Y-111131994D01*
X123384987Y-111230088D01*
X123531250Y-111398938D01*
X123703126Y-111541632D01*
X123896000Y-111654338D01*
X124104692Y-111734030D01*
X124109760Y-111735061D01*
X124109763Y-111735062D01*
X124204862Y-111754410D01*
X124323597Y-111778567D01*
X124328772Y-111778757D01*
X124328774Y-111778757D01*
X124541673Y-111786564D01*
X124541677Y-111786564D01*
X124546837Y-111786753D01*
X124551957Y-111786097D01*
X124551959Y-111786097D01*
X124763288Y-111759025D01*
X124763289Y-111759025D01*
X124768416Y-111758368D01*
X124773366Y-111756883D01*
X124977429Y-111695661D01*
X124977434Y-111695659D01*
X124982384Y-111694174D01*
X125182994Y-111595896D01*
X125364860Y-111466173D01*
X125523096Y-111308489D01*
X125653453Y-111127077D01*
X125666995Y-111099678D01*
X125750136Y-110931453D01*
X125750137Y-110931451D01*
X125752430Y-110926811D01*
X125817370Y-110713069D01*
X125846529Y-110491590D01*
X125848156Y-110425000D01*
X125829852Y-110202361D01*
X125775431Y-109985702D01*
X125686354Y-109780840D01*
X125565014Y-109593277D01*
X125414670Y-109428051D01*
X125410619Y-109424852D01*
X125410615Y-109424848D01*
X125243414Y-109292800D01*
X125243410Y-109292798D01*
X125239359Y-109289598D01*
X125203028Y-109269542D01*
X125187136Y-109260769D01*
X125043789Y-109181638D01*
X125038920Y-109179914D01*
X125038916Y-109179912D01*
X124838087Y-109108795D01*
X124838083Y-109108794D01*
X124833212Y-109107069D01*
X124828119Y-109106162D01*
X124828116Y-109106161D01*
X124618373Y-109068800D01*
X124618367Y-109068799D01*
X124613284Y-109067894D01*
X124539452Y-109066992D01*
X124395081Y-109065228D01*
X124395079Y-109065228D01*
X124389911Y-109065165D01*
X124169091Y-109098955D01*
X123956756Y-109168357D01*
X123758607Y-109271507D01*
X123754474Y-109274610D01*
X123754471Y-109274612D01*
X123584100Y-109402530D01*
X123579965Y-109405635D01*
X123576393Y-109409373D01*
X123468729Y-109522037D01*
X123425629Y-109567138D01*
X123318201Y-109724621D01*
X123263293Y-109769621D01*
X123192768Y-109777792D01*
X123129021Y-109746538D01*
X123108324Y-109722054D01*
X123027822Y-109597617D01*
X123027820Y-109597614D01*
X123025014Y-109593277D01*
X122874670Y-109428051D01*
X122870619Y-109424852D01*
X122870615Y-109424848D01*
X122703414Y-109292800D01*
X122703410Y-109292798D01*
X122699359Y-109289598D01*
X122663028Y-109269542D01*
X122647136Y-109260769D01*
X122503789Y-109181638D01*
X122498920Y-109179914D01*
X122498916Y-109179912D01*
X122298087Y-109108795D01*
X122298083Y-109108794D01*
X122293212Y-109107069D01*
X122288119Y-109106162D01*
X122288116Y-109106161D01*
X122078373Y-109068800D01*
X122078367Y-109068799D01*
X122073284Y-109067894D01*
X121999452Y-109066992D01*
X121855081Y-109065228D01*
X121855079Y-109065228D01*
X121849911Y-109065165D01*
X121629091Y-109098955D01*
X121416756Y-109168357D01*
X121218607Y-109271507D01*
X121214474Y-109274610D01*
X121214471Y-109274612D01*
X121044100Y-109402530D01*
X121039965Y-109405635D01*
X121036393Y-109409373D01*
X120928729Y-109522037D01*
X120885629Y-109567138D01*
X120778204Y-109724618D01*
X120777898Y-109725066D01*
X120722987Y-109770069D01*
X120652462Y-109778240D01*
X120588715Y-109746986D01*
X120568018Y-109722502D01*
X120487426Y-109597926D01*
X120481136Y-109589757D01*
X120337806Y-109432240D01*
X120330273Y-109425215D01*
X120163139Y-109293222D01*
X120154552Y-109287517D01*
X119968117Y-109184599D01*
X119958705Y-109180369D01*
X119757959Y-109109280D01*
X119747988Y-109106646D01*
X119676837Y-109093972D01*
X119663540Y-109095432D01*
X119659000Y-109109989D01*
X119659000Y-111743517D01*
X119151000Y-111743517D01*
X119151000Y-109108102D01*
X119147082Y-109094758D01*
X119132806Y-109092771D01*
X119094324Y-109098660D01*
X119084288Y-109101051D01*
X118881868Y-109167212D01*
X118872359Y-109171209D01*
X118683463Y-109269542D01*
X118674738Y-109275036D01*
X118504433Y-109402905D01*
X118496726Y-109409748D01*
X118349590Y-109563717D01*
X118343109Y-109571722D01*
X118238498Y-109725074D01*
X118183587Y-109770076D01*
X118113062Y-109778247D01*
X118049315Y-109746993D01*
X118028618Y-109722509D01*
X117947822Y-109597617D01*
X117947820Y-109597614D01*
X117945014Y-109593277D01*
X117794670Y-109428051D01*
X117790619Y-109424852D01*
X117790615Y-109424848D01*
X117623414Y-109292800D01*
X117623410Y-109292798D01*
X117619359Y-109289598D01*
X117583028Y-109269542D01*
X117567136Y-109260769D01*
X117423789Y-109181638D01*
X117418920Y-109179914D01*
X117418916Y-109179912D01*
X117218087Y-109108795D01*
X117218083Y-109108794D01*
X117213212Y-109107069D01*
X117208119Y-109106162D01*
X117208116Y-109106161D01*
X116998373Y-109068800D01*
X116998367Y-109068799D01*
X116993284Y-109067894D01*
X116919452Y-109066992D01*
X116775081Y-109065228D01*
X116775079Y-109065228D01*
X116769911Y-109065165D01*
X116549091Y-109098955D01*
X116336756Y-109168357D01*
X116138607Y-109271507D01*
X116134474Y-109274610D01*
X116134471Y-109274612D01*
X115964100Y-109402530D01*
X115959965Y-109405635D01*
X115956393Y-109409373D01*
X115848729Y-109522037D01*
X115805629Y-109567138D01*
X115698201Y-109724621D01*
X115643293Y-109769621D01*
X115572768Y-109777792D01*
X115509021Y-109746538D01*
X115488324Y-109722054D01*
X115407822Y-109597617D01*
X115407820Y-109597614D01*
X115405014Y-109593277D01*
X115254670Y-109428051D01*
X115250619Y-109424852D01*
X115250615Y-109424848D01*
X115083414Y-109292800D01*
X115083410Y-109292798D01*
X115079359Y-109289598D01*
X115043028Y-109269542D01*
X115027136Y-109260769D01*
X114883789Y-109181638D01*
X114878920Y-109179914D01*
X114878916Y-109179912D01*
X114678087Y-109108795D01*
X114678083Y-109108794D01*
X114673212Y-109107069D01*
X114668119Y-109106162D01*
X114668116Y-109106161D01*
X114458373Y-109068800D01*
X114458367Y-109068799D01*
X114453284Y-109067894D01*
X114379452Y-109066992D01*
X114235081Y-109065228D01*
X114235079Y-109065228D01*
X114229911Y-109065165D01*
X114009091Y-109098955D01*
X113796756Y-109168357D01*
X113598607Y-109271507D01*
X113594474Y-109274610D01*
X113594471Y-109274612D01*
X113424100Y-109402530D01*
X113419965Y-109405635D01*
X113416393Y-109409373D01*
X113308729Y-109522037D01*
X113265629Y-109567138D01*
X113158201Y-109724621D01*
X113103293Y-109769621D01*
X113032768Y-109777792D01*
X112969021Y-109746538D01*
X112948324Y-109722054D01*
X112867822Y-109597617D01*
X112867820Y-109597614D01*
X112865014Y-109593277D01*
X112714670Y-109428051D01*
X112710619Y-109424852D01*
X112710615Y-109424848D01*
X112543414Y-109292800D01*
X112543410Y-109292798D01*
X112539359Y-109289598D01*
X112503028Y-109269542D01*
X112487136Y-109260769D01*
X112343789Y-109181638D01*
X112338920Y-109179914D01*
X112338916Y-109179912D01*
X112138087Y-109108795D01*
X112138083Y-109108794D01*
X112133212Y-109107069D01*
X112128119Y-109106162D01*
X112128116Y-109106161D01*
X111918373Y-109068800D01*
X111918367Y-109068799D01*
X111913284Y-109067894D01*
X111839452Y-109066992D01*
X111695081Y-109065228D01*
X111695079Y-109065228D01*
X111689911Y-109065165D01*
X111469091Y-109098955D01*
X111256756Y-109168357D01*
X111058607Y-109271507D01*
X111054474Y-109274610D01*
X111054471Y-109274612D01*
X110884100Y-109402530D01*
X110879965Y-109405635D01*
X110876393Y-109409373D01*
X110768729Y-109522037D01*
X110725629Y-109567138D01*
X110618201Y-109724621D01*
X110563293Y-109769621D01*
X110492768Y-109777792D01*
X110429021Y-109746538D01*
X110408324Y-109722054D01*
X110327822Y-109597617D01*
X110327820Y-109597614D01*
X110325014Y-109593277D01*
X110174670Y-109428051D01*
X110170619Y-109424852D01*
X110170615Y-109424848D01*
X110003414Y-109292800D01*
X110003410Y-109292798D01*
X109999359Y-109289598D01*
X109963028Y-109269542D01*
X109947136Y-109260769D01*
X109803789Y-109181638D01*
X109798920Y-109179914D01*
X109798916Y-109179912D01*
X109598087Y-109108795D01*
X109598083Y-109108794D01*
X109593212Y-109107069D01*
X109588119Y-109106162D01*
X109588116Y-109106161D01*
X109378373Y-109068800D01*
X109378367Y-109068799D01*
X109373284Y-109067894D01*
X109299452Y-109066992D01*
X109155081Y-109065228D01*
X109155079Y-109065228D01*
X109149911Y-109065165D01*
X108929091Y-109098955D01*
X108716756Y-109168357D01*
X108518607Y-109271507D01*
X108514474Y-109274610D01*
X108514471Y-109274612D01*
X108344100Y-109402530D01*
X108339965Y-109405635D01*
X108336393Y-109409373D01*
X108228729Y-109522037D01*
X108185629Y-109567138D01*
X108078204Y-109724618D01*
X108077898Y-109725066D01*
X108022987Y-109770069D01*
X107952462Y-109778240D01*
X107888715Y-109746986D01*
X107868018Y-109722502D01*
X107787426Y-109597926D01*
X107781136Y-109589757D01*
X107637806Y-109432240D01*
X107630273Y-109425215D01*
X107463139Y-109293222D01*
X107454552Y-109287517D01*
X107268117Y-109184599D01*
X107258705Y-109180369D01*
X107057959Y-109109280D01*
X107047988Y-109106646D01*
X106976837Y-109093972D01*
X106963540Y-109095432D01*
X106959000Y-109109989D01*
X106959000Y-111743517D01*
X106451000Y-111743517D01*
X106451000Y-109108102D01*
X106447082Y-109094758D01*
X106432806Y-109092771D01*
X106394324Y-109098660D01*
X106384288Y-109101051D01*
X106181868Y-109167212D01*
X106172359Y-109171209D01*
X105983463Y-109269542D01*
X105974738Y-109275036D01*
X105804433Y-109402905D01*
X105796726Y-109409748D01*
X105649590Y-109563717D01*
X105643109Y-109571722D01*
X105538498Y-109725074D01*
X105483587Y-109770076D01*
X105413062Y-109778247D01*
X105349315Y-109746993D01*
X105328618Y-109722509D01*
X105247822Y-109597617D01*
X105247820Y-109597614D01*
X105245014Y-109593277D01*
X105094670Y-109428051D01*
X105090619Y-109424852D01*
X105090615Y-109424848D01*
X104923414Y-109292800D01*
X104923410Y-109292798D01*
X104919359Y-109289598D01*
X104883028Y-109269542D01*
X104867136Y-109260769D01*
X104723789Y-109181638D01*
X104718920Y-109179914D01*
X104718916Y-109179912D01*
X104518087Y-109108795D01*
X104518083Y-109108794D01*
X104513212Y-109107069D01*
X104508119Y-109106162D01*
X104508116Y-109106161D01*
X104298373Y-109068800D01*
X104298367Y-109068799D01*
X104293284Y-109067894D01*
X104219452Y-109066992D01*
X104075081Y-109065228D01*
X104075079Y-109065228D01*
X104069911Y-109065165D01*
X103849091Y-109098955D01*
X103636756Y-109168357D01*
X103438607Y-109271507D01*
X103434474Y-109274610D01*
X103434471Y-109274612D01*
X103264100Y-109402530D01*
X103259965Y-109405635D01*
X103256393Y-109409373D01*
X103148729Y-109522037D01*
X103105629Y-109567138D01*
X102998201Y-109724621D01*
X102943293Y-109769621D01*
X102872768Y-109777792D01*
X102809021Y-109746538D01*
X102788324Y-109722054D01*
X102707822Y-109597617D01*
X102707820Y-109597614D01*
X102705014Y-109593277D01*
X102554670Y-109428051D01*
X102550619Y-109424852D01*
X102550615Y-109424848D01*
X102383414Y-109292800D01*
X102383410Y-109292798D01*
X102379359Y-109289598D01*
X102343028Y-109269542D01*
X102327136Y-109260769D01*
X102183789Y-109181638D01*
X102178920Y-109179914D01*
X102178916Y-109179912D01*
X101978087Y-109108795D01*
X101978083Y-109108794D01*
X101973212Y-109107069D01*
X101968119Y-109106162D01*
X101968116Y-109106161D01*
X101758373Y-109068800D01*
X101758367Y-109068799D01*
X101753284Y-109067894D01*
X101679452Y-109066992D01*
X101535081Y-109065228D01*
X101535079Y-109065228D01*
X101529911Y-109065165D01*
X101309091Y-109098955D01*
X101096756Y-109168357D01*
X100898607Y-109271507D01*
X100894474Y-109274610D01*
X100894471Y-109274612D01*
X100724100Y-109402530D01*
X100719965Y-109405635D01*
X100716393Y-109409373D01*
X100608729Y-109522037D01*
X100565629Y-109567138D01*
X100458201Y-109724621D01*
X100403293Y-109769621D01*
X100332768Y-109777792D01*
X100269021Y-109746538D01*
X100248324Y-109722054D01*
X100167822Y-109597617D01*
X100167820Y-109597614D01*
X100165014Y-109593277D01*
X100014670Y-109428051D01*
X100010619Y-109424852D01*
X100010615Y-109424848D01*
X99843414Y-109292800D01*
X99843410Y-109292798D01*
X99839359Y-109289598D01*
X99803028Y-109269542D01*
X99787136Y-109260769D01*
X99643789Y-109181638D01*
X99638920Y-109179914D01*
X99638916Y-109179912D01*
X99438087Y-109108795D01*
X99438083Y-109108794D01*
X99433212Y-109107069D01*
X99428119Y-109106162D01*
X99428116Y-109106161D01*
X99218373Y-109068800D01*
X99218367Y-109068799D01*
X99213284Y-109067894D01*
X99139452Y-109066992D01*
X98995081Y-109065228D01*
X98995079Y-109065228D01*
X98989911Y-109065165D01*
X98769091Y-109098955D01*
X98556756Y-109168357D01*
X98358607Y-109271507D01*
X98354474Y-109274610D01*
X98354471Y-109274612D01*
X98184100Y-109402530D01*
X98179965Y-109405635D01*
X98176393Y-109409373D01*
X98068729Y-109522037D01*
X98025629Y-109567138D01*
X97918201Y-109724621D01*
X97863293Y-109769621D01*
X97792768Y-109777792D01*
X97729021Y-109746538D01*
X97708324Y-109722054D01*
X97627822Y-109597617D01*
X97627820Y-109597614D01*
X97625014Y-109593277D01*
X97474670Y-109428051D01*
X97470619Y-109424852D01*
X97470615Y-109424848D01*
X97303414Y-109292800D01*
X97303410Y-109292798D01*
X97299359Y-109289598D01*
X97263028Y-109269542D01*
X97247136Y-109260769D01*
X97103789Y-109181638D01*
X97098920Y-109179914D01*
X97098916Y-109179912D01*
X96898087Y-109108795D01*
X96898083Y-109108794D01*
X96893212Y-109107069D01*
X96888119Y-109106162D01*
X96888116Y-109106161D01*
X96678373Y-109068800D01*
X96678367Y-109068799D01*
X96673284Y-109067894D01*
X96599452Y-109066992D01*
X96455081Y-109065228D01*
X96455079Y-109065228D01*
X96449911Y-109065165D01*
X96229091Y-109098955D01*
X96016756Y-109168357D01*
X95818607Y-109271507D01*
X95814474Y-109274610D01*
X95814471Y-109274612D01*
X95644100Y-109402530D01*
X95639965Y-109405635D01*
X95636393Y-109409373D01*
X95528729Y-109522037D01*
X95485629Y-109567138D01*
X95378204Y-109724618D01*
X95377898Y-109725066D01*
X95322987Y-109770069D01*
X95252462Y-109778240D01*
X95188715Y-109746986D01*
X95168018Y-109722502D01*
X95087426Y-109597926D01*
X95081136Y-109589757D01*
X94937806Y-109432240D01*
X94930273Y-109425215D01*
X94763139Y-109293222D01*
X94754552Y-109287517D01*
X94568117Y-109184599D01*
X94558705Y-109180369D01*
X94357959Y-109109280D01*
X94347988Y-109106646D01*
X94276837Y-109093972D01*
X94263540Y-109095432D01*
X94259000Y-109109989D01*
X94259000Y-111743517D01*
X93751000Y-111743517D01*
X93751000Y-109108102D01*
X93747082Y-109094758D01*
X93732806Y-109092771D01*
X93694324Y-109098660D01*
X93684288Y-109101051D01*
X93481868Y-109167212D01*
X93472359Y-109171209D01*
X93283463Y-109269542D01*
X93274738Y-109275036D01*
X93104433Y-109402905D01*
X93096726Y-109409748D01*
X92949590Y-109563717D01*
X92943109Y-109571722D01*
X92838498Y-109725074D01*
X92783587Y-109770076D01*
X92713062Y-109778247D01*
X92649315Y-109746993D01*
X92628618Y-109722509D01*
X92547822Y-109597617D01*
X92547820Y-109597614D01*
X92545014Y-109593277D01*
X92394670Y-109428051D01*
X92390619Y-109424852D01*
X92390615Y-109424848D01*
X92223414Y-109292800D01*
X92223410Y-109292798D01*
X92219359Y-109289598D01*
X92183028Y-109269542D01*
X92167136Y-109260769D01*
X92023789Y-109181638D01*
X92018920Y-109179914D01*
X92018916Y-109179912D01*
X91818087Y-109108795D01*
X91818083Y-109108794D01*
X91813212Y-109107069D01*
X91808119Y-109106162D01*
X91808116Y-109106161D01*
X91598373Y-109068800D01*
X91598367Y-109068799D01*
X91593284Y-109067894D01*
X91519452Y-109066992D01*
X91375081Y-109065228D01*
X91375079Y-109065228D01*
X91369911Y-109065165D01*
X91149091Y-109098955D01*
X90936756Y-109168357D01*
X90738607Y-109271507D01*
X90734474Y-109274610D01*
X90734471Y-109274612D01*
X90564100Y-109402530D01*
X90559965Y-109405635D01*
X90556393Y-109409373D01*
X90448729Y-109522037D01*
X90405629Y-109567138D01*
X90298201Y-109724621D01*
X90243293Y-109769621D01*
X90172768Y-109777792D01*
X90109021Y-109746538D01*
X90088324Y-109722054D01*
X90007822Y-109597617D01*
X90007820Y-109597614D01*
X90005014Y-109593277D01*
X89854670Y-109428051D01*
X89850619Y-109424852D01*
X89850615Y-109424848D01*
X89683414Y-109292800D01*
X89683410Y-109292798D01*
X89679359Y-109289598D01*
X89643028Y-109269542D01*
X89627136Y-109260769D01*
X89483789Y-109181638D01*
X89478920Y-109179914D01*
X89478916Y-109179912D01*
X89278087Y-109108795D01*
X89278083Y-109108794D01*
X89273212Y-109107069D01*
X89268119Y-109106162D01*
X89268116Y-109106161D01*
X89058373Y-109068800D01*
X89058367Y-109068799D01*
X89053284Y-109067894D01*
X88979452Y-109066992D01*
X88835081Y-109065228D01*
X88835079Y-109065228D01*
X88829911Y-109065165D01*
X88609091Y-109098955D01*
X88396756Y-109168357D01*
X88198607Y-109271507D01*
X88194474Y-109274610D01*
X88194471Y-109274612D01*
X88024100Y-109402530D01*
X88019965Y-109405635D01*
X88016393Y-109409373D01*
X87908729Y-109522037D01*
X87865629Y-109567138D01*
X87758201Y-109724621D01*
X87703293Y-109769621D01*
X87632768Y-109777792D01*
X87569021Y-109746538D01*
X87548324Y-109722054D01*
X87467822Y-109597617D01*
X87467820Y-109597614D01*
X87465014Y-109593277D01*
X87314670Y-109428051D01*
X87310619Y-109424852D01*
X87310615Y-109424848D01*
X87143414Y-109292800D01*
X87143410Y-109292798D01*
X87139359Y-109289598D01*
X87103028Y-109269542D01*
X87087136Y-109260769D01*
X86943789Y-109181638D01*
X86938920Y-109179914D01*
X86938916Y-109179912D01*
X86738087Y-109108795D01*
X86738083Y-109108794D01*
X86733212Y-109107069D01*
X86728119Y-109106162D01*
X86728116Y-109106161D01*
X86518373Y-109068800D01*
X86518367Y-109068799D01*
X86513284Y-109067894D01*
X86439452Y-109066992D01*
X86295081Y-109065228D01*
X86295079Y-109065228D01*
X86289911Y-109065165D01*
X86069091Y-109098955D01*
X85856756Y-109168357D01*
X85658607Y-109271507D01*
X85654474Y-109274610D01*
X85654471Y-109274612D01*
X85484100Y-109402530D01*
X85479965Y-109405635D01*
X85476393Y-109409373D01*
X85368729Y-109522037D01*
X85325629Y-109567138D01*
X85218201Y-109724621D01*
X85163293Y-109769621D01*
X85092768Y-109777792D01*
X85029021Y-109746538D01*
X85008324Y-109722054D01*
X84927822Y-109597617D01*
X84927820Y-109597614D01*
X84925014Y-109593277D01*
X84774670Y-109428051D01*
X84770619Y-109424852D01*
X84770615Y-109424848D01*
X84603414Y-109292800D01*
X84603410Y-109292798D01*
X84599359Y-109289598D01*
X84563028Y-109269542D01*
X84547136Y-109260769D01*
X84403789Y-109181638D01*
X84398920Y-109179914D01*
X84398916Y-109179912D01*
X84198087Y-109108795D01*
X84198083Y-109108794D01*
X84193212Y-109107069D01*
X84188119Y-109106162D01*
X84188116Y-109106161D01*
X83978373Y-109068800D01*
X83978367Y-109068799D01*
X83973284Y-109067894D01*
X83899452Y-109066992D01*
X83755081Y-109065228D01*
X83755079Y-109065228D01*
X83749911Y-109065165D01*
X83529091Y-109098955D01*
X83316756Y-109168357D01*
X83118607Y-109271507D01*
X83114474Y-109274610D01*
X83114471Y-109274612D01*
X82944100Y-109402530D01*
X82939965Y-109405635D01*
X82936393Y-109409373D01*
X82828729Y-109522037D01*
X82785629Y-109567138D01*
X82678204Y-109724618D01*
X82677898Y-109725066D01*
X82622987Y-109770069D01*
X82552462Y-109778240D01*
X82488715Y-109746986D01*
X82468018Y-109722502D01*
X82387426Y-109597926D01*
X82381136Y-109589757D01*
X82237806Y-109432240D01*
X82230273Y-109425215D01*
X82063139Y-109293222D01*
X82054552Y-109287517D01*
X81868117Y-109184599D01*
X81858705Y-109180369D01*
X81657959Y-109109280D01*
X81647988Y-109106646D01*
X81576837Y-109093972D01*
X81563540Y-109095432D01*
X81559000Y-109109989D01*
X81559000Y-111743517D01*
X81051000Y-111743517D01*
X81051000Y-109108102D01*
X81047082Y-109094758D01*
X81032806Y-109092771D01*
X80994324Y-109098660D01*
X80984288Y-109101051D01*
X80781868Y-109167212D01*
X80772359Y-109171209D01*
X80583463Y-109269542D01*
X80574738Y-109275036D01*
X80404433Y-109402905D01*
X80396726Y-109409748D01*
X80249590Y-109563717D01*
X80243109Y-109571722D01*
X80138498Y-109725074D01*
X80083587Y-109770076D01*
X80013062Y-109778247D01*
X79949315Y-109746993D01*
X79928618Y-109722509D01*
X79847822Y-109597617D01*
X79847820Y-109597614D01*
X79845014Y-109593277D01*
X79694670Y-109428051D01*
X79690619Y-109424852D01*
X79690615Y-109424848D01*
X79523414Y-109292800D01*
X79523410Y-109292798D01*
X79519359Y-109289598D01*
X79483028Y-109269542D01*
X79467136Y-109260769D01*
X79323789Y-109181638D01*
X79318920Y-109179914D01*
X79318916Y-109179912D01*
X79118087Y-109108795D01*
X79118083Y-109108794D01*
X79113212Y-109107069D01*
X79108119Y-109106162D01*
X79108116Y-109106161D01*
X78898373Y-109068800D01*
X78898367Y-109068799D01*
X78893284Y-109067894D01*
X78819452Y-109066992D01*
X78675081Y-109065228D01*
X78675079Y-109065228D01*
X78669911Y-109065165D01*
X78449091Y-109098955D01*
X78236756Y-109168357D01*
X78038607Y-109271507D01*
X78034474Y-109274610D01*
X78034471Y-109274612D01*
X77864100Y-109402530D01*
X77859965Y-109405635D01*
X77803537Y-109464684D01*
X77779283Y-109490064D01*
X77717759Y-109525494D01*
X77646846Y-109522037D01*
X77589060Y-109480791D01*
X77570207Y-109447243D01*
X77528767Y-109336703D01*
X77525615Y-109328295D01*
X77438261Y-109211739D01*
X77321705Y-109124385D01*
X77185316Y-109073255D01*
X77123134Y-109066500D01*
X75326866Y-109066500D01*
X75264684Y-109073255D01*
X75128295Y-109124385D01*
X75011739Y-109211739D01*
X74924385Y-109328295D01*
X74873255Y-109464684D01*
X74866500Y-109526866D01*
X74866500Y-111323134D01*
X73898000Y-111323134D01*
X73898000Y-107264000D01*
X73918002Y-107195879D01*
X73971658Y-107149386D01*
X74024000Y-107138000D01*
X76454351Y-107138000D01*
X76522472Y-107158002D01*
X76568965Y-107211658D01*
X76579661Y-107277170D01*
X76561496Y-107450000D01*
X76581458Y-107639928D01*
X76640473Y-107821556D01*
X76735960Y-107986944D01*
X76863747Y-108128866D01*
X77018248Y-108241118D01*
X77024276Y-108243802D01*
X77024278Y-108243803D01*
X77186681Y-108316109D01*
X77192712Y-108318794D01*
X77286112Y-108338647D01*
X77373056Y-108357128D01*
X77373061Y-108357128D01*
X77379513Y-108358500D01*
X77570487Y-108358500D01*
X77576939Y-108357128D01*
X77576944Y-108357128D01*
X77663888Y-108338647D01*
X77757288Y-108318794D01*
X77763319Y-108316109D01*
X77925722Y-108243803D01*
X77925724Y-108243802D01*
X77931752Y-108241118D01*
X78086253Y-108128866D01*
X78214040Y-107986944D01*
X78309527Y-107821556D01*
X78368542Y-107639928D01*
X78388504Y-107450000D01*
X78370339Y-107277170D01*
X78369232Y-107266635D01*
X78369232Y-107266633D01*
X78368542Y-107260072D01*
X78309527Y-107078444D01*
X78256570Y-106986719D01*
X78246726Y-106969669D01*
X82747001Y-106969669D01*
X82747371Y-106976490D01*
X82752895Y-107027352D01*
X82756521Y-107042604D01*
X82801676Y-107163054D01*
X82810214Y-107178649D01*
X82886715Y-107280724D01*
X82899276Y-107293285D01*
X83001351Y-107369786D01*
X83016946Y-107378324D01*
X83137394Y-107423478D01*
X83152649Y-107427105D01*
X83203514Y-107432631D01*
X83210328Y-107433000D01*
X83507885Y-107433000D01*
X83523124Y-107428525D01*
X83524329Y-107427135D01*
X83526000Y-107419452D01*
X83526000Y-106451004D01*
X84016500Y-106451004D01*
X84031277Y-106601713D01*
X84031968Y-106604002D01*
X84034000Y-106624724D01*
X84034000Y-107414884D01*
X84038475Y-107430123D01*
X84039865Y-107431328D01*
X84047548Y-107432999D01*
X84349669Y-107432999D01*
X84356490Y-107432629D01*
X84407352Y-107427105D01*
X84422604Y-107423479D01*
X84543056Y-107378323D01*
X84558466Y-107369886D01*
X84627823Y-107354716D01*
X84656235Y-107360040D01*
X84841180Y-107417290D01*
X84847305Y-107417934D01*
X84847306Y-107417934D01*
X85036622Y-107437832D01*
X85036623Y-107437832D01*
X85042750Y-107438476D01*
X85152090Y-107428525D01*
X85238457Y-107420665D01*
X85238460Y-107420664D01*
X85244596Y-107420106D01*
X85250502Y-107418368D01*
X85250506Y-107418367D01*
X85433120Y-107364620D01*
X85433119Y-107364620D01*
X85439029Y-107362881D01*
X85444486Y-107360028D01*
X85444489Y-107360027D01*
X85596182Y-107280724D01*
X85618460Y-107269077D01*
X85618462Y-107269077D01*
X85618645Y-107268981D01*
X85618663Y-107269016D01*
X85684441Y-107249111D01*
X85745409Y-107264271D01*
X85917565Y-107357356D01*
X86014372Y-107387323D01*
X86105293Y-107415468D01*
X86105296Y-107415469D01*
X86111180Y-107417290D01*
X86117305Y-107417934D01*
X86117306Y-107417934D01*
X86306622Y-107437832D01*
X86306623Y-107437832D01*
X86312750Y-107438476D01*
X86422090Y-107428525D01*
X86508457Y-107420665D01*
X86508460Y-107420664D01*
X86514596Y-107420106D01*
X86520502Y-107418368D01*
X86520506Y-107418367D01*
X86703120Y-107364620D01*
X86703119Y-107364620D01*
X86709029Y-107362881D01*
X86714486Y-107360028D01*
X86714489Y-107360027D01*
X86866182Y-107280724D01*
X86888645Y-107268981D01*
X87046601Y-107141981D01*
X87176881Y-106986719D01*
X87179845Y-106981327D01*
X87179848Y-106981323D01*
X87271556Y-106814506D01*
X87274523Y-106809109D01*
X87335807Y-106615916D01*
X87337401Y-106601713D01*
X87350385Y-106485955D01*
X87353500Y-106458183D01*
X87353500Y-106175000D01*
X87686496Y-106175000D01*
X87687186Y-106181565D01*
X87697073Y-106275630D01*
X87706458Y-106364928D01*
X87765473Y-106546556D01*
X87860960Y-106711944D01*
X87865378Y-106716851D01*
X87865379Y-106716852D01*
X87948448Y-106809109D01*
X87988747Y-106853866D01*
X88143248Y-106966118D01*
X88149276Y-106968802D01*
X88149278Y-106968803D01*
X88280782Y-107027352D01*
X88317712Y-107043794D01*
X88411113Y-107063647D01*
X88498056Y-107082128D01*
X88498061Y-107082128D01*
X88504513Y-107083500D01*
X88695487Y-107083500D01*
X88701939Y-107082128D01*
X88701944Y-107082128D01*
X88788888Y-107063647D01*
X88882288Y-107043794D01*
X88919218Y-107027352D01*
X89050722Y-106968803D01*
X89050724Y-106968802D01*
X89056752Y-106966118D01*
X89211253Y-106853866D01*
X89251552Y-106809109D01*
X89334621Y-106716852D01*
X89334622Y-106716851D01*
X89339040Y-106711944D01*
X89434527Y-106546556D01*
X89493542Y-106364928D01*
X89502928Y-106275630D01*
X89512814Y-106181565D01*
X89513504Y-106175000D01*
X89507977Y-106122413D01*
X89494232Y-105991635D01*
X89494232Y-105991633D01*
X89493542Y-105985072D01*
X89434527Y-105803444D01*
X89399275Y-105742385D01*
X89357579Y-105670166D01*
X89339040Y-105638056D01*
X89299195Y-105593803D01*
X89215675Y-105501045D01*
X89215674Y-105501044D01*
X89211253Y-105496134D01*
X89056752Y-105383882D01*
X89050724Y-105381198D01*
X89050722Y-105381197D01*
X88888319Y-105308891D01*
X88888318Y-105308891D01*
X88882288Y-105306206D01*
X88788887Y-105286353D01*
X88701944Y-105267872D01*
X88701939Y-105267872D01*
X88695487Y-105266500D01*
X88504513Y-105266500D01*
X88498061Y-105267872D01*
X88498056Y-105267872D01*
X88411113Y-105286353D01*
X88317712Y-105306206D01*
X88311682Y-105308891D01*
X88311681Y-105308891D01*
X88149278Y-105381197D01*
X88149276Y-105381198D01*
X88143248Y-105383882D01*
X87988747Y-105496134D01*
X87984326Y-105501044D01*
X87984325Y-105501045D01*
X87900806Y-105593803D01*
X87860960Y-105638056D01*
X87842421Y-105670166D01*
X87800726Y-105742385D01*
X87765473Y-105803444D01*
X87706458Y-105985072D01*
X87705768Y-105991633D01*
X87705768Y-105991635D01*
X87692023Y-106122413D01*
X87686496Y-106175000D01*
X87353500Y-106175000D01*
X87353500Y-105898996D01*
X87338723Y-105748287D01*
X87280142Y-105554258D01*
X87184990Y-105375302D01*
X87056890Y-105218237D01*
X87019066Y-105186946D01*
X86905472Y-105092973D01*
X86905469Y-105092971D01*
X86900722Y-105089044D01*
X86722435Y-104992644D01*
X86625627Y-104962677D01*
X86534707Y-104934532D01*
X86534704Y-104934531D01*
X86528820Y-104932710D01*
X86522695Y-104932066D01*
X86522694Y-104932066D01*
X86333378Y-104912168D01*
X86333377Y-104912168D01*
X86327250Y-104911524D01*
X86248709Y-104918672D01*
X86131543Y-104929335D01*
X86131540Y-104929336D01*
X86125404Y-104929894D01*
X86119498Y-104931632D01*
X86119494Y-104931633D01*
X85983442Y-104971676D01*
X85930971Y-104987119D01*
X85925514Y-104989972D01*
X85925511Y-104989973D01*
X85841163Y-105034069D01*
X85751540Y-105080923D01*
X85751538Y-105080923D01*
X85751355Y-105081019D01*
X85751337Y-105080984D01*
X85685559Y-105100889D01*
X85624591Y-105085729D01*
X85615815Y-105080984D01*
X85452435Y-104992644D01*
X85355627Y-104962677D01*
X85264707Y-104934532D01*
X85264704Y-104934531D01*
X85258820Y-104932710D01*
X85252695Y-104932066D01*
X85252694Y-104932066D01*
X85063378Y-104912168D01*
X85063377Y-104912168D01*
X85057250Y-104911524D01*
X84978709Y-104918672D01*
X84861543Y-104929335D01*
X84861540Y-104929336D01*
X84855404Y-104929894D01*
X84849498Y-104931632D01*
X84849494Y-104931633D01*
X84758188Y-104958506D01*
X84660971Y-104987119D01*
X84660771Y-104986441D01*
X84594727Y-104992956D01*
X84557677Y-104979680D01*
X84543063Y-104971679D01*
X84422606Y-104926522D01*
X84407351Y-104922895D01*
X84356486Y-104917369D01*
X84349672Y-104917000D01*
X84052115Y-104917000D01*
X84036876Y-104921475D01*
X84035671Y-104922865D01*
X84034000Y-104930548D01*
X84034000Y-105728758D01*
X84033215Y-105742803D01*
X84016500Y-105891817D01*
X84016500Y-106451004D01*
X83526000Y-106451004D01*
X83526000Y-106447115D01*
X83521525Y-106431876D01*
X83520135Y-106430671D01*
X83512452Y-106429000D01*
X82765116Y-106429000D01*
X82749877Y-106433475D01*
X82748672Y-106434865D01*
X82747001Y-106442548D01*
X82747001Y-106969669D01*
X78246726Y-106969669D01*
X78242746Y-106962776D01*
X78226008Y-106893781D01*
X78249228Y-106826689D01*
X78297994Y-106785873D01*
X78496534Y-106691972D01*
X78496549Y-106691964D01*
X78499323Y-106690652D01*
X78521552Y-106677328D01*
X78818857Y-106499131D01*
X78818866Y-106499125D01*
X78821507Y-106497542D01*
X78869857Y-106461683D01*
X79120721Y-106275630D01*
X79120725Y-106275627D01*
X79123211Y-106273783D01*
X79401530Y-106021530D01*
X79509063Y-105902885D01*
X82747000Y-105902885D01*
X82751475Y-105918124D01*
X82752865Y-105919329D01*
X82760548Y-105921000D01*
X83507885Y-105921000D01*
X83523124Y-105916525D01*
X83524329Y-105915135D01*
X83526000Y-105907452D01*
X83526000Y-104935116D01*
X83521525Y-104919877D01*
X83520135Y-104918672D01*
X83512452Y-104917001D01*
X83210331Y-104917001D01*
X83203510Y-104917371D01*
X83152648Y-104922895D01*
X83137396Y-104926521D01*
X83016946Y-104971676D01*
X83001351Y-104980214D01*
X82899276Y-105056715D01*
X82886715Y-105069276D01*
X82810214Y-105171351D01*
X82801676Y-105186946D01*
X82756522Y-105307394D01*
X82752895Y-105322649D01*
X82747369Y-105373514D01*
X82747000Y-105380328D01*
X82747000Y-105902885D01*
X79509063Y-105902885D01*
X79653783Y-105743211D01*
X79679527Y-105708500D01*
X79875699Y-105443992D01*
X79877542Y-105441507D01*
X79879125Y-105438866D01*
X79879131Y-105438857D01*
X80069069Y-105121964D01*
X80070652Y-105119323D01*
X80221680Y-104800000D01*
X89886496Y-104800000D01*
X89887186Y-104806565D01*
X89904540Y-104971676D01*
X89906458Y-104989928D01*
X89965473Y-105171556D01*
X90060960Y-105336944D01*
X90065378Y-105341851D01*
X90065379Y-105341852D01*
X90152723Y-105438857D01*
X90188747Y-105478866D01*
X90343248Y-105591118D01*
X90349276Y-105593802D01*
X90349278Y-105593803D01*
X90498441Y-105660214D01*
X90517712Y-105668794D01*
X90611112Y-105688647D01*
X90698056Y-105707128D01*
X90698061Y-105707128D01*
X90704513Y-105708500D01*
X90895487Y-105708500D01*
X90901939Y-105707128D01*
X90901944Y-105707128D01*
X90988888Y-105688647D01*
X91082288Y-105668794D01*
X91101559Y-105660214D01*
X91250722Y-105593803D01*
X91250724Y-105593802D01*
X91256752Y-105591118D01*
X91411253Y-105478866D01*
X91447277Y-105438857D01*
X91534621Y-105341852D01*
X91534622Y-105341851D01*
X91539040Y-105336944D01*
X91634527Y-105171556D01*
X91693542Y-104989928D01*
X91695461Y-104971676D01*
X91712814Y-104806565D01*
X91713504Y-104800000D01*
X91693542Y-104610072D01*
X91634527Y-104428444D01*
X91603671Y-104375000D01*
X119711496Y-104375000D01*
X119731458Y-104564928D01*
X119790473Y-104746556D01*
X119885960Y-104911944D01*
X119890378Y-104916851D01*
X119890379Y-104916852D01*
X119958903Y-104992956D01*
X120013747Y-105053866D01*
X120168248Y-105166118D01*
X120174276Y-105168802D01*
X120174278Y-105168803D01*
X120336681Y-105241109D01*
X120342712Y-105243794D01*
X120436113Y-105263647D01*
X120523056Y-105282128D01*
X120523061Y-105282128D01*
X120529513Y-105283500D01*
X120720487Y-105283500D01*
X120726939Y-105282128D01*
X120726944Y-105282128D01*
X120813887Y-105263647D01*
X120907288Y-105243794D01*
X120913319Y-105241109D01*
X121075722Y-105168803D01*
X121075724Y-105168802D01*
X121081752Y-105166118D01*
X121236253Y-105053866D01*
X121291097Y-104992956D01*
X121359621Y-104916852D01*
X121359622Y-104916851D01*
X121364040Y-104911944D01*
X121459527Y-104746556D01*
X121518542Y-104564928D01*
X121538504Y-104375000D01*
X121518542Y-104185072D01*
X121459527Y-104003444D01*
X121364040Y-103838056D01*
X121236253Y-103696134D01*
X121081752Y-103583882D01*
X121075724Y-103581198D01*
X121075722Y-103581197D01*
X120913319Y-103508891D01*
X120913318Y-103508891D01*
X120907288Y-103506206D01*
X120813887Y-103486353D01*
X120726944Y-103467872D01*
X120726939Y-103467872D01*
X120720487Y-103466500D01*
X120529513Y-103466500D01*
X120523061Y-103467872D01*
X120523056Y-103467872D01*
X120436113Y-103486353D01*
X120342712Y-103506206D01*
X120336682Y-103508891D01*
X120336681Y-103508891D01*
X120174278Y-103581197D01*
X120174276Y-103581198D01*
X120168248Y-103583882D01*
X120013747Y-103696134D01*
X119885960Y-103838056D01*
X119790473Y-104003444D01*
X119731458Y-104185072D01*
X119711496Y-104375000D01*
X91603671Y-104375000D01*
X91539040Y-104263056D01*
X91411253Y-104121134D01*
X91256752Y-104008882D01*
X91250724Y-104006198D01*
X91250722Y-104006197D01*
X91088319Y-103933891D01*
X91088318Y-103933891D01*
X91082288Y-103931206D01*
X90988888Y-103911353D01*
X90901944Y-103892872D01*
X90901939Y-103892872D01*
X90895487Y-103891500D01*
X90704513Y-103891500D01*
X90698061Y-103892872D01*
X90698056Y-103892872D01*
X90611113Y-103911353D01*
X90517712Y-103931206D01*
X90511682Y-103933891D01*
X90511681Y-103933891D01*
X90349278Y-104006197D01*
X90349276Y-104006198D01*
X90343248Y-104008882D01*
X90188747Y-104121134D01*
X90060960Y-104263056D01*
X89965473Y-104428444D01*
X89906458Y-104610072D01*
X89886496Y-104800000D01*
X80221680Y-104800000D01*
X80231251Y-104779763D01*
X80310469Y-104558365D01*
X80356756Y-104429002D01*
X80356758Y-104428994D01*
X80357795Y-104426097D01*
X80449065Y-104061730D01*
X80456329Y-104012763D01*
X80503726Y-103693231D01*
X80504180Y-103690171D01*
X80522611Y-103315000D01*
X80504180Y-102939829D01*
X80449065Y-102568270D01*
X80357795Y-102203903D01*
X80231251Y-101850237D01*
X80070652Y-101510677D01*
X79997554Y-101388720D01*
X79879131Y-101191143D01*
X79879125Y-101191134D01*
X79877542Y-101188493D01*
X79653783Y-100886789D01*
X79401530Y-100608470D01*
X79123211Y-100356217D01*
X79058208Y-100308007D01*
X78823992Y-100134301D01*
X78821507Y-100132458D01*
X78818866Y-100130875D01*
X78818857Y-100130869D01*
X78501964Y-99940931D01*
X78501965Y-99940931D01*
X78499323Y-99939348D01*
X78159763Y-99778749D01*
X77969187Y-99710560D01*
X77809002Y-99653244D01*
X77808994Y-99653242D01*
X77806097Y-99652205D01*
X77625532Y-99606976D01*
X77444733Y-99561687D01*
X77444729Y-99561686D01*
X77441730Y-99560935D01*
X77438668Y-99560481D01*
X77438664Y-99560480D01*
X77271463Y-99535679D01*
X77070171Y-99505820D01*
X77067089Y-99505669D01*
X77067083Y-99505668D01*
X76723987Y-99488813D01*
X76717199Y-99488078D01*
X76717191Y-99488171D01*
X76712331Y-99487735D01*
X76707539Y-99486929D01*
X76701300Y-99486853D01*
X76699859Y-99486835D01*
X76699855Y-99486835D01*
X76695000Y-99486776D01*
X76670715Y-99490254D01*
X76667412Y-99490727D01*
X76649549Y-99492000D01*
X74024000Y-99492000D01*
X73955879Y-99471998D01*
X73909386Y-99418342D01*
X73898000Y-99366000D01*
X73898000Y-96779703D01*
X85585743Y-96779703D01*
X85623268Y-97064734D01*
X85624401Y-97068874D01*
X85624401Y-97068876D01*
X85637805Y-97117872D01*
X85699129Y-97342036D01*
X85811923Y-97606476D01*
X85823693Y-97626142D01*
X85952663Y-97841635D01*
X85959561Y-97853161D01*
X86139313Y-98077528D01*
X86156397Y-98093740D01*
X86284103Y-98214928D01*
X86347851Y-98275423D01*
X86581317Y-98443186D01*
X86585112Y-98445195D01*
X86585113Y-98445196D01*
X86606869Y-98456715D01*
X86835392Y-98577712D01*
X87105373Y-98676511D01*
X87386264Y-98737755D01*
X87414841Y-98740004D01*
X87609282Y-98755307D01*
X87609291Y-98755307D01*
X87611739Y-98755500D01*
X87767271Y-98755500D01*
X87769407Y-98755354D01*
X87769418Y-98755354D01*
X87977548Y-98741165D01*
X87977554Y-98741164D01*
X87981825Y-98740873D01*
X87986020Y-98740004D01*
X87986022Y-98740004D01*
X88160526Y-98703866D01*
X88263342Y-98682574D01*
X88534343Y-98586607D01*
X88789812Y-98454750D01*
X88793313Y-98452289D01*
X88793317Y-98452287D01*
X88907417Y-98372096D01*
X89025023Y-98289441D01*
X89235622Y-98093740D01*
X89417713Y-97871268D01*
X89567927Y-97626142D01*
X89626033Y-97493774D01*
X89681757Y-97366830D01*
X89683483Y-97362898D01*
X89686860Y-97351045D01*
X89761068Y-97090534D01*
X89762244Y-97086406D01*
X89802751Y-96801784D01*
X89802845Y-96783951D01*
X89802867Y-96779703D01*
X113585743Y-96779703D01*
X113623268Y-97064734D01*
X113624401Y-97068874D01*
X113624401Y-97068876D01*
X113637805Y-97117872D01*
X113699129Y-97342036D01*
X113811923Y-97606476D01*
X113823693Y-97626142D01*
X113952663Y-97841635D01*
X113959561Y-97853161D01*
X114139313Y-98077528D01*
X114156397Y-98093740D01*
X114284103Y-98214928D01*
X114347851Y-98275423D01*
X114581317Y-98443186D01*
X114585112Y-98445195D01*
X114585113Y-98445196D01*
X114606869Y-98456715D01*
X114835392Y-98577712D01*
X115105373Y-98676511D01*
X115386264Y-98737755D01*
X115414841Y-98740004D01*
X115609282Y-98755307D01*
X115609291Y-98755307D01*
X115611739Y-98755500D01*
X115767271Y-98755500D01*
X115769407Y-98755354D01*
X115769418Y-98755354D01*
X115977548Y-98741165D01*
X115977554Y-98741164D01*
X115981825Y-98740873D01*
X115986020Y-98740004D01*
X115986022Y-98740004D01*
X116160526Y-98703866D01*
X116263342Y-98682574D01*
X116534343Y-98586607D01*
X116789812Y-98454750D01*
X116793313Y-98452289D01*
X116793317Y-98452287D01*
X116907417Y-98372096D01*
X117025023Y-98289441D01*
X117235622Y-98093740D01*
X117291885Y-98025000D01*
X124261496Y-98025000D01*
X124281458Y-98214928D01*
X124340473Y-98396556D01*
X124435960Y-98561944D01*
X124440378Y-98566851D01*
X124440379Y-98566852D01*
X124545358Y-98683443D01*
X124563747Y-98703866D01*
X124718248Y-98816118D01*
X124724276Y-98818802D01*
X124724278Y-98818803D01*
X124886681Y-98891109D01*
X124892712Y-98893794D01*
X124986112Y-98913647D01*
X125073056Y-98932128D01*
X125073061Y-98932128D01*
X125079513Y-98933500D01*
X125270487Y-98933500D01*
X125276939Y-98932128D01*
X125276944Y-98932128D01*
X125363887Y-98913647D01*
X125457288Y-98893794D01*
X125463319Y-98891109D01*
X125625722Y-98818803D01*
X125625724Y-98818802D01*
X125631752Y-98816118D01*
X125786253Y-98703866D01*
X125804642Y-98683443D01*
X125909621Y-98566852D01*
X125909622Y-98566851D01*
X125914040Y-98561944D01*
X126009527Y-98396556D01*
X126068542Y-98214928D01*
X126088504Y-98025000D01*
X126068542Y-97835072D01*
X126009527Y-97653444D01*
X125914040Y-97488056D01*
X125797631Y-97358770D01*
X125790675Y-97351045D01*
X125790674Y-97351044D01*
X125786253Y-97346134D01*
X125631752Y-97233882D01*
X125625724Y-97231198D01*
X125625722Y-97231197D01*
X125463319Y-97158891D01*
X125463318Y-97158891D01*
X125457288Y-97156206D01*
X125363887Y-97136353D01*
X125276944Y-97117872D01*
X125276939Y-97117872D01*
X125270487Y-97116500D01*
X125079513Y-97116500D01*
X125073061Y-97117872D01*
X125073056Y-97117872D01*
X124986112Y-97136353D01*
X124892712Y-97156206D01*
X124886682Y-97158891D01*
X124886681Y-97158891D01*
X124724278Y-97231197D01*
X124724276Y-97231198D01*
X124718248Y-97233882D01*
X124563747Y-97346134D01*
X124559326Y-97351044D01*
X124559325Y-97351045D01*
X124552370Y-97358770D01*
X124435960Y-97488056D01*
X124340473Y-97653444D01*
X124281458Y-97835072D01*
X124261496Y-98025000D01*
X117291885Y-98025000D01*
X117417713Y-97871268D01*
X117567927Y-97626142D01*
X117626033Y-97493774D01*
X117681757Y-97366830D01*
X117683483Y-97362898D01*
X117686860Y-97351045D01*
X117761068Y-97090534D01*
X117762244Y-97086406D01*
X117802751Y-96801784D01*
X117802845Y-96783951D01*
X117804235Y-96518583D01*
X117804235Y-96518576D01*
X117804257Y-96514297D01*
X117766732Y-96229266D01*
X117690871Y-95951964D01*
X117578077Y-95687524D01*
X117430439Y-95440839D01*
X117250687Y-95216472D01*
X117042149Y-95018577D01*
X116808683Y-94850814D01*
X116786843Y-94839250D01*
X116763654Y-94826972D01*
X116554608Y-94716288D01*
X116284627Y-94617489D01*
X116003736Y-94556245D01*
X115972685Y-94553801D01*
X115780718Y-94538693D01*
X115780709Y-94538693D01*
X115778261Y-94538500D01*
X115622729Y-94538500D01*
X115620593Y-94538646D01*
X115620582Y-94538646D01*
X115412452Y-94552835D01*
X115412446Y-94552836D01*
X115408175Y-94553127D01*
X115403980Y-94553996D01*
X115403978Y-94553996D01*
X115364184Y-94562237D01*
X115126658Y-94611426D01*
X114855657Y-94707393D01*
X114600188Y-94839250D01*
X114596687Y-94841711D01*
X114596683Y-94841713D01*
X114586594Y-94848804D01*
X114364977Y-95004559D01*
X114154378Y-95200260D01*
X113972287Y-95422732D01*
X113822073Y-95667858D01*
X113706517Y-95931102D01*
X113627756Y-96207594D01*
X113587249Y-96492216D01*
X113587227Y-96496505D01*
X113587226Y-96496512D01*
X113585765Y-96775417D01*
X113585743Y-96779703D01*
X89802867Y-96779703D01*
X89804235Y-96518583D01*
X89804235Y-96518576D01*
X89804257Y-96514297D01*
X89766732Y-96229266D01*
X89690871Y-95951964D01*
X89578077Y-95687524D01*
X89430439Y-95440839D01*
X89250687Y-95216472D01*
X89042149Y-95018577D01*
X88808683Y-94850814D01*
X88786843Y-94839250D01*
X88763654Y-94826972D01*
X88554608Y-94716288D01*
X88284627Y-94617489D01*
X88003736Y-94556245D01*
X87972685Y-94553801D01*
X87780718Y-94538693D01*
X87780709Y-94538693D01*
X87778261Y-94538500D01*
X87622729Y-94538500D01*
X87620593Y-94538646D01*
X87620582Y-94538646D01*
X87412452Y-94552835D01*
X87412446Y-94552836D01*
X87408175Y-94553127D01*
X87403980Y-94553996D01*
X87403978Y-94553996D01*
X87364184Y-94562237D01*
X87126658Y-94611426D01*
X86855657Y-94707393D01*
X86600188Y-94839250D01*
X86596687Y-94841711D01*
X86596683Y-94841713D01*
X86586594Y-94848804D01*
X86364977Y-95004559D01*
X86154378Y-95200260D01*
X85972287Y-95422732D01*
X85822073Y-95667858D01*
X85706517Y-95931102D01*
X85627756Y-96207594D01*
X85587249Y-96492216D01*
X85587227Y-96496505D01*
X85587226Y-96496512D01*
X85585765Y-96775417D01*
X85585743Y-96779703D01*
X73898000Y-96779703D01*
X73898000Y-93600000D01*
X110511496Y-93600000D01*
X110531458Y-93789928D01*
X110590473Y-93971556D01*
X110685960Y-94136944D01*
X110690378Y-94141851D01*
X110690379Y-94141852D01*
X110699768Y-94152279D01*
X110813747Y-94278866D01*
X110968248Y-94391118D01*
X110974276Y-94393802D01*
X110974278Y-94393803D01*
X111109183Y-94453866D01*
X111142712Y-94468794D01*
X111236113Y-94488647D01*
X111323056Y-94507128D01*
X111323061Y-94507128D01*
X111329513Y-94508500D01*
X111520487Y-94508500D01*
X111526939Y-94507128D01*
X111526944Y-94507128D01*
X111613888Y-94488647D01*
X111707288Y-94468794D01*
X111740817Y-94453866D01*
X111875722Y-94393803D01*
X111875724Y-94393802D01*
X111881752Y-94391118D01*
X112036253Y-94278866D01*
X112150232Y-94152279D01*
X112159621Y-94141852D01*
X112159622Y-94141851D01*
X112164040Y-94136944D01*
X112259527Y-93971556D01*
X112318542Y-93789928D01*
X112320111Y-93775000D01*
X124261496Y-93775000D01*
X124281458Y-93964928D01*
X124340473Y-94146556D01*
X124435960Y-94311944D01*
X124440378Y-94316851D01*
X124440379Y-94316852D01*
X124509666Y-94393803D01*
X124563747Y-94453866D01*
X124580598Y-94466109D01*
X124705916Y-94557158D01*
X124718248Y-94566118D01*
X124724276Y-94568802D01*
X124724278Y-94568803D01*
X124886681Y-94641109D01*
X124892712Y-94643794D01*
X124986112Y-94663647D01*
X125073056Y-94682128D01*
X125073061Y-94682128D01*
X125079513Y-94683500D01*
X125270487Y-94683500D01*
X125276939Y-94682128D01*
X125276944Y-94682128D01*
X125363888Y-94663647D01*
X125457288Y-94643794D01*
X125463319Y-94641109D01*
X125625722Y-94568803D01*
X125625724Y-94568802D01*
X125631752Y-94566118D01*
X125644085Y-94557158D01*
X125769402Y-94466109D01*
X125786253Y-94453866D01*
X125840334Y-94393803D01*
X125909621Y-94316852D01*
X125909622Y-94316851D01*
X125914040Y-94311944D01*
X126009527Y-94146556D01*
X126068542Y-93964928D01*
X126088504Y-93775000D01*
X126068542Y-93585072D01*
X126009527Y-93403444D01*
X125914040Y-93238056D01*
X125905386Y-93228444D01*
X125790675Y-93101045D01*
X125790674Y-93101044D01*
X125786253Y-93096134D01*
X125631752Y-92983882D01*
X125625724Y-92981198D01*
X125625722Y-92981197D01*
X125463319Y-92908891D01*
X125463318Y-92908891D01*
X125457288Y-92906206D01*
X125363888Y-92886353D01*
X125276944Y-92867872D01*
X125276939Y-92867872D01*
X125270487Y-92866500D01*
X125079513Y-92866500D01*
X125073061Y-92867872D01*
X125073056Y-92867872D01*
X124986113Y-92886353D01*
X124892712Y-92906206D01*
X124886682Y-92908891D01*
X124886681Y-92908891D01*
X124724278Y-92981197D01*
X124724276Y-92981198D01*
X124718248Y-92983882D01*
X124563747Y-93096134D01*
X124559326Y-93101044D01*
X124559325Y-93101045D01*
X124444615Y-93228444D01*
X124435960Y-93238056D01*
X124340473Y-93403444D01*
X124281458Y-93585072D01*
X124261496Y-93775000D01*
X112320111Y-93775000D01*
X112338504Y-93600000D01*
X112318542Y-93410072D01*
X112259527Y-93228444D01*
X112164040Y-93063056D01*
X112092752Y-92983882D01*
X112040675Y-92926045D01*
X112040674Y-92926044D01*
X112036253Y-92921134D01*
X111881752Y-92808882D01*
X111875724Y-92806198D01*
X111875722Y-92806197D01*
X111713319Y-92733891D01*
X111713318Y-92733891D01*
X111707288Y-92731206D01*
X111613887Y-92711353D01*
X111526944Y-92692872D01*
X111526939Y-92692872D01*
X111520487Y-92691500D01*
X111329513Y-92691500D01*
X111323061Y-92692872D01*
X111323056Y-92692872D01*
X111236113Y-92711353D01*
X111142712Y-92731206D01*
X111136682Y-92733891D01*
X111136681Y-92733891D01*
X110974278Y-92806197D01*
X110974276Y-92806198D01*
X110968248Y-92808882D01*
X110813747Y-92921134D01*
X110809326Y-92926044D01*
X110809325Y-92926045D01*
X110757249Y-92983882D01*
X110685960Y-93063056D01*
X110590473Y-93228444D01*
X110531458Y-93410072D01*
X110511496Y-93600000D01*
X73898000Y-93600000D01*
X73898000Y-92100000D01*
X78986496Y-92100000D01*
X79006458Y-92289928D01*
X79065473Y-92471556D01*
X79160960Y-92636944D01*
X79288747Y-92778866D01*
X79443248Y-92891118D01*
X79449276Y-92893802D01*
X79449278Y-92893803D01*
X79611681Y-92966109D01*
X79617712Y-92968794D01*
X79706954Y-92987763D01*
X79798056Y-93007128D01*
X79798061Y-93007128D01*
X79804513Y-93008500D01*
X79995487Y-93008500D01*
X80001939Y-93007128D01*
X80001944Y-93007128D01*
X80093046Y-92987763D01*
X80182288Y-92968794D01*
X80188319Y-92966109D01*
X80350722Y-92893803D01*
X80350724Y-92893802D01*
X80356752Y-92891118D01*
X80511253Y-92778866D01*
X80639040Y-92636944D01*
X80734527Y-92471556D01*
X80766507Y-92373134D01*
X88541500Y-92373134D01*
X88548255Y-92435316D01*
X88599385Y-92571705D01*
X88686739Y-92688261D01*
X88803295Y-92775615D01*
X88939684Y-92826745D01*
X89001866Y-92833500D01*
X90798134Y-92833500D01*
X90860316Y-92826745D01*
X90996705Y-92775615D01*
X91113261Y-92688261D01*
X91200615Y-92571705D01*
X91251745Y-92435316D01*
X91258500Y-92373134D01*
X91258500Y-90576866D01*
X91251745Y-90514684D01*
X91200615Y-90378295D01*
X91113261Y-90261739D01*
X90996705Y-90174385D01*
X90860316Y-90123255D01*
X90798134Y-90116500D01*
X89001866Y-90116500D01*
X88939684Y-90123255D01*
X88803295Y-90174385D01*
X88686739Y-90261739D01*
X88599385Y-90378295D01*
X88548255Y-90514684D01*
X88541500Y-90576866D01*
X88541500Y-92373134D01*
X80766507Y-92373134D01*
X80793542Y-92289928D01*
X80813504Y-92100000D01*
X80793542Y-91910072D01*
X80734527Y-91728444D01*
X80639040Y-91563056D01*
X80511253Y-91421134D01*
X80356752Y-91308882D01*
X80350724Y-91306198D01*
X80350722Y-91306197D01*
X80188319Y-91233891D01*
X80188318Y-91233891D01*
X80182288Y-91231206D01*
X80088888Y-91211353D01*
X80001944Y-91192872D01*
X80001939Y-91192872D01*
X79995487Y-91191500D01*
X79804513Y-91191500D01*
X79798061Y-91192872D01*
X79798056Y-91192872D01*
X79711112Y-91211353D01*
X79617712Y-91231206D01*
X79611682Y-91233891D01*
X79611681Y-91233891D01*
X79449278Y-91306197D01*
X79449276Y-91306198D01*
X79443248Y-91308882D01*
X79288747Y-91421134D01*
X79160960Y-91563056D01*
X79065473Y-91728444D01*
X79006458Y-91910072D01*
X78986496Y-92100000D01*
X73898000Y-92100000D01*
X73898000Y-89625000D01*
X78261496Y-89625000D01*
X78281458Y-89814928D01*
X78340473Y-89996556D01*
X78435960Y-90161944D01*
X78440378Y-90166851D01*
X78440379Y-90166852D01*
X78559325Y-90298955D01*
X78563747Y-90303866D01*
X78718248Y-90416118D01*
X78724276Y-90418802D01*
X78724278Y-90418803D01*
X78886681Y-90491109D01*
X78892712Y-90493794D01*
X78986112Y-90513647D01*
X79073056Y-90532128D01*
X79073061Y-90532128D01*
X79079513Y-90533500D01*
X79270487Y-90533500D01*
X79276939Y-90532128D01*
X79276944Y-90532128D01*
X79363888Y-90513647D01*
X79457288Y-90493794D01*
X79463319Y-90491109D01*
X79625722Y-90418803D01*
X79625724Y-90418802D01*
X79631752Y-90416118D01*
X79786253Y-90303866D01*
X79790675Y-90298955D01*
X79909621Y-90166852D01*
X79909622Y-90166851D01*
X79914040Y-90161944D01*
X80009527Y-89996556D01*
X80068542Y-89814928D01*
X80088504Y-89625000D01*
X80068542Y-89435072D01*
X80009527Y-89253444D01*
X79914040Y-89088056D01*
X79908196Y-89081565D01*
X79902285Y-89075000D01*
X123761496Y-89075000D01*
X123781458Y-89264928D01*
X123840473Y-89446556D01*
X123935960Y-89611944D01*
X123940378Y-89616851D01*
X123940379Y-89616852D01*
X123953627Y-89631565D01*
X124063747Y-89753866D01*
X124218248Y-89866118D01*
X124224276Y-89868802D01*
X124224278Y-89868803D01*
X124386681Y-89941109D01*
X124392712Y-89943794D01*
X124486113Y-89963647D01*
X124573056Y-89982128D01*
X124573061Y-89982128D01*
X124579513Y-89983500D01*
X124770487Y-89983500D01*
X124776939Y-89982128D01*
X124776944Y-89982128D01*
X124863888Y-89963647D01*
X124957288Y-89943794D01*
X124963319Y-89941109D01*
X125125722Y-89868803D01*
X125125724Y-89868802D01*
X125131752Y-89866118D01*
X125286253Y-89753866D01*
X125396373Y-89631565D01*
X125409621Y-89616852D01*
X125409622Y-89616851D01*
X125414040Y-89611944D01*
X125509527Y-89446556D01*
X125568542Y-89264928D01*
X125588504Y-89075000D01*
X125568542Y-88885072D01*
X125509527Y-88703444D01*
X125414040Y-88538056D01*
X125286253Y-88396134D01*
X125131752Y-88283882D01*
X125125724Y-88281198D01*
X125125722Y-88281197D01*
X124963319Y-88208891D01*
X124963318Y-88208891D01*
X124957288Y-88206206D01*
X124863888Y-88186353D01*
X124776944Y-88167872D01*
X124776939Y-88167872D01*
X124770487Y-88166500D01*
X124579513Y-88166500D01*
X124573061Y-88167872D01*
X124573056Y-88167872D01*
X124486112Y-88186353D01*
X124392712Y-88206206D01*
X124386682Y-88208891D01*
X124386681Y-88208891D01*
X124224278Y-88281197D01*
X124224276Y-88281198D01*
X124218248Y-88283882D01*
X124063747Y-88396134D01*
X123935960Y-88538056D01*
X123840473Y-88703444D01*
X123781458Y-88885072D01*
X123761496Y-89075000D01*
X79902285Y-89075000D01*
X79790675Y-88951045D01*
X79790674Y-88951044D01*
X79786253Y-88946134D01*
X79631752Y-88833882D01*
X79625724Y-88831198D01*
X79625722Y-88831197D01*
X79463319Y-88758891D01*
X79463318Y-88758891D01*
X79457288Y-88756206D01*
X79363887Y-88736353D01*
X79276944Y-88717872D01*
X79276939Y-88717872D01*
X79270487Y-88716500D01*
X79079513Y-88716500D01*
X79073061Y-88717872D01*
X79073056Y-88717872D01*
X78986113Y-88736353D01*
X78892712Y-88756206D01*
X78886682Y-88758891D01*
X78886681Y-88758891D01*
X78724278Y-88831197D01*
X78724276Y-88831198D01*
X78718248Y-88833882D01*
X78563747Y-88946134D01*
X78559326Y-88951044D01*
X78559325Y-88951045D01*
X78441805Y-89081565D01*
X78435960Y-89088056D01*
X78340473Y-89253444D01*
X78281458Y-89435072D01*
X78261496Y-89625000D01*
X73898000Y-89625000D01*
X73898000Y-86850000D01*
X99761496Y-86850000D01*
X99781458Y-87039928D01*
X99840473Y-87221556D01*
X99935960Y-87386944D01*
X100063747Y-87528866D01*
X100218248Y-87641118D01*
X100224276Y-87643802D01*
X100224278Y-87643803D01*
X100386681Y-87716109D01*
X100392712Y-87718794D01*
X100486113Y-87738647D01*
X100573056Y-87757128D01*
X100573061Y-87757128D01*
X100579513Y-87758500D01*
X100770487Y-87758500D01*
X100776939Y-87757128D01*
X100776944Y-87757128D01*
X100863887Y-87738647D01*
X100957288Y-87718794D01*
X100963319Y-87716109D01*
X101125722Y-87643803D01*
X101125724Y-87643802D01*
X101131752Y-87641118D01*
X101286253Y-87528866D01*
X101414040Y-87386944D01*
X101509527Y-87221556D01*
X101568542Y-87039928D01*
X101588504Y-86850000D01*
X106411496Y-86850000D01*
X106431458Y-87039928D01*
X106490473Y-87221556D01*
X106585960Y-87386944D01*
X106713747Y-87528866D01*
X106868248Y-87641118D01*
X106874276Y-87643802D01*
X106874278Y-87643803D01*
X107036681Y-87716109D01*
X107042712Y-87718794D01*
X107136113Y-87738647D01*
X107223056Y-87757128D01*
X107223061Y-87757128D01*
X107229513Y-87758500D01*
X107420487Y-87758500D01*
X107426939Y-87757128D01*
X107426944Y-87757128D01*
X107513887Y-87738647D01*
X107607288Y-87718794D01*
X107613319Y-87716109D01*
X107775722Y-87643803D01*
X107775724Y-87643802D01*
X107781752Y-87641118D01*
X107936253Y-87528866D01*
X108064040Y-87386944D01*
X108159527Y-87221556D01*
X108218542Y-87039928D01*
X108238504Y-86850000D01*
X112936496Y-86850000D01*
X112956458Y-87039928D01*
X113015473Y-87221556D01*
X113110960Y-87386944D01*
X113238747Y-87528866D01*
X113393248Y-87641118D01*
X113399276Y-87643802D01*
X113399278Y-87643803D01*
X113561681Y-87716109D01*
X113567712Y-87718794D01*
X113661113Y-87738647D01*
X113748056Y-87757128D01*
X113748061Y-87757128D01*
X113754513Y-87758500D01*
X113945487Y-87758500D01*
X113951939Y-87757128D01*
X113951944Y-87757128D01*
X114038887Y-87738647D01*
X114132288Y-87718794D01*
X114138319Y-87716109D01*
X114300722Y-87643803D01*
X114300724Y-87643802D01*
X114306752Y-87641118D01*
X114461253Y-87528866D01*
X114589040Y-87386944D01*
X114684527Y-87221556D01*
X114743542Y-87039928D01*
X114763504Y-86850000D01*
X114743542Y-86660072D01*
X114684527Y-86478444D01*
X114589040Y-86313056D01*
X114461253Y-86171134D01*
X114306752Y-86058882D01*
X114300724Y-86056198D01*
X114300722Y-86056197D01*
X114138319Y-85983891D01*
X114138318Y-85983891D01*
X114132288Y-85981206D01*
X114038887Y-85961353D01*
X113951944Y-85942872D01*
X113951939Y-85942872D01*
X113945487Y-85941500D01*
X113754513Y-85941500D01*
X113748061Y-85942872D01*
X113748056Y-85942872D01*
X113661113Y-85961353D01*
X113567712Y-85981206D01*
X113561682Y-85983891D01*
X113561681Y-85983891D01*
X113399278Y-86056197D01*
X113399276Y-86056198D01*
X113393248Y-86058882D01*
X113238747Y-86171134D01*
X113110960Y-86313056D01*
X113015473Y-86478444D01*
X112956458Y-86660072D01*
X112936496Y-86850000D01*
X108238504Y-86850000D01*
X108218542Y-86660072D01*
X108159527Y-86478444D01*
X108064040Y-86313056D01*
X107936253Y-86171134D01*
X107781752Y-86058882D01*
X107775724Y-86056198D01*
X107775722Y-86056197D01*
X107613319Y-85983891D01*
X107613318Y-85983891D01*
X107607288Y-85981206D01*
X107513887Y-85961353D01*
X107426944Y-85942872D01*
X107426939Y-85942872D01*
X107420487Y-85941500D01*
X107229513Y-85941500D01*
X107223061Y-85942872D01*
X107223056Y-85942872D01*
X107136113Y-85961353D01*
X107042712Y-85981206D01*
X107036682Y-85983891D01*
X107036681Y-85983891D01*
X106874278Y-86056197D01*
X106874276Y-86056198D01*
X106868248Y-86058882D01*
X106713747Y-86171134D01*
X106585960Y-86313056D01*
X106490473Y-86478444D01*
X106431458Y-86660072D01*
X106411496Y-86850000D01*
X101588504Y-86850000D01*
X101568542Y-86660072D01*
X101509527Y-86478444D01*
X101414040Y-86313056D01*
X101286253Y-86171134D01*
X101131752Y-86058882D01*
X101125724Y-86056198D01*
X101125722Y-86056197D01*
X100963319Y-85983891D01*
X100963318Y-85983891D01*
X100957288Y-85981206D01*
X100863887Y-85961353D01*
X100776944Y-85942872D01*
X100776939Y-85942872D01*
X100770487Y-85941500D01*
X100579513Y-85941500D01*
X100573061Y-85942872D01*
X100573056Y-85942872D01*
X100486113Y-85961353D01*
X100392712Y-85981206D01*
X100386682Y-85983891D01*
X100386681Y-85983891D01*
X100224278Y-86056197D01*
X100224276Y-86056198D01*
X100218248Y-86058882D01*
X100063747Y-86171134D01*
X99935960Y-86313056D01*
X99840473Y-86478444D01*
X99781458Y-86660072D01*
X99761496Y-86850000D01*
X73898000Y-86850000D01*
X73898000Y-82451000D01*
X73918002Y-82382879D01*
X73971658Y-82336386D01*
X74024000Y-82325000D01*
X129366000Y-82325000D01*
X129434121Y-82345002D01*
G37*
%TD.AperFunction*%
%TD*%
M02*
