%TF.GenerationSoftware,KiCad,Pcbnew,(6.0.1-0)*%
%TF.CreationDate,2022-01-30T18:46:34+01:00*%
%TF.ProjectId,Pico_LoRa,5069636f-5f4c-46f5-9261-2e6b69636164,1.1*%
%TF.SameCoordinates,Original*%
%TF.FileFunction,Legend,Bot*%
%TF.FilePolarity,Positive*%
%FSLAX46Y46*%
G04 Gerber Fmt 4.6, Leading zero omitted, Abs format (unit mm)*
G04 Created by KiCad (PCBNEW (6.0.1-0)) date 2022-01-30 18:46:34*
%MOMM*%
%LPD*%
G01*
G04 APERTURE LIST*
%ADD10C,0.150000*%
G04 APERTURE END LIST*
D10*
X105782738Y-127062380D02*
X106258928Y-127062380D01*
X106258928Y-126062380D01*
X105306547Y-127062380D02*
X105401785Y-127014761D01*
X105449404Y-126967142D01*
X105497023Y-126871904D01*
X105497023Y-126586190D01*
X105449404Y-126490952D01*
X105401785Y-126443333D01*
X105306547Y-126395714D01*
X105163690Y-126395714D01*
X105068452Y-126443333D01*
X105020833Y-126490952D01*
X104973214Y-126586190D01*
X104973214Y-126871904D01*
X105020833Y-126967142D01*
X105068452Y-127014761D01*
X105163690Y-127062380D01*
X105306547Y-127062380D01*
X103973214Y-127062380D02*
X104306547Y-126586190D01*
X104544642Y-127062380D02*
X104544642Y-126062380D01*
X104163690Y-126062380D01*
X104068452Y-126110000D01*
X104020833Y-126157619D01*
X103973214Y-126252857D01*
X103973214Y-126395714D01*
X104020833Y-126490952D01*
X104068452Y-126538571D01*
X104163690Y-126586190D01*
X104544642Y-126586190D01*
X103116071Y-127062380D02*
X103116071Y-126538571D01*
X103163690Y-126443333D01*
X103258928Y-126395714D01*
X103449404Y-126395714D01*
X103544642Y-126443333D01*
X103116071Y-127014761D02*
X103211309Y-127062380D01*
X103449404Y-127062380D01*
X103544642Y-127014761D01*
X103592261Y-126919523D01*
X103592261Y-126824285D01*
X103544642Y-126729047D01*
X103449404Y-126681428D01*
X103211309Y-126681428D01*
X103116071Y-126633809D01*
X101877976Y-127062380D02*
X101877976Y-126062380D01*
X101544642Y-126776666D01*
X101211309Y-126062380D01*
X101211309Y-127062380D01*
X100592261Y-127062380D02*
X100687500Y-127014761D01*
X100735119Y-126967142D01*
X100782738Y-126871904D01*
X100782738Y-126586190D01*
X100735119Y-126490952D01*
X100687500Y-126443333D01*
X100592261Y-126395714D01*
X100449404Y-126395714D01*
X100354166Y-126443333D01*
X100306547Y-126490952D01*
X100258928Y-126586190D01*
X100258928Y-126871904D01*
X100306547Y-126967142D01*
X100354166Y-127014761D01*
X100449404Y-127062380D01*
X100592261Y-127062380D01*
X99401785Y-127062380D02*
X99401785Y-126062380D01*
X99401785Y-127014761D02*
X99497023Y-127062380D01*
X99687500Y-127062380D01*
X99782738Y-127014761D01*
X99830357Y-126967142D01*
X99877976Y-126871904D01*
X99877976Y-126586190D01*
X99830357Y-126490952D01*
X99782738Y-126443333D01*
X99687500Y-126395714D01*
X99497023Y-126395714D01*
X99401785Y-126443333D01*
X98497023Y-126395714D02*
X98497023Y-127062380D01*
X98925595Y-126395714D02*
X98925595Y-126919523D01*
X98877976Y-127014761D01*
X98782738Y-127062380D01*
X98639880Y-127062380D01*
X98544642Y-127014761D01*
X98497023Y-126967142D01*
X97877976Y-127062380D02*
X97973214Y-127014761D01*
X98020833Y-126919523D01*
X98020833Y-126062380D01*
X97116071Y-127014761D02*
X97211309Y-127062380D01*
X97401785Y-127062380D01*
X97497023Y-127014761D01*
X97544642Y-126919523D01*
X97544642Y-126538571D01*
X97497023Y-126443333D01*
X97401785Y-126395714D01*
X97211309Y-126395714D01*
X97116071Y-126443333D01*
X97068452Y-126538571D01*
X97068452Y-126633809D01*
X97544642Y-126729047D01*
X104711309Y-128577142D02*
X104758928Y-128624761D01*
X104901785Y-128672380D01*
X104997023Y-128672380D01*
X105139880Y-128624761D01*
X105235119Y-128529523D01*
X105282738Y-128434285D01*
X105330357Y-128243809D01*
X105330357Y-128100952D01*
X105282738Y-127910476D01*
X105235119Y-127815238D01*
X105139880Y-127720000D01*
X104997023Y-127672380D01*
X104901785Y-127672380D01*
X104758928Y-127720000D01*
X104711309Y-127767619D01*
X104282738Y-128672380D02*
X104282738Y-127672380D01*
X103854166Y-128672380D02*
X103854166Y-128148571D01*
X103901785Y-128053333D01*
X103997023Y-128005714D01*
X104139880Y-128005714D01*
X104235119Y-128053333D01*
X104282738Y-128100952D01*
X102997023Y-128624761D02*
X103092261Y-128672380D01*
X103282738Y-128672380D01*
X103377976Y-128624761D01*
X103425595Y-128529523D01*
X103425595Y-128148571D01*
X103377976Y-128053333D01*
X103282738Y-128005714D01*
X103092261Y-128005714D01*
X102997023Y-128053333D01*
X102949404Y-128148571D01*
X102949404Y-128243809D01*
X103425595Y-128339047D01*
X102520833Y-128672380D02*
X102520833Y-128005714D01*
X102520833Y-128196190D02*
X102473214Y-128100952D01*
X102425595Y-128053333D01*
X102330357Y-128005714D01*
X102235119Y-128005714D01*
X101901785Y-128672380D02*
X101901785Y-128005714D01*
X101901785Y-128196190D02*
X101854166Y-128100952D01*
X101806547Y-128053333D01*
X101711309Y-128005714D01*
X101616071Y-128005714D01*
X101377976Y-128005714D02*
X101139880Y-128672380D01*
X100901785Y-128005714D02*
X101139880Y-128672380D01*
X101235119Y-128910476D01*
X101282738Y-128958095D01*
X101377976Y-129005714D01*
X100663690Y-128005714D02*
X100282738Y-128005714D01*
X100520833Y-127672380D02*
X100520833Y-128529523D01*
X100473214Y-128624761D01*
X100377976Y-128672380D01*
X100282738Y-128672380D01*
X99949404Y-128672380D02*
X99949404Y-128005714D01*
X99949404Y-128196190D02*
X99901785Y-128100952D01*
X99854166Y-128053333D01*
X99758928Y-128005714D01*
X99663690Y-128005714D01*
X98949404Y-128624761D02*
X99044642Y-128672380D01*
X99235119Y-128672380D01*
X99330357Y-128624761D01*
X99377976Y-128529523D01*
X99377976Y-128148571D01*
X99330357Y-128053333D01*
X99235119Y-128005714D01*
X99044642Y-128005714D01*
X98949404Y-128053333D01*
X98901785Y-128148571D01*
X98901785Y-128243809D01*
X99377976Y-128339047D01*
X98092261Y-128624761D02*
X98187500Y-128672380D01*
X98377976Y-128672380D01*
X98473214Y-128624761D01*
X98520833Y-128529523D01*
X98520833Y-128148571D01*
X98473214Y-128053333D01*
X98377976Y-128005714D01*
X98187500Y-128005714D01*
X98092261Y-128053333D01*
X98044642Y-128148571D01*
X98044642Y-128243809D01*
X98520833Y-128339047D01*
X111520833Y-129615714D02*
X111139880Y-129615714D01*
X111377976Y-130282380D02*
X111377976Y-129425238D01*
X111330357Y-129330000D01*
X111235119Y-129282380D01*
X111139880Y-129282380D01*
X110806547Y-130282380D02*
X110806547Y-129615714D01*
X110806547Y-129806190D02*
X110758928Y-129710952D01*
X110711309Y-129663333D01*
X110616071Y-129615714D01*
X110520833Y-129615714D01*
X109758928Y-130282380D02*
X109758928Y-129758571D01*
X109806547Y-129663333D01*
X109901785Y-129615714D01*
X110092261Y-129615714D01*
X110187500Y-129663333D01*
X109758928Y-130234761D02*
X109854166Y-130282380D01*
X110092261Y-130282380D01*
X110187500Y-130234761D01*
X110235119Y-130139523D01*
X110235119Y-130044285D01*
X110187500Y-129949047D01*
X110092261Y-129901428D01*
X109854166Y-129901428D01*
X109758928Y-129853809D01*
X109282738Y-129615714D02*
X109282738Y-130282380D01*
X109282738Y-129710952D02*
X109235119Y-129663333D01*
X109139880Y-129615714D01*
X108997023Y-129615714D01*
X108901785Y-129663333D01*
X108854166Y-129758571D01*
X108854166Y-130282380D01*
X108377976Y-130282380D02*
X108377976Y-129282380D01*
X108282738Y-129901428D02*
X107997023Y-130282380D01*
X107997023Y-129615714D02*
X108377976Y-129996666D01*
X107568452Y-130187142D02*
X107520833Y-130234761D01*
X107568452Y-130282380D01*
X107616071Y-130234761D01*
X107568452Y-130187142D01*
X107568452Y-130282380D01*
X107092261Y-130282380D02*
X107092261Y-129282380D01*
X106997023Y-129901428D02*
X106711309Y-130282380D01*
X106711309Y-129615714D02*
X107092261Y-129996666D01*
X106282738Y-130282380D02*
X106282738Y-129615714D01*
X106282738Y-129282380D02*
X106330357Y-129330000D01*
X106282738Y-129377619D01*
X106235119Y-129330000D01*
X106282738Y-129282380D01*
X106282738Y-129377619D01*
X105806547Y-130282380D02*
X105806547Y-129615714D01*
X105806547Y-129806190D02*
X105758928Y-129710952D01*
X105711309Y-129663333D01*
X105616071Y-129615714D01*
X105520833Y-129615714D01*
X105235119Y-130234761D02*
X105139880Y-130282380D01*
X104949404Y-130282380D01*
X104854166Y-130234761D01*
X104806547Y-130139523D01*
X104806547Y-130091904D01*
X104854166Y-129996666D01*
X104949404Y-129949047D01*
X105092261Y-129949047D01*
X105187500Y-129901428D01*
X105235119Y-129806190D01*
X105235119Y-129758571D01*
X105187500Y-129663333D01*
X105092261Y-129615714D01*
X104949404Y-129615714D01*
X104854166Y-129663333D01*
X103949404Y-130234761D02*
X104044642Y-130282380D01*
X104235119Y-130282380D01*
X104330357Y-130234761D01*
X104377976Y-130187142D01*
X104425595Y-130091904D01*
X104425595Y-129806190D01*
X104377976Y-129710952D01*
X104330357Y-129663333D01*
X104235119Y-129615714D01*
X104044642Y-129615714D01*
X103949404Y-129663333D01*
X103520833Y-130282380D02*
X103520833Y-129282380D01*
X103092261Y-130282380D02*
X103092261Y-129758571D01*
X103139880Y-129663333D01*
X103235119Y-129615714D01*
X103377976Y-129615714D01*
X103473214Y-129663333D01*
X103520833Y-129710952D01*
X102616071Y-130282380D02*
X102616071Y-129282380D01*
X102616071Y-129663333D02*
X102520833Y-129615714D01*
X102330357Y-129615714D01*
X102235119Y-129663333D01*
X102187500Y-129710952D01*
X102139880Y-129806190D01*
X102139880Y-130091904D01*
X102187500Y-130187142D01*
X102235119Y-130234761D01*
X102330357Y-130282380D01*
X102520833Y-130282380D01*
X102616071Y-130234761D01*
X101282738Y-130282380D02*
X101282738Y-129758571D01*
X101330357Y-129663333D01*
X101425595Y-129615714D01*
X101616071Y-129615714D01*
X101711309Y-129663333D01*
X101282738Y-130234761D02*
X101377976Y-130282380D01*
X101616071Y-130282380D01*
X101711309Y-130234761D01*
X101758928Y-130139523D01*
X101758928Y-130044285D01*
X101711309Y-129949047D01*
X101616071Y-129901428D01*
X101377976Y-129901428D01*
X101282738Y-129853809D01*
X100377976Y-129615714D02*
X100377976Y-130282380D01*
X100806547Y-129615714D02*
X100806547Y-130139523D01*
X100758928Y-130234761D01*
X100663690Y-130282380D01*
X100520833Y-130282380D01*
X100425595Y-130234761D01*
X100377976Y-130187142D01*
X99901785Y-130282380D02*
X99901785Y-129615714D01*
X99901785Y-129710952D02*
X99854166Y-129663333D01*
X99758928Y-129615714D01*
X99616071Y-129615714D01*
X99520833Y-129663333D01*
X99473214Y-129758571D01*
X99473214Y-130282380D01*
X99473214Y-129758571D02*
X99425595Y-129663333D01*
X99330357Y-129615714D01*
X99187500Y-129615714D01*
X99092261Y-129663333D01*
X99044642Y-129758571D01*
X99044642Y-130282380D01*
X97949404Y-129806190D02*
X97997023Y-129758571D01*
X98092261Y-129710952D01*
X98187500Y-129710952D01*
X98282738Y-129758571D01*
X98330357Y-129806190D01*
X98377976Y-129901428D01*
X98377976Y-129996666D01*
X98330357Y-130091904D01*
X98282738Y-130139523D01*
X98187500Y-130187142D01*
X98092261Y-130187142D01*
X97997023Y-130139523D01*
X97949404Y-130091904D01*
X97949404Y-129710952D02*
X97949404Y-130091904D01*
X97901785Y-130139523D01*
X97854166Y-130139523D01*
X97758928Y-130091904D01*
X97711309Y-129996666D01*
X97711309Y-129758571D01*
X97806547Y-129615714D01*
X97949404Y-129520476D01*
X98139880Y-129472857D01*
X98330357Y-129520476D01*
X98473214Y-129615714D01*
X98568452Y-129758571D01*
X98616071Y-129949047D01*
X98568452Y-130139523D01*
X98473214Y-130282380D01*
X98330357Y-130377619D01*
X98139880Y-130425238D01*
X97949404Y-130377619D01*
X97806547Y-130282380D01*
X97282738Y-130282380D02*
X97282738Y-129615714D01*
X97282738Y-129710952D02*
X97235119Y-129663333D01*
X97139880Y-129615714D01*
X96997023Y-129615714D01*
X96901785Y-129663333D01*
X96854166Y-129758571D01*
X96854166Y-130282380D01*
X96854166Y-129758571D02*
X96806547Y-129663333D01*
X96711309Y-129615714D01*
X96568452Y-129615714D01*
X96473214Y-129663333D01*
X96425595Y-129758571D01*
X96425595Y-130282380D01*
X95568452Y-130234761D02*
X95663690Y-130282380D01*
X95854166Y-130282380D01*
X95949404Y-130234761D01*
X95997023Y-130139523D01*
X95997023Y-129758571D01*
X95949404Y-129663333D01*
X95854166Y-129615714D01*
X95663690Y-129615714D01*
X95568452Y-129663333D01*
X95520833Y-129758571D01*
X95520833Y-129853809D01*
X95997023Y-129949047D01*
X95092261Y-130187142D02*
X95044642Y-130234761D01*
X95092261Y-130282380D01*
X95139880Y-130234761D01*
X95092261Y-130187142D01*
X95092261Y-130282380D01*
X94187500Y-130234761D02*
X94282738Y-130282380D01*
X94473214Y-130282380D01*
X94568452Y-130234761D01*
X94616071Y-130187142D01*
X94663690Y-130091904D01*
X94663690Y-129806190D01*
X94616071Y-129710952D01*
X94568452Y-129663333D01*
X94473214Y-129615714D01*
X94282738Y-129615714D01*
X94187500Y-129663333D01*
X93616071Y-130282380D02*
X93711309Y-130234761D01*
X93758928Y-130187142D01*
X93806547Y-130091904D01*
X93806547Y-129806190D01*
X93758928Y-129710952D01*
X93711309Y-129663333D01*
X93616071Y-129615714D01*
X93473214Y-129615714D01*
X93377976Y-129663333D01*
X93330357Y-129710952D01*
X93282738Y-129806190D01*
X93282738Y-130091904D01*
X93330357Y-130187142D01*
X93377976Y-130234761D01*
X93473214Y-130282380D01*
X93616071Y-130282380D01*
X92854166Y-130282380D02*
X92854166Y-129615714D01*
X92854166Y-129710952D02*
X92806547Y-129663333D01*
X92711309Y-129615714D01*
X92568452Y-129615714D01*
X92473214Y-129663333D01*
X92425595Y-129758571D01*
X92425595Y-130282380D01*
X92425595Y-129758571D02*
X92377976Y-129663333D01*
X92282738Y-129615714D01*
X92139880Y-129615714D01*
X92044642Y-129663333D01*
X91997023Y-129758571D01*
X91997023Y-130282380D01*
M02*
